<?xml version="1.0" encoding="UTF-8"?>
<svg id="Isolation_Mode" data-name="Isolation Mode" xmlns="http://www.w3.org/2000/svg" viewBox="0 0 1291.48 1264">
    <defs>
        <style>
            .cls-1 {
            fill: none;
            stroke-width: 0px;
            }
        </style>
    </defs>
    <path class="cls-1" d="M424.5,325.06c-4.61-2.98-9.21-5.98-13.9-8.82-26.99-16.37-54.4-31.97-82.53-46.25-10.55-5.36-21.35-10.23-32.06-15.26-1.16-.55-2.51-.7-3.85-1.05-.54,1.01-1.02,1.66-1.26,2.38-5.75,17.5-10.65,35.25-17.04,52.56-5.29,14.3-8.78,29.28-13.09,43.95-2.72,9.27-5.61,18.5-8.21,27.81-1.91,6.84-3.44,13.78-5.17,20.67-.79,3.14.15,5.81,1.89,8.41,2.81,4.18,2.47,5.02-2.27,6.37-.74.21-1.48.44-2.09.62-3.04,7.79-2.96,7.9,3.49,12.11,5.79,3.78,11.47,7.72,17.26,11.5,1.73,1.12,3.67,1.91,5.49,2.84,4.61-8.46,5.26-8.89,10.36-6.98.32,5.25-5.97,5.76-7.2,10.24.76.65,1.59,1.45,2.49,2.15,6.11,4.73,13.41,8,17.87,14.78.21.32.57.54.88.79,2.58,2.04,5.17,4.08,6.72,5.31,4.53.46,8,.92,11.49,1.12,2.02.12,3.62.73,3.82,2.86.09.99-.71,2.9-1.22,2.94-1.35.12-3.1-.17-4.09-1.02-1.47-1.26-2.43-1.96-3.87.37,2.79,2.55,4.63,6.22,9.13,6.63.95.09,2.63,1.34,2.57,1.89-.39,3.37,3.21,4.32,3.91,7.11.35,1.38,2.41,3.11,3.85,3.27,3.63.41,5.67,2.33,6.81,5.83,2.14-1.08,3.94-1.99,5.74-2.9.11-.47.23-.93.34-1.4-4.76-1.1-8.69-3.34-11.81-7.39.94-2.11,1.36-4.89,2.96-6.2,1.94-1.58,4.83-2.15,7.4-2.7,1.68-.36,3.01.66,3.05,3.11-.74.56-1.68,1.21-2.56,1.93-1.01.84-1.96,1.75-2.9,2.6,2.03,2.75,6.03,2.45,12-.87.66,1.08,1.24,2.26,2.03,3.26,1.07,1.37,2.08,3.32,3.5,3.76,3.11.98,5.53,2.66,7.76,6.34.8-5.02-2.6-6.7-3.93-9.35-1.52-3.03-3.9-5.03-7.45-4.95-3.29.07-4.64-1.71-4.74-4.74-.06-1.89-.62-3.14-2.23-4.45-3.01-2.45-2.7-4.02.49-6.48.71-.55,1.43-1.07,2.2-1.64-3.52-1.84-6.68-3.5-10.96-5.73,4.52-1.45,7.78-2.48,11.53-3.68-.74-1.45-1.16-2.72-1.93-3.71-1.62-2.09-1.34-4.35.01-6.06,1.64-2.08,3.73-4,6-5.3,1.19-.68,3.37-.28,4.78.37.85.39,1.59,2.24,1.46,3.32-.23,1.96-1.89,2.18-3.65,1.89-.66-.11-1.41.28-2.57.54,0,2.68-.55,5.33.12,7.59,1.21,4.08.48,7.75-.94,11.47-.38,1.01-.84,1.99-1.88,4.42,2.33-.92,3.72-1.04,4.33-1.8.81-1.01.62-3.02,1.53-3.73,4.39-3.42,5.73-7.83,5.36-13.21-.15-2.24,1.38-4.06,3.78-3.3,3.1.98,5.09-.29,7.49-1.96,2.17-1.51,5.01-2.01,7.52-3.03,1.15-.47,2.31-1.01,3.32-1.71,1.34-.93,2.56-2.04,3.84-3.09-4.53-4.09-4.48-4.03-.13-7.91.92-.82,1.37-2.22,1.96-3.39,1.15-2.28,2.26-4.57,3.34-6.88.57-1.22,1.25-2.43,1.53-3.73.63-2.84,1.04-5.72,1.58-8.89-5.34-6.14,1.64-9.69,3.35-14.7,1.18.59,1.98.98,3.21,1.59,2.18-4.92,5.05-8.87,3.75-14.36-.44-1.85,1.37-4.23,2.15-6.37,5.37.71,5.6-3.94,7.02-7.11,4.79-10.65,9.23-21.45,14.17-32.02,3.07-6.57,2.84-8.66-3.18-12.56Z"/>
    <path class="cls-1" d="M469.77,358.27c-.88-.71-1.94-1.2-3.48-2.14-1.14,2.18-2.29,3.98-3.06,5.93-8.83,22.35-17.92,44.61-26.32,67.13-11.57,31.02-19.4,63.06-24,95.89-4.69,33.46-5.85,66.93-1.1,100.53,6.35,44.96,21.85,86.64,43.84,125.98,23.86,42.7,55.32,78.72,94.5,107.76,1.14.85,2.44,1.47,3.67,2.2-.35-2.21-1.12-3.79-2.01-5.3-10.85-18.35-19.78-37.6-26.2-57.98-17.9-56.81-18.57-114.37-6.12-172.19,9.44-43.84,26.5-84.93,47.09-124.53,2.89-5.55,5.36-10.52,1.35-16.38-.21-.31-.27-.74-.37-1.13-5.13-18.87-14.18-35.74-25.48-51.51-20.39-28.46-45.39-52.3-72.3-74.26Z"/>
    <path class="cls-1" d="M1041.05,418.26c-.13-.56-.46-1.06-.62-1.43-.31-.25-.45-.42-.62-.49-.55-.2-1.12-.37-1.68-.54-4.71-1.46-5.01-2.12-2.25-6.49,1.94-3.07,2.34-6.2,1.43-9.67-1.49-5.72-2.85-11.47-4.28-17.2-.24-.96-.52-1.92-.82-2.86-2.34-7.53-5.3-14.92-6.92-22.6-3.76-17.74-9.43-34.86-15.22-51.97-2.34-6.92-5.25-13.64-7.51-20.58-2.89-8.87-5.36-17.87-8.08-26.8-.43-1.42-1.19-2.74-1.95-4.45-2.47,1.1-4.46,1.89-6.37,2.86-19.67,9.95-39.62,19.4-58.92,30.05-22.58,12.46-44.61,25.96-66.85,39.05-1.35.79-2.74,1.74-3.67,2.96-1.75,2.29-2.37,4.63-.76,7.65,3.53,6.63,6.67,13.47,9.78,20.31,2.45,5.4,4.47,11.01,6.96,16.38.75,1.62,2.21,3.27,3.78,4.05,3.8,1.92,5.62,3.95,4.16,7.63-1.28,3.22.5,5.32,1.18,7.82.72,2.65,1.62,4.68,5.52,4.54,2.71-.1,5.84,9.61,4.79,12.75-.39,1.18-1.08,2.59-.75,3.61,1.64,5.08,1.66,10.76,5.45,15.05.36.41.59,1.1.59,1.66-.02,2.48,1.13,3.71,3.38,4.85,2.51,1.27,2.4,2.94.35,5.28-.59.67-1.38,1.15-2.15,1.77,3.57,2.86,6.88,5.25,11.32,5.62,1.41.12,2.92,1.28,4.04,2.34,1.88,1.78,3.71,2.45,6.38,1.93,3.28-.64,4.83.61,4.26,3.62-.51,2.64.15,4.73,1.26,6.78,1.92,3.53,3.95,7.03,6.25,10.31.84,1.2,2.49,1.21,3.22-.67.32-.81.55-1.65.84-2.55,1.62.4,2.76.66,3.89.98.37.1.89.27,1.01.55.51,1.19,1.58,3.24,1.23,3.54-3.14,2.69-3.55,6.54-4.89,10.04-.31.82-2.33.93-3.54,1.43-1.94.8-4.27,1.21-5.68,2.58-2.24,2.18-3.97,4.93-5.65,7.61-.56.89-.31,2.3-.43,3.5,2.2-1.84,3.76-3.94,5.8-4.64,3.11-1.08,5.08-2.76,6.13-5.83.29-.84,1.12-1.49,1.9-2.48,1.51,1.02,2.74,1.93,4.05,2.71,1.34.79,2.76,1.45,4.53,2.38,1.13-1.42,2.15-2.69,3.34-4.16-2.29-1.81-4.11-3.25-6.11-4.82.95-2.17,2.07-3.48,4.5-2.34,1.03.49,2.11,1.63,3.03,1.49,3.92-.59,4.46,2.25,5.48,4.86,1.21,3.07-.9,4.48-2.84,5.75-1.74,1.14-3.85,1.69-5.67,2.72-.94.53-1.6,1.55-2.73,2.69,2.61,1.06,4.37,1.77,6.47,2.62,1.1-3.05,2.64-5.29,6.17-5.49,4.77-.28,4.06-6.62,8.08-8.05.35-.13.05-2.13.05-3.51,4.98-.9,8.9-3.42,11.99-8.07-1.02-.45-1.82-1.11-2.28-.93-.85.35-1.41,1.48-2.26,1.76-1.18.38-2.59.55-3.75.23-.56-.15-1.26-1.83-1.01-2.46.45-1.13,1.57-2.82,2.41-2.82,4.12,0,8.06-3.59,12.25-.18,3.6-5.75,10.75-7.33,13.2-13.7,5.56-3.19,11.07-6.47,16-11.36-2.19-1.84-4.35-3.22-5.9-5.11-.96-1.17-1.5-3.19-1.3-4.7.19-1.44,3.4-1.4,5.15.16,1,.9,1.74,2.13,2.48,3.29.61.97,1.05,2.06,1.89,3.76,2.08-1,4.04-1.7,5.75-2.81,5.97-3.87,11.81-7.92,17.76-11.82,5.42-3.56,5.46-3.51,3.99-9.99Z"/>
    <path class="cls-1" d="M795.52,314.52c-.82-1.09-2.52-1.5-4.03-2.32,1.59-3.42,0-6.18-1.74-8.91-7.46-11.69-14.64-23.58-22.44-35.03-14.81-21.76-29.59-43.55-45.08-64.81-17.73-24.34-36.2-48.12-54.37-72.14-1.9-2.51-4.06-4.82-5.83-7.41-6.13-9-12.13-18.1-18.22-27.12-.28-.42-.99-.54-1.84-.96-1.07,1.41-2.21,2.75-3.17,4.2-5.55,8.44-10.87,17.03-16.64,25.32-4.4,6.32-9.41,12.21-14.03,18.37-21.28,28.32-43.08,56.26-63.6,85.13-17.2,24.21-32.93,49.48-49.13,74.4-1.71,2.63-2.2,6.06-3.15,8.8-1.83,1.94-3.61,3.81-4.97,5.25,1.88,6.64,6.61,2.64,9.83,3.91.2,2.02.38,3.91.55,5.74.72.07,1.1.11,1.49.15,3.2.29,6.66,1.55,7.47-3.68.25-1.62,3.3-1.31,4.27.6,1.53,3.02,1.74,6.04-1.13,8.89-1.9-.92-4.01-5.04-5.99.22,2.98,2.78,5.92,5.71,9.07,8.39,1.82,1.56,3.95,2.85,6.04.11.48-.63,1.21-1.07,2-1.77,1.05,4.33,1.83,8.16,2.94,11.88.84,2.8,3.45,3.85,7.6,3.5,6.15-.51,7.27.75,6.44,6.96-.16,1.2.18,2.47.4,4.94,1.71-2.14,2.74-3.24,3.54-4.48,1.66-2.57,3.75-3.38,6.54-1.97-.09-.2-.18-.39-.27-.58,4.04,6.62-3.27,8.12-5.31,11.99,1.69,4.42,5.88,5.39,9.25,6.62.62,7.03,5.47,10.99,8.39,16.04,1.13-.43,1.67-.65,2.21-.83,4.18-1.39,5.47-.69,6.06,3.44.31,2.15.57,4.33.57,6.49,0,2.03-.38,4.33,1.82,5.18,1.3.5,3.03-.15,4.5-.27,1.24,2.43,1.97,5.4,3.84,7.07,1.87,1.67,4.89,2.05,7.47,3.02.75,4.5-2.99,5.99-5.39,8.05.64,3.07,2.03,4.8,4.97,4.18,2.59-.54,3.17-2.67,3.24-5.01.02-.79.01-1.61.21-2.37.64-2.5,3.44-4.16,5.95-3.49,2.79.75,2.97,2.73,2.29,5.15-.31,1.09-.37,2.25-.54,3.36,1.63.88,2.97,1.6,4.79,2.59,1.01-2.37,1.84-4.32,3.09-7.25.4,1.95.67,2.84.74,3.75.09,1.07.02,2.16.02,4.18,1.99-1.2,3.74-1.68,4.42-2.8,1.09-1.8,1.98-4.02,2.02-6.09.04-2.33-1.72-3.94-4.2-4.16-.96-.09-2.14.59-2.88.22-1.24-.62-3.14-1.89-3.06-2.72.12-1.25,1.59-2.49,2.72-3.46.39-.34,1.51.35,2.22.2,1.83-.37,3.86-.57,5.38-1.53,2.43-1.52,4.53-3.59,6.87-5.52-2.08-4.01-2.16-6.17.16-7.27,1-.47,2.63-.85,3.36-.36,1.65,1.12,2.93,2.82,4.37,4.28,4.14-3.23,5.28-6.45,2.8-8.68-1.1.45-2.31.95-3.75,1.55-3.56-3.39-7.06-6.72-10.56-10.04-1.44-1.37-1.24-2.87-.11-4.23,1.29-1.56,3.04-2.02,4.7-.74,1.04.8,1.64,2.96,2.56,3.04,4.73.4,6.14,4.08,8.07,9.08,1.49-4.95,3.66-7.01,7.75-6.35.95.15,2.17-1.47,2.69-1.86,2.56.71,4.75,1.11,6.76,1.96,1.31.56,2.85,1.54,3.38,2.74.85,1.93,1.13,4.18,1.32,6.33.28,3.11.98,5.83,4.01,7.37,2.78-4.4,5.03-5.66,7.7-4.2.8.44,1.95,1.49,1.86,2.09-.34,2.2-1.14,4.33-1.87,6.82,2.87-.45,5.16.53,6.7,3.29,1.34,2.41,3.67,2.83,6.15,2.15,2.75-.75,4.17.69,4.76,3.04.49,1.93-1.27,3.28-4.57,2.87-2.93-.36-5.01.71-5.34,3.26-.27,2.15.7,4.57,1.54,6.7.73,1.87,2.45,2.34,4.37,1.76,1.1-1.78-1.3-4.59,1.62-5.67.89,2.18,1.75,4.29,2.61,6.4,1.13-2.67,3.07-2.62,4.81-3.01-.26-1.18-.6-2.32-.75-3.48-.51-3.99,1.96-5.81,5.71-4.34,2.82,1.11,2.75,3.53,2.88,5.93.13,2.41,1.06,4.38,3.69,4.6,2.62.22,3.9-1.37,4.18-4.12-2.07-2.4-6.17-3.87-4.73-8.32,2.89-1.09,5.61-2.11,8.27-3.11.42-1.41.71-2.56,1.1-3.68.38-1.09.85-2.14,1.26-3.15,5.8,1.07,6.53.37,6.53-5.4,0-2.36.25-4.74.65-7.06.45-2.64,2.21-3.67,4.76-3.03,1.09.27,2.09.9,3.43,1.51,2.79-4.07,5.44-7.93,8.05-11.82.07-.11-.24-.49-.42-.77-.37-2.58.68-3.97,3.28-4.48,3.23-.62,5.33-2.77,6.97-5.77-1.57-1.52-3.01-2.79-4.32-4.19-3.13-3.34-3.14-3.4-1.05-7.87,5.32-1.41,6.06,4.51,9.32,6.47,1.87-2.18.09-3.93.09-5.7,0-1.9,1.27-3.81,1.83-5.31,2.61,0,4.39-.12,6.14.02,4.14.33,6.09-1.09,6.95-5.08.73-3.38,1.58-6.73,2.45-10.38,3.95,3.45,4.88,3.99,6.9,2.52,3.9-2.85,7.7-5.92,10.26-9.97-2.42-4.37-3.91.22-5.89.21-2.37-2.17-2.6-4.88-1.58-7.6.41-1.1,1.74-2.32,2.83-2.54.69-.14,2.16,1.32,2.51,2.34.8,2.31,1.9,3.23,4.37,2.48,1.39-.42,2.93-.35,4.57-.51v-6.36c1.67.34,3.04.46,4.3.9,2.39.84,4.19-.47,4.8-2.23.43-1.25-.47-3.36-1.41-4.6Z"/>
    <path class="cls-1" d="M821.02,360.44c-.61-1.4-1.57-2.64-2.54-4.26-1.62,1.08-2.99,1.84-4.17,2.81-4.73,3.9-9.5,7.76-14.08,11.83-22.1,19.62-42.82,40.53-59.69,65.07-10.08,14.67-18.12,30.29-22.94,47.52-.43,1.53-.68,3.25-1.56,4.48-2.54,3.53-1.37,6.51.44,9.88,16.35,30.53,29.68,62.36,40.26,95.39,15.57,48.63,20.49,98.35,14.73,149.1-4.57,40.29-17.05,77.95-37.62,112.83-1.13,1.92-2.14,3.91-3.21,5.86,1.51.16,2.25-.12,2.84-.59,10.67-8.81,21.85-17.07,31.87-26.57,33.11-31.4,58.92-68.18,78.24-109.77,29.1-62.69,38.6-128.06,28.94-196.62-8.25-58.54-27.97-113.32-51.49-166.97Z"/>
    <path class="cls-1" d="M591.13,957.6c-.22.03-.45.05-.67.08-.11.05-.22.11-.33.17"/>
    <path class="cls-1" d="M242.78,468.91c-1.58-1.07-3.25-2.01-5.83-3.59-.43,3.09-.76,4.82-.9,6.56-.6,7.74-1.31,15.47-1.69,23.21-1.62,32.69-.48,65.26,4.84,97.58,10.07,61.14,35.71,115.59,71.11,165.55,26.36,37.21,58.45,68.84,95.99,94.51,15.32,10.48,31.19,20.2,47.26,29.46,24.18,13.94,49.54,25.33,76.46,32.9,1.57.44,3.18.69,4.78,1.03-4.43-3.26-9.19-5.57-13.79-8.17-4.64-2.62-9.19-5.4-13.63-8.35-4.44-2.95-8.71-6.16-13-9.33-4.13-3.06-8.21-6.18-12.27-9.34-4.21-3.28-8.4-6.58-12.53-9.97-4.12-3.39-8.25-6.79-12.19-10.38-3.79-3.45-8.13-6.43-10.57-11.24,1.54.46,2.8,1.24,3.97,2.15,14.38,11.13,28.91,22.07,43.09,33.46,19.99,16.04,42.44,27.24,66.37,35.79,11.46,4.09,23.17,6.28,35.32,6.05,1.2-.02,2.39-.38,3.81-.62-.54-.81-.68-1.24-.97-1.44-1.64-1.1-3.3-2.17-4.99-3.19-41.58-25.41-80.75-53.98-115.6-88.44-34.71-34.33-60.65-74.54-80.12-119.22-11.63-26.69-19.26-54.7-25.1-83.17-2.03-9.91-5.36-19.06-10.23-27.79-14.75-26.46-32.59-50.68-51.98-73.81-19.62-23.42-42.4-43.18-67.6-60.19Z"/>
    <path class="cls-1" d="M591.13,957.6c-.19.06-.38.12-.58.19-.14.02-.28.04-.42.06"/>
    <path class="cls-1" d="M685.83,874.37c.42.31.83.62,1.25.93.29-.75.43-1.61.88-2.24,10.63-14.72,19.58-30.29,24.66-47.95,6.18-21.46,10.36-43.31,12.49-65.53,2.21-23.08,2.14-46.21-2.96-68.9-4.3-19.18-9.79-38.09-14.73-57.13-.29-1.14-.37-2.34-.68-4.47,7.5,9.79,19.65,53.39,22.21,77.81,2.83,26.97.96,53.76-2.91,80.52.88-1.46,1.37-2.96,1.81-4.47,9.94-33.5,11.18-67.8,8.74-102.33-1.7-24.16-7.79-47.49-15.28-70.4-18.13-55.52-43.51-107.48-75.69-156.06-.84-1.26-1.91-2.36-3.28-4.04-1.45,2.04-2.61,3.57-3.67,5.18-20.57,31.22-38.49,63.9-53.37,98.27-12.49,28.86-23.53,58.23-30.58,88.98-10.65,46.43-10.14,92.73,2.03,138.83.35,1.32.94,2.57,1.42,3.85-3.34-26.48-4.77-52.81-1.89-79.29,2.8-25.72,15.1-69.15,22.18-76.52-.33,1.77-.46,2.87-.75,3.93-3,10.71-5.97,21.44-9.05,32.12-7.4,25.61-10.87,51.72-9.8,78.41.88,22.14,4.58,43.86,9.33,65.46,5.03,22.89,14.06,43.83,28.06,62.56.86,1.15,1.84,2.2,2.77,3.3-.27-2.83-1.15-5.22-2.07-7.58-7.15-18.4-12.88-37.22-15.48-56.84-6.43-48.62-3.5-96.5,11.67-143.35,9.43-29.11,21.54-56.86,40.31-81.23,2.74-3.56,5.75-6.9,8.61-10.31,14.18,11.7,34.62,46.89,46.47,81.5,24.83,72.54,25.5,144.96-2.68,216.99Z"/>
    <path class="cls-1" d="M642.3,1075.94c1.51-1.74,2.48-2.7,3.26-3.8,6.72-9.38,12.49-19.3,16.76-30.07,6.6-16.67,8.5-33.93,5.13-51.53-2.6-13.62-8.8-25.02-21.91-31.41-2.17-1.06-3.74-1.16-5.99-.08-12.49,6-18.92,16.69-21.6,29.62-6.83,32.93,4.48,60.91,24.35,87.27Z"/>
    <path class="cls-1" d="M591.13,957.6c2.04-.25,4.08-.5,6.12-.75-.08-.39-.16-.77-.24-1.16-1.96.64-3.92,1.27-5.89,1.91"/>
    <path class="cls-1" d="M693.81,438.43c-1.06,2.42-2.12,4.85-3.32,7.58,5.44.15,6.64-2.18,3.32-7.58Z"/>
    <path class="cls-1" d="M614.59,862.82c6.13,14.93,13.44,29.21,23.48,41.92,1.29,1.64,2.75,3.14,4.52,5.14,1.97-2.35,3.53-4.09,4.95-5.93,10.78-13.92,18.36-29.61,24.79-45.93,10.39-26.37,14.85-53.84,16.04-82.1,2.32-55.27-10.29-106.89-35.96-155.48-2.76-5.22-6.06-10.16-9.1-15.23-.56-.09-1.13-.17-1.69-.26-4.29,7.55-8.97,14.91-12.82,22.69-24.29,49.07-35.28,100.88-31.84,155.85,1.72,27.48,7.2,53.93,17.63,79.34Z"/>
    <path class="cls-1" d="M1142.31,615.92c0,.09.01.17.02.26"/>
    <path class="cls-1" d="M1048.98,471.77c-.16-1.75-.56-3.48-1.04-6.44-2.71,1.7-4.54,2.78-6.29,3.96-26.23,17.67-49.63,38.52-69.79,63.06-19.04,23.17-36.83,47.21-50.86,73.87-3.02,5.74-5.5,11.93-7.18,18.21-3.64,13.62-6.25,27.53-9.91,41.14-15.56,57.88-43.42,109.15-83.37,153.38-26.1,28.89-55.64,54.06-87.93,75.75-14.59,9.8-29.47,19.18-44.19,28.78-1.03.67-1.9,1.61-3.73,3.2,11.88.35,22.42-.25,32.62-3.56,25.27-8.21,49.28-18.94,70.39-35.61,15.51-12.26,31.23-24.24,46.89-36.32,1.13-.87,2.45-1.49,3.68-2.23.25.36.5.72.74,1.08-8.76,8.74-18.19,16.75-27.89,24.41-9.62,7.59-19.2,15.3-29.31,22.18-10.12,6.89-20.88,12.83-32.1,19.63,1.72-.32,2.7-.38,3.59-.69,13.36-4.76,26.88-9.13,40.03-14.43,25.54-10.3,48.71-25.1,72.08-39.55,34.13-21.11,63.33-47.88,89.59-78.08,24.1-27.7,42.78-59,59.03-91.89,16.69-33.79,27.58-69.42,32.96-106.69,5.42-37.59,5.58-75.36,2.01-113.15Z"/>
    <path class="cls-1" d="M1142.33,616.17s.05-.09.08-.14c-.03-.04-.06-.08-.1-.12"/>
    <path class="cls-1" d="M1076.83,655.31c-1.13.32-2.25.63-3.38.95.1.37.19.73.28,1.1,1.15-.18,2.31-.35,3.46-.53-.12-.51-.24-1.01-.36-1.52Z"/>
    <path class="cls-1" d="M1142.33,616.17c-1.26,2.39-2.8,4.68-3.68,7.2-1.29,3.67-5.1,2.57-7.04,4.3-2.09,1.87-3.47,4-6.6,2.96.06-4.1,2.06-6.47,5.31-8.04,1.89-.91,3.51-2.3,2.45-4.65-.9-1.99-2.42-2.78-4.84-1.78-1.22.5-3.07.12-4.39-.45-2.68-1.16-3.9-.1-4.98,2.6,1.22.35,2.1.62,3,.85,1.83.48,4.18.29,4.48,2.95.18,1.61-3.84,3.72-6.16,3.35-.38-.06-.72-.32-1.1-.42-3.4-.89-5.78-3.12-7.74-5.95-1.55-2.25-3.5-3.76-6.41-2.9-2.33.69-4.63,1.46-6.92,2.19-.18,1.49-.35,2.97-.58,4.92-2.31-.87-4.1-1.55-5.72-2.17-.49-4.1,1.56-6.78,6.16-8.04-.98-6.25-4.56-13.23,3.54-17.48-2.37-3.63-5.9-2.68-8.86-3.15-2.64-.42-4.08,1.01-3.08,3.43,1.93,4.63-1.35,5.39-3.37,6.29-1.44,3.81-2.2,7.18-3.93,9.93-1.09,1.74-3.61,2.57-5.48,3.81v11.75h5.37c-.08-1.5-.16-2.99-.25-4.49-.01-.19-.25-.4-.2-.54.36-1.2.77-2.39,1.16-3.58,1.33.52,3.03.69,3.91,1.64,1.3,1.39,2.1,3.29,2.96,5.06,1.29,2.68,1.83,5.34-1.06,7.44-1.61,1.17-2.62,2.46-1.67,3.59,3.4,1.23,6.02,1.93,8.38,3.14.99.51,1.77,2.03,1.98,3.21.08.47-1.58,1.39-2.56,1.88-1.13.57-2.39.88-3.98,1.44,1.64,2.12,2.93,3.79,3.9,5.05,3.64-.89,6.76-1.65,9.88-2.41,1.16-4.23,1.11-4.22-.89-7.02-.55-.77-1.11-1.71-1.19-2.62-.43-4.86-.71-9.73-1.08-15.2.95-1.69,3.05-2.08,5.24-1.32,1.16.4,2.93,1.64,2.9,2.44-.13,3.84,1.43,7.72-.79,11.56-2.03,3.51-1.43,4.35,2.64,5.84.73.27,1.45.57,2.4.94.62-1.17,1.23-2.33,1.66-3.14,2.43-.47,4.46-.96,6.51-1.23,1.49-.2,3.34-.68,4.46-.04,2.76,1.6,4.88.23,6.81-.52,1.16-2.22,1.74-4.49,3.17-5.86,4.84-4.65,6.92-10.15,6.3-16.76"/>
    <path class="cls-1" d="M1109.47,606.94c1.28-2.57-.6-2.45-2.45-2.93-.11,2.26.59,3.16,2.45,2.93"/>
    <path class="cls-1" d="M1109.65,607.03c2.02,2.4,4.29,3.28,7.6,2.34,4.55-1.28,9.18-1.09,13.53,1.31,1.31.72,2.86,1.51,4.26,1.45,3.25-.14,5.4,1.39,7.27,3.77"/>
    <path class="cls-1" d="M1071.89,636.08c-.75,1.77-1.4,3.32-2.53,5.99,3.3-1.78,4.14-3.78,2.53-5.99Z"/>
    <path class="cls-1" d="M1068.86,659.4c-.46-.66-1.13-1.64-1.81-2.62-.87.87-2.2,1.6-2.5,2.64-.5,1.73-1.48,4.44,1.26,4.92,3.05.54,2.02-2.64,3.05-4.94Z"/>
    <path class="cls-1" d="M1142.31,615.92s0-.02,0-.03c1.59.72,2.69.13,3.32-1.38,1.45-3.48,3.45-6.88,4.08-10.52.73-4.16,3.35-8.77-.81-12.77-.22-.21.18-1.08.28-1.63,5.53.3,6.64-.43,8.56-5.57.21-.56.4-1.12.59-1.69,1.82-5.47,1.49-11.74,6.01-16.18.13-.12.15-.37.21-.55,5.34-14.27,10.74-28.51,16-42.81,4.79-13.04,9.53-26.1,14.09-39.22,2.54-7.3,4.19-14.95,7.11-22.09,7.65-18.73,14.58-37.81,24.47-55.56.6-1.08.73-2.43,1.25-4.28-9.44.62-18.24.92-26.97,1.87-5.23.57-10.37,2.1-15.53,3.28-9.91,2.27-19.87,4.34-29.67,7-5.47,1.49-10.66,4.01-15.99,6.03-8.09,3.06-16.54,5.4-24.18,9.33-5.52,2.84-13.2,3.2-15.19,11.21-1.67-.75-3.17-2.06-4.07-1.73-4.01,1.5-8.04,3.14-11.67,5.38-2.49,1.54-.58,4.38-.47,6.66.07,1.39,0,2.78.05,4.17.27,6.75.49,13.51.91,20.25.08,1.27.62,2.79,1.48,3.68,4.45,4.65,6.97,10.09,7.42,16.54.13,1.93.4,3.85.6,5.74,2.37,1.05,4.49,1.98,7.03,3.1-.83,1.09-1.23,2.18-1.95,2.47-3.1,1.27-11.02-4.22-11.11-7.58-.01-.39.27-.81.19-1.17-.31-1.35-.71-2.67-1.07-4-.49.1-.98.2-1.46.29.34,5.19.69,10.37,1.04,15.7,3.76.73,7.6,2.72,10.43,1.74,4.66-1.61,7.75.62,10.97,1.52-1.24,1.57-3.17,2.91-3.23,4.34-.11,2.46,2.2,1.83,3.99,1.97,2.46.18,3.24,3.04,1.24,4.8-1.84,1.63-4.14,2.74-6.7,4.38-1.19-2.09-2.57-3.52-2.73-5.08-.15-1.43,1.02-3.01,1.66-4.63-5.4-3.09-10.79-1.84-16.23-.57.81,6.54-2.28,13.05,2.21,18.59-3.64,3.2-3.55,7.03-3.36,10.79.03.55,1.07,1.05,1.76,1.57-.81,2.41-1.69,4.81-2.41,7.25-1.6,5.43-.15,8.7,5.06,10.84,2.01.82,3.19,1.7,3.56,4.07.53,3.35,2.55,4.48,5.79,3.73,2.09-.49,4.17-1.07,6.21-1.76,2.77-.93,4.98-.52,6.5,2.22.11.2.69.13.84.16,1.44-1.02,2.78-1.96,4.79-3.39,1.43,4.03,2.46,7.32,3.78,10.49.87,2.1-.05,3.28-1.37,4.65-1.45,1.49-2.89,1.9-4.72.86-1.74-1-2.53-2.28-1.84-4.41.67-2.07,1.15-4.28-1.54-5.41-3.14,2.36-5.03,5.7-5.68,10.02,4.96.05,6.81.9,6.94,3.41.25,4.76-3.93,3.62-6.95,4.39,1.11,1.82,1.91,3.13,2.58,4.23,2.86-.64,5.4-1.21,8.15-1.83-.57,6.92-1.09,7.55-6.96,8.25"/>
    <path class="cls-1" d="M1097.12,584.37c-2.87-1.85-5.1-3.29-7.41-4.78-1.16,1.09-2.11,1.98-3.16,2.96,2.07,1.67,3.84,3.1,5.6,4.52,1.65-.9,3-1.63,4.97-2.71Z"/>
    <path class="cls-1" d="M1109.65,607.03c-.08,0-.15.02-.24.03.02-.04.04-.08.06-.12"/>
    <path class="cls-1" d="M1109.65,607.03s-.06-.06-.09-.1c-.03,0-.06,0-.09,0"/>
    <path class="cls-1" d="M688.28,442.92c-1.27-2.85-4.73-5.19-7.35-5.29,1.96,3.32,3.79,6.43,5.62,9.54l1.42-.26c.14-1.35.79-2.93.31-3.99Z"/>
    <path class="cls-1" d="M920.22,521.38c2.69-.95,4.25-3.05,3.27-5.1-.88-1.85-2.29-3.59-3.85-4.92-.71-.6-2.35-.1-3.6-.1-.34,4.34,4.2,3.68,5.1,6.59-.28,1.03-.62,2.25-.92,3.53"/>
    <path class="cls-1" d="M922.14,470.51s.07-.06.11-.1c-.05-.06-.1-.12-.14-.19"/>
    <path class="cls-1" d="M920.1,521.71c-2.15,3.05-2.73,6.3-1.33,10.45,3.6-3.61,2.03-7.08,1.33-10.45"/>
    <path class="cls-1" d="M919.04,544.19c.58,0,1.16,0,1.74-.01-.09-1.49-.18-2.99-.27-4.48-.38,0-.76,0-1.15-.01l-.32,4.51Z"/>
    <path class="cls-1" d="M922.14,470.51s0,0-.01,0c0-.09-.01-.18-.02-.28"/>
    <path class="cls-1" d="M920.1,521.71s.04-.06.06-.09c.02-.08.04-.16.06-.24"/>
    <path class="cls-1" d="M198.07,582.22c-1.07-1-1.9-1.78-2.78-2.6-2.68,1.68-5.13,3.21-8.26,5.16,2.63.9,4.57,1.57,6.54,2.24,1.59-1.7,2.99-3.19,4.5-4.8Z"/>
    <path class="cls-1" d="M212.13,655.89c-1.46-.14-2.92-.28-4.37-.41-.06.5-.11,1-.17,1.49l4.28.61c.09-.56.18-1.13.26-1.69Z"/>
    <path class="cls-1" d="M215.16,641.27c-.75-1.92-1.36-3.45-2.06-5.25-1.76,2.37-1.07,4.12,2.06,5.25Z"/>
    <path class="cls-1" d="M220.83,661.57c-.14-1.88.06-4.16-2.48-4.62-.53-.1-1.82,1.04-1.84,1.62-.04,1.73.39,3.46.69,5.55,2.79.71,3.79-.33,3.62-2.55Z"/>
    <path class="cls-1" d="M931.91,521.52c6.81-1.55,8.53-5.76,5.24-11.66-5.59,2.2-2.93,7.76-5.24,11.66Z"/>
    <path class="cls-1" d="M920.1,521.71c-.02-.09-.04-.18-.06-.27.06-.02.12-.04.18-.06"/>
    <path class="cls-1" d="M365.96,521.14c-.9-1.26-1.81-2.54-2.59-3.64,2.25-2.46,6.08-2.23,5.79-6.17-5.29-1.81-5.84,3.25-8.32,5.05.51,3.37,1.32,5.86,5.13,4.76"/>
    <path class="cls-1" d="M365.96,521.14c-2.91,6.31-2.9,6.67.63,10.25,1.38-3.65-.18-6.92-.63-10.25"/>
    <path class="cls-1" d="M912.59,491.31c.43.7.86,1.4,1.29,2.1.4-.31.79-.62,1.19-.94-.56-.59-1.13-1.18-1.7-1.77-.26.2-.52.41-.79.61Z"/>
    <path class="cls-1" d="M604.4,436.57c-5.84,2.42-8.32,6.06-7.17,10.71,4.28-2.55,4.59-6.87,7.17-10.71Z"/>
    <path class="cls-1" d="M593.92,445.77c-.71-2.29-1.46-4.7-2.38-7.65-3.82,1.86-2.68,4.18-2.15,6,.48,1.63,1.54,3.32,4.53,1.65Z"/>
    <path class="cls-1" d="M378.45,453.9c-.53,2.23-1.06,4.45-1.61,6.75-.9-.08-1.6.08-1.97-.21-1.06-.83-2-1.81-2.94-2.78-2.34-2.43-3.23-2.32-5.98-.59-2.64,1.68-2.81,4.42-2.88,6.77-.12,4.62-1.31,8.39-6.4,10.96,3.74,2.06,6.69,3.68,9.54,5.25.52-1.63.62-4.65,1.86-5.25,1.7-.82,4.28.19,7.18.49-.09-1.28.26-3.04-.36-3.53-1.03-.8-3-1.45-4.02-.97-2.31,1.09-4.24,1.87-6.76-.76,1.21-2.02,2.44-4.07,2.95-4.93,5.19-.86,8.99-1.49,12.64-2.1,3.43-6.82,3.3-7.77-1.26-9.12Z"/>
    <path class="cls-1" d="M922.1,470.22c-.3-3.43-.23-6.96-1.15-10.2-.48-1.7-2.65-3.24-4.42-4.08-.73-.35-2.45,1.27-3.64,2.11-1.3.92-2.5,1.98-4.24,3.38-.9-3.25-1.51-5.46-2.13-7.69-4.62,1.93-4.69,2.89-1.19,9.14,3.17.63,6.06,1.95,8.65,1.51,3.06-.52,4.36.79,5.79,2.79.74,1.04,1.56,2.02,2.33,3.04"/>
    <path class="cls-1" d="M922.14,470.51c-2.5,2.39-5.11,1.98-7.79.25-1.62-1.04-2.98-.51-4.2.75-1.52,1.59-.68,2.81.58,3.97,4.54-1.42,7.22.08,8.02,4.48,2.86-1.49,5.76-3,9.31-4.85-2.34-1.82-4.13-3.2-5.92-4.59"/>
    <path class="cls-1" d="M364.62,544.6c.53-.04,1.06-.09,1.59-.13-.21-1.52-.41-3.03-.62-4.55-.32.04-.65.08-.97.12v4.56Z"/>
    <path class="cls-1" d="M353.68,522.26c-2.88-4.5-.13-10.46-6.23-12.35-2.35,7.03-1.28,9.55,6.23,12.35Z"/>
    <path class="cls-1" d="M370.22,492.63c-.02.07.84.51.88.45.44-.56.78-1.18,1.16-1.79-.32-.16-.65-.33-1.31-.66-.27.68-.56,1.32-.73,1.99Z"/>
    <path class="cls-1" d="M112.27,665.54c-4.87-.51-9.77-.74-14.66-1.07-.98-.07-1.97.05-2.93-.1-14.75-2.23-29.4-.7-44.04,1.16-1.24.16-2.41.93-4.07,1.61,18.18,54.01,46.42,101.6,82.26,145.47,1.63-2.06,2.67-3.39,4.24-5.37,1.32,1.97,2.33,3.47,3.37,5.03-1.82,1.41-3.14,2.44-4.85,3.76,4.86,6.84,8.83,14.01,17.76,15.17,1.48,3.54,1.27,7.76,5.06,9.62,1.3-1.56,2.29-3.17,3.69-4.25.7-.54,2.52-.55,3.14,0,.6.53.66,2.21.33,3.16-.69,1.99-1.79,3.84-2.32,4.93,1.55,2.43,2.64,4.33,3.9,6.09,1.13,1.58,2.35,3.13,3.71,4.5,1.81,1.81,4.16,3.16,5.64,5.19,3.2,4.36,7.22,7.13,12.61,7.83,1.15,4.92,3.34,8.71,8.13,10.42.88.31,1.64,1.1,2.35,1.78,2.65,2.53,5.42,2.68,8.42.73-2.2-5.78-2.21-5.81,2.95-7.97,2.45-1.03,3.96-2.45,3.07-5.43-.22-.73.09-1.61.2-2.9,4.69,2.77,1.64,5.27.37,8.03,4.24,2.16,1.15,5.54,1.23,8.9,3.09,1.24,6.08,2.64,9.2,3.66,4.11,1.35,4.2,1.33,2.98,6.28,4.14,2.97,8.3,5.97,12.58,9.05,2.17-5.53,5.05-6.19,8.74-2.74,1.21,1.13,2.8,2.13,4.38,2.54,3.09.81,4.05,3.27,4.24,5.73.36,4.58.1,9.21.1,14.45.99-.82,1.52-1.3,2.09-1.73,3.29-2.52,7.3-4.53,10.71-1.76,4.03,3.28,7.93,2.68,12.49,2.34-4.17-3.67-7.71-7.4-11.86-10.25-3.15-2.17-5.96-4.04-7.56-7.84-1.12-2.66-3.47-4.48-7.21-3.57-4.82,1.17-5.6.05-4.41-4.84.22-.92.43-1.83.8-3.41-4.33-2.95-8.59-5.85-12.86-8.77-1.29.81-2.27,1.46-3.27,2.07-2.19,1.33-4.2,1.1-5.66-1.07-1.15-1.73.01-3.6,2.81-4.84,1.36-.6,2.73-1.21,4.42-1.96-1.47-4.39-3.94-7.27-6.89-9.63-2.33.68-4.37,1.28-7.08,2.08-.18-2.14-.84-3.98-.39-5.49,1.68-5.58-1.6-8.86-5.06-12.08-.66-.61-2.09-1.31-2.6-1-4.01,2.42-8.03-1.23-12.55.86,1.07-7.97,1.7-8.35,7.7-5.99,1.15.45,2.44.52,4.47.93-2.43-4.5-4.57-7.95-8.51-9.9-.82-.41-2-1.16-2.07-1.85-.39-3.92-2.69-6.54-4.86-9.64-5.53-7.89-10.34-16.32-15.17-24.69-7.12-12.33-13.98-24.82-21.03-37.19-1.85-3.24-4.06-6.26-6.03-9.43-.81-1.31-1.57-2.68-2.11-4.12-2-5.37-3.73-10.85-5.89-16.15-2.39-5.87-5.29-11.52-7.71-17.37-5.61-13.56-11.44-27.05-16.41-40.85-1.94-5.38-5.08-7.61-10.07-8.14Z"/>
    <path class="cls-1" d="M464.19,1047.02c2.98.58,5.91,1.15,8.99,1.75v-8.24c-1.59.37-2.86.68-4.81,1.14,1.54-3.22,2.72-5.68,4.36-9.1-9.54,4.61-10.32,6.11-8.54,14.45Z"/>
    <path class="cls-1" d="M447.23,1034.2c-3.17-.29-6.39-.07-9.59-.07-.08.57-.16,1.15-.25,1.72,4.05,1.25,8.1,2.5,12.34,3.81,3.07-3.14,9.29-3.15,10.49-9.13-2.12-1.4-3.94-.25-5.11,1.22-2.19,2.76-4.83,2.73-7.89,2.45Z"/>
    <path class="cls-1" d="M500.74,1015.34c-.13-.54-1.59-1.17-2.37-1.08-3.04.35-6.05.98-10.07,1.68,2.85,2.38,5.03,4.18,7.09,5.91,1.63-1.12,3.4-2.03,4.75-3.37.65-.64.83-2.17.6-3.15Z"/>
    <path class="cls-1" d="M463.66,1018.53c-3.43.55-6.32,1.01-10.44,1.67,5.99,5.29,6.45,5.18,10.44-1.67Z"/>
    <path class="cls-1" d="M483.65,1042.89c-1.08-4.52-2.09-8.72-3.11-13-.88.45-2.22,1.14-4.07,2.09,1.6,4.29,3.15,8.45,4.81,12.92,1.21-1.02,1.94-1.65,2.37-2.01Z"/>
    <path class="cls-1" d="M494.99,1043.45c1.24-1.86,2.07-3.11,2.91-4.35-.92-.52-2.08-1.67-2.73-1.43-2.32.87-2.38,2.62-.18,5.78Z"/>
    <path class="cls-1" d="M474.37,1019.66c-4.25.29-6.47,3.25-6.33,8.47,3.1-1.21,4.61-3.23,6.33-8.47Z"/>
    <path class="cls-1" d="M449.26,1020.54c-2.59.43-4.05.68-6.43,1.07,2.34,1.01,4.48.66,6.43-1.07Z"/>
    <path class="cls-1" d="M522.51,1028.38c2-1.71,3.36-2.44,4-3.58.35-.63-.51-1.95-.83-2.96-.93.46-2.31.69-2.68,1.43-.52,1.06-.29,2.5-.49,5.11Z"/>
    <path class="cls-1" d="M531.3,1051.17c.96-1.83,1.67-3.17,2.37-4.51-2.69.54-3.48,2.05-2.37,4.51Z"/>
    <path class="cls-1" d="M522.41,1010.88c3.37.39,5.73.67,8.58,1-.15-1.51-.28-2.73-.52-5.13-3.14,1.61-5.28,2.71-8.06,4.13Z"/>
    <path class="cls-1" d="M519.62,1055.32s.4.88.47.86c.76-.25,1.5-.59,2.24-.9-.19-.4-.37-.79-.56-1.19-.72.4-1.45.79-2.15,1.24Z"/>
    <path class="cls-1" d="M289.42,941.37c4.48,1.25,8.35,2.41,12.28,3.36.79.19,2.36-.22,2.53-.71.31-.94.25-2.45-.33-3.15-1.33-1.6-3.07-2.85-4.27-3.91-3.52,1.52-6.56,2.83-10.2,4.4Z"/>
    <path class="cls-1" d="M220.96,900.7c.51.46.97,1.03,1.56,1.32.22.11.76-.45,2.44-1.53-1.26-.49-1.95-.98-2.63-.95-.48.02-.92.75-1.38,1.17Z"/>
    <path class="cls-1" d="M205.48,889.12c1.47,2.52,3.61,2.47,6.37,1.03-1.33-2.26-2.26-4.53-5.28-3.37-.61.23-1.36,1.9-1.1,2.34Z"/>
    <path class="cls-1" d="M241.99,909.89c.74,1.74,2.02,3.24,3.58,5.62.77-1.48,1.65-2.59,1.91-3.83.3-1.45-.16-3.05.12-4.51.37-1.96.26-3.7-1.76-4.36-2.32-.75-3.79.77-4.27,2.84-.3,1.32-.12,2.97.42,4.23Z"/>
    <path class="cls-1" d="M57.08,402.33c1.34,2.73,2.35,4.83,3.39,6.89,10.91,21.63,19.99,44.01,27.53,67.07,5.24,16.03,11.17,31.82,16.9,47.68,3.09,8.55,6.21,17.09,9.68,25.48,3.01,7.26,4.33,15.3,9.49,21.61.57.69.7,1.79.91,2.72.73,3.24,1.15,6.58,2.18,9.72.65,1.97,1.81,4.11,3.39,5.33,1.21.94,3.42.57,5.8.87-.55,1.31-1.09,2.44-1.51,3.61-.38,1.04-.98,2.16-.88,3.18.69,7,3.04,13.45,6.32,19.65,3.42,6.47,4.46,14.24,10.44,19.32.12.1.05.39.12.57,1.33,3.43,3.84,4.96,7.21,3.56,2.49-1.03,4.48-1.03,6.64.36.59.38,1.57,1.01,1.88.8,3.22-2.21,4.07.38,4.96,2.59,1.37-.31,2.49-.56,3.62-.83,2.27-.54,3.15-2.57,2.03-4.03-2.35-3.08-1.14-6.43-1.67-9.63-.38-2.34-.47-4.61,1.93-5.65,2.43-1.05,5.03-1.23,6.49.95-.45,5.17-.82,9.84-1.29,14.51-.11,1.14-.21,2.6-.92,3.3-2.49,2.45-1.67,4.93-1.01,6.98,3.66,1.05,6.74,1.93,10.13,2.9,1.04-1.55,2.28-3.42,3.65-5.46-2.66-1-4.89-1.85-7.51-2.83,2.73-5.14,7.07-5.56,12.27-6.26-1.19-1.84-1.74-3.23-2.74-4.13-2.12-1.92-2.34-4.15-1.29-6.48,1.04-2.32,2.25-4.65,3.82-6.62.63-.79,2.44-.97,3.62-.79.46.07.87,1.9.89,2.94.02.93-.68,1.85-.81,2.82-.38,2.76.55,3.73,3.23,3.28,1.11-.19,2.14-.83,2.68-1.05v-12.25c-3.8-.51-6.06-2.39-7.15-5.75-.29-.9-1.11-1.62-1.68-2.43.15.12.34.19.56.2-.19-1.54-.39-3.07-.57-4.56-4.41-2.05-4.33-2.04-3.87-6.8.12-1.24-.41-2.53-.64-3.8-5.3.94-10.19,1.8-15.09,2.67-.08.13-.16.21-.22.22-1.11.38-2.19.95-3.34,1.11-2.22.32-3.95-.55-4.35-2.94-.41-2.41,1.05-3.76,3.17-4.26,1.18-.28,2.48-.05,3.84-.05-.59-4.77-2.25-8.24-6.09-10.53-2.44,1.86-1.47,4.04-1.5,6.12-.02,1.35-.63,3.04-1.58,3.96-1.43,1.39-3.27,1.13-4.68-.48-.76-.86-1.5-1.75-2.46-2.87,2.97-3.4,1.16-8.77,5.55-11.77,1.46.89,2.89,1.76,4.54,2.76,1.69-2.94,4.16-3.39,7.11-2.39,1.86.63,3.75,1.15,5.65,1.64,3.58.91,5.13,0,5.87-3.97.46-2.45,2.05-3,3.95-3.77,3.95-1.6,5.94-4,5.07-7.59-1.3-5.4-1.49-10.72-1.06-16.17.06-.77,0-1.66-.32-2.35-1.68-3.61-1.97-7.1-.15-10.83.47-.98-.3-2.57-.5-3.84-4.4.17-4.27.3-6.88,3.17-.85.93-2.59,1.04-3.92,1.52-.36-1.39-1.12-2.84-.95-4.16.16-1.23,1.23-2.39,2.06-3.45,2.43-3.11,5.65-2.77,9.11-1.3.28-1.85.48-3.11.67-4.37-5.59-.83-10.76-1.46-15.95.12-1.05.32-2.32-.14-3.49-.24h.09c1.94-4.61-2.77-2.36-4.68-4.4,3.72-1.02,7.22-3.2,9.92-2.45,4.98,1.39,8.93-.59,14.09-1.51-2.63-5.41,2.6-10.62-1.04-15.79-.63,1.66-.61,3.36-.92,5-.28,1.46-.55,3.36-1.54,4.14-2.07,1.63-4.53,2.82-6.98,3.86-2.24.95-3.74-.01-4.29-2.97,6.23-.73,7.82-4.81,7.68-10.36-.13-5.42,3.21-9.6,6.17-13.54,1.54-2.05,2.51-3.78,2.62-6.23.41-8.73.96-17.45,1.24-26.18.04-1.34-.72-3.43-1.73-3.95-4.8-2.5-9.22-7.39-15.01-3.28-1.51-2.22-2.4-4.6-4.11-5.79-2.85-2-6.13-3.46-9.39-4.75-11.68-4.65-23.31-9.47-35.18-13.56-8.14-2.8-16.73-4.27-24.99-6.76-8.83-2.67-17.79-4.69-26.9-5.82-7.58-.93-15.23-1.23-22.86-1.72-1.24-.08-2.51.31-4.53.59Z"/>
    <path class="cls-1" d="M352.67,1030.33c5.52,6.89,4.33,10.46-6.29,18.98-.39-1.95-1.15-3.57-.89-5,.38-2.1,1.59-4.04,2.27-6.11.58-1.75.92-3.59,1.37-5.39-10.41,5.81-20.16,11.75-28.33,19.78-6.46,6.34-12.59,13.05-18.66,19.77-4.23,4.68-8.14,9.64-10.91,15.42-.73,1.52-1.99,2.8-3.13,4.1-1.4,1.6-3.24,2.9-4.32,4.68-4,6.59-8.1,13.16-11.54,20.05-10.57,21.19-18.62,43.4-25.29,66.14-.65,2.22-.92,4.55-1.39,6.9,1,0,1.48.16,1.74-.02,1.12-.8,2.21-1.65,3.24-2.56,11.83-10.38,24.82-19.06,39.18-25.33,16.62-7.25,33.52-13.86,50.33-20.64,4.53-1.82,9.15-3.48,13.83-4.84,9.42-2.73,18.94-5.11,28.37-7.81,3.94-1.13,7.75-2.72,11.63-4.09,1.76-.62,3.5-1.59,5.3-1.75,7.36-.65,8.46-1.93,7.38-9.38-.09-.59-.43-1.23-.28-1.75.92-3.31,1.13-7.33,3.2-9.64,1.51-1.69,2.57-2.95,2.94-5.15.21-1.2,1.23-3.26,1.78-3.23,2.84.18,5.7.73,8.44,1.54,1.23.36,2.2,1.62,4.23,3.2-7.13,1.98-11.86,5.53-16.55,9.72,3.39,3.19,3.11,6.77-.13,11.24,8.98-1.41,16.31-4.51,23.45-8,.93-.46,1.11-3,1.15-4.59.02-.77-1.43-1.48-1.63-2.35-.28-1.24-.49-2.98.15-3.82.67-.87,2.46-1.42,3.63-1.24,2.54.37,4.17,2.04,4.39,4.81.11,1.33.25,2.66.44,4.66,4.5-1.65,8.49-3.17,12.52-4.58,2.64-.92,4.47-2.48,4.79-5.43.31-2.89,2.26-4.08,4.77-4.47,2.11-.32,4.28-.57,6.39-.43,3.11.21,5.62-.63,7.98-3.04-1.17-2.45-6.42-3.53-2.49-7.59,1.64,2.56,3.15,4.94,5.06,7.91,5.5-4.98,14.21-5.55,13.77-14.97,3-.62,4.41-1.97,4.23-4.05-2.47.27-4.94.54-8.45.93.54-2.02.54-3.8,1.16-4.06,2.44-1.01,4.21-2.49,5.34-4.89.2-.42,1.12-.93,1.46-.78,4.07,1.71,4.58-2.56,7.18-4.68,1.48,1.06,3.55,1.81,4.22,3.23.58,1.24-.2,3.32-.8,4.87-.29.74-1.94.92-2.29,1.67-.41.89-.1,2.13-.1,3.22.4.17.79.34,1.19.52,1.12-5.49,6.67-4.45,10.21-7.32-3.49-3.57-6.61-6.76-9.39-9.6-.49-2.14-.51-4.39-1.52-6.03-1.32-2.16-3.24-.78-5.17-.16-1.68.54-3.83.1-5.63-.43-4.69-1.37-5.68-.99-7.45,3.22,1.39,2.67,3.74,5.13,3.52,7.32-.26,2.56-2.77,4.89-4.42,7.5,1.22,4.06,1.01,4.51-3.76,6.5.84-1.4,2-2.45,2-3.49,0-2.48-.65-4.95-.86-7.44-.5-5.79-2.46-7.3-8.05-5.58-2.25.69-3.75.5-5.03-1.53-.7-1.1-1.63-2.05-2.71-3.4-2.01,2.52-5.21,3.3-4.78,7.28.32,2.91-3.13,5.83-6.11,5.66-3.34-.2-3.2-2.65-3.2-5.2,0-1.41-.84-2.81-1.34-4.37-1.84.57-3.07.95-4.2,1.31-3.28-3.74-6.41-7.23-9.43-10.82-.61-.72-.92-1.76-1.16-2.71-.63-2.47-1.79-4.03-4.45-4.94-2.88-.98-2.96-4.15-.08-5.08,4.13-1.34,3.57-3.96,3.22-7.19-2.66-.82-5.13-1.58-8.3-2.55,1.02,3.29,1.76,5.65,2.43,7.83-.76.56-1.11,1.02-1.37.98-2.87-.44-3.99,1.58-4.41,3.69-.4,1.99,1.08,3.03,2.99,3.78,1,.39,1.45,2.07,2.32,3,1.06,1.12,2.56,1.97,1.47,3.88-.76,1.35-1.27,2.98-2.36,3.96-1.97,1.77-3.73.87-6.37-2.88-.22-.32-.51-.59-.2-.23-2.17-.31-4.3,0-5.01-.87-.92-1.12-1.5-4.02-.81-4.71,2.68-2.68,1.43-5.5,1.23-8.4-.18-2.8-.04-5.62-.04-8.33-1.26-.45-3-1.36-4.83-1.67-2.1-.36-4.3-.23-6.45-.23-4.11-.02-8.22-.04-12.33.05-2.95.07-5.57.36-7.66,3.33-2.15,3.04-4.21,2.43-6.23-1.02-.38-.65-.68-1.34-.82-1.61-10.91-2.48-19.84,1.12-28.49,6.81Z"/>
    <path class="cls-1" d="M.93,364.3c.95,2.17,2.1,4.29,3.4,6.27,21.61,32.56,38.23,67.71,52.21,104.14,16.65,43.4,32.76,87.01,49.1,130.53.61,1.63,1.07,3.31,1.83,5.66-2.36,0-3.74.09-5.09-.02-19.9-1.59-39.75-.93-59.56,1.27-10.81,1.2-21.36,3.63-31.53,7.54-6.14,2.36-8.01,6.02-5.78,12.1,7.58,20.7,14.6,41.66,23.29,61.88,14.55,33.84,33.05,65.56,53.91,95.85,21.91,31.81,46.56,61.22,75.74,86.54,45.96,39.89,96.6,72.05,153.52,93.53,14,5.28,28.49,9.23,42.76,13.81,1.42.46,2.81,1.04,4.22,1.56-.11.46-.22.93-.33,1.39-14.87-1.56-29.79-2.72-44.59-4.79-16.96-2.37-33.81-5.6-50.72-8.35-7.76-1.26-15.7-1.66-23.31-3.49-29.94-7.17-58.67-18.13-87.18-29.62-38.03-15.32-73.07-36.21-106.85-59.38-1.63-1.12-3.3-2.18-4.96-3.26-.25.35-.51.71-.76,1.06,1.73,1.82,3.25,3.9,5.22,5.4,11.47,8.75,22.84,17.65,34.6,25.98,66.47,47.12,139.81,76.79,220.34,88.07,6.98.98,13.94,2.05,22.26,3.27-2.83,2.38-4.61,3.85-6.37,5.34-6.78,5.76-13.95,11.11-20.28,17.34-34.06,33.49-57.14,73.75-70.69,119.6-7.93,26.84-11.6,54.33-10.93,82.44.28,11.7,2.6,22.86,6.13,33.86.36,1.13,1.44,2.03,2.42,3.37,1.11-1.4,1.92-2.24,2.52-3.21,3.01-4.88,6.07-9.73,8.93-14.7,11.35-19.71,27.47-34.63,45.9-47.37,32.21-22.27,67.77-37.16,104.91-48.35,22.83-6.88,45.57-13.91,67.79-22.61,33.44-13.09,65.15-29.17,91.65-54.26.63-.6,1.59-.84,2.26-1.18,3.24,8.92,5.81,17.73,9.57,25.99,8.38,18.45,17.67,36.48,29,53.29,18.18,26.97,36.65,53.74,55.04,80.56,1.4,2.04,3.14,3.83,5.23,6.34,2.37-2.96,4.32-5.13,5.98-7.51,11.78-16.93,23.51-33.89,35.24-50.86,16.25-23.51,31.79-47.44,44.17-73.35,4.72-9.88,8.92-19.92,11.75-30.53.38-1.4,1.05-2.73,1.77-4.58,2.27,2.02,3.98,3.62,5.78,5.13,12.76,10.66,25.72,20.97,40.41,28.92,32.44,17.54,66.78,30.13,101.93,40.72,10.74,3.24,21.56,6.28,32.15,9.98,32.13,11.25,62.79,25.47,90.75,45.39,21.25,15.14,37.19,34.68,49.56,57.51.86,1.58,2.03,3,3.73,5.49,1.23-2.87,2.03-4.4,2.56-6.02,4.13-12.78,5.4-25.8,5.46-39.32.12-25.75-3.61-50.82-10.96-75.26-16.58-55.1-45.64-101.94-91.38-137.36-1.6-1.24-3.12-2.6-5.77-4.82,6.19-.9,10.83-1.62,15.48-2.25,34.05-4.63,67.49-12.04,100.01-23.24,56.11-19.33,106.72-48.93,153.7-85.14,3.29-2.53,6.43-5.26,9.51-8.05,1.34-1.21,2.35-2.8,3.52-4.22-2.07.06-3.41.77-4.58,1.7-13.52,10.75-28.78,18.73-43.43,27.65-25.68,15.65-52.77,28.3-80.89,38.93-23.25,8.79-46.64,16.95-70.68,23.19-4.36,1.13-8.88,1.72-13.35,2.39-6.42.95-12.93,1.38-19.28,2.66-26.12,5.28-52.5,8.53-79.02,10.71-2.34.19-4.7.02-7.05.02,1.64-1.43,3.28-2.04,4.95-2.48,47.89-12.69,92.13-33.55,133.66-60.61,33.42-21.78,64.51-46.4,91.74-75.74,23.24-25.04,43.29-52.56,61.48-81.55,26.09-41.6,46.21-85.93,61.06-132.76,2.34-7.37.78-10.57-6.62-13.12-5.39-1.86-10.86-3.65-16.43-4.78-22.53-4.58-45.31-5.48-68.21-4.03-3.31.21-6.61.42-10.68.68.9-2.56,1.51-4.4,2.19-6.2,15.56-41.48,31.04-82.99,46.71-124.43,14.58-38.57,31.82-75.8,54.61-110.23,1.41-2.14,2.61-4.47,3.57-6.84,1.38-3.38.59-5.68-2.55-7.59-1.49-.91-3.2-1.63-4.9-1.95-8.31-1.59-16.59-3.71-24.98-4.36-23.63-1.82-47.21-.87-70.68,2.82-33.11,5.2-64.76,15.08-94.99,29.63-3.69,1.78-7.41,3.49-11.81,5.57-1.17-3.87-2.41-7.19-3.15-10.62-3.1-14.38-5.77-28.86-9.09-43.19-11.58-49.99-26.18-99.12-41.36-148.08-1.26-4.07-3.09-7.96-4.8-12.29-1.94.97-3.18,1.51-4.33,2.19-8.32,4.93-16.46,10.19-24.95,14.8-21.68,11.77-43.32,23.63-65.32,34.77-29.6,14.98-58.87,30.51-86.99,48.19-1.14.72-2.36,1.32-4.01,2.25-1.24-2.04-2.38-3.83-3.43-5.67-28.53-49.84-59.32-98.14-94.88-143.24-15.95-20.23-31.59-40.73-46.83-61.51-11.84-16.14-22.79-32.94-34.25-49.36-3.59-5.15-7.57-10.02-11.96-15.8-5.06,6.93-9.53,12.93-13.88,19.03-16.45,23.08-32.58,46.42-49.38,69.23-15.05,20.43-31,40.19-46.25,60.46-28.78,38.24-53.9,78.91-77.72,120.43-1.24,2.16-2.62,4.24-3.99,6.45-1.62-.91-2.65-1.48-3.67-2.06-20.37-11.69-40.35-24.16-61.2-34.9-39.64-20.43-79.49-40.43-117.56-63.79-.78-.48-1.73-.66-3-1.13-.86,1.83-1.75,3.36-2.3,5-1.72,5.07-3.34,10.18-4.95,15.3-19.1,60.68-36.31,121.86-48.36,184.43-.58,2.99-1.92,5.83-3.02,9.05-8.94-4.17-17.03-8.24-25.35-11.76-42.64-18.06-87.01-27.54-133.37-27.09-13.84.13-27.52,1.4-41.01,4.55-2.1.49-4.22,1.09-6.16,2-4.39,2.06-5.39,4.72-3.47,9.11Z"/>
    <path class="cls-1" d="M1073.39,890.26c2.84,1.29,5.01,1.42,6.19-1.42.2-.48-.71-1.96-1.37-2.18-2.66-.89-3.84.84-4.83,3.6Z"/>
    <path class="cls-1" d="M327.13,960.8c1.97.88,3.5.84,4.06-1.46.13-.52-.54-1.74-1.01-1.84-2.51-.53-2.58,1.46-3.05,3.29Z"/>
    <path class="cls-1" d="M273.16,935.94c1.66.84,3.24,2.41,5.61.66-.33-1.37-.68-2.83-1.26-5.2-2.97,2.77-4.52.96-5.73-1.42-2.41,3.14-1.04,4.74,1.37,5.96Z"/>
    <path class="cls-1" d="M590.13,957.85c-6.09.88-12.16,1.89-18.27,2.61-17.72,2.08-35.43,1.31-52.98-1.51-13.38-2.15-26.62-5.22-39.91-7.98-1.73-.36-3.34-1.26-5.01-1.9,1.29-1.05,2.21-1.09,3.12-.94,9.13,1.48,18.28,2.89,27.38,4.53,21.21,3.82,42.52,5.81,64.07,4.11,1.76-.14,3.53-.34,5.27-.62,1.49-.24,2.97-.63,4.45-.95-.86-.76-1.62-.91-2.38-1.04-14.35-2.51-28.82-4.46-43.02-7.63-41.32-9.22-79.53-26.54-116.48-46.9-65.38-36.01-118.08-85.59-157-149.9-1.63-2.69-3.5-5.34-5.71-7.56-23.74-23.79-50.85-42.63-81.46-56.29-1.08-.48-2.35-.52-4.07-.88.46,1.68.63,2.65.99,3.56,10.71,26.96,21.88,53.69,34.92,79.63,24.74,49.2,56.86,92.41,98.84,128.06,29.41,24.98,61.94,44.37,97.88,57.9,27.69,10.42,56.29,16.59,85.94,17.14,33.23.62,66.1-2.24,98.3-10.96,1.8-.49,3.43-1.61,5.13-2.48"/>
    <path class="cls-1" d="M537.38,1029.21c1.43-1.92,1.88-4.2,1.34-6.86-1.38,2.04-3.35,3.56-1.34,6.86Z"/>
    <path class="cls-1" d="M308.36,951.51c3.13-.6,6.46,2.29,9.38-1.78-4.65-3.45-6.73-3.05-9.38,1.78Z"/>
    <path class="cls-1" d="M785.23,1039.33c2.6,1.69,3.89,2.52,5.14,3.33,1.84-2.14,1.64-3.92-.13-4.8-.84-.42-2.4.64-5.01,1.47Z"/>
    <path class="cls-1" d="M795.51,1015.73c-2.93-.52-5.56-1.17-8.22-1.35-1.08-.07-2.23.88-3.35,1.37.52,1.14.8,2.52,1.62,3.37.91.93,2.31,1.37,4.14,2.37,1.58-2.27,5.39-2.1,5.81-5.75Z"/>
    <path class="cls-1" d="M954.08,959.94c.73.76,2.06.93,4.42,1.84-1.23-2.42-1.79-3.51-2.34-4.6-.45-.02-.89-.04-1.34-.05-.28.97-1.09,2.46-.74,2.81Z"/>
    <path class="cls-1" d="M967.84,950.2c.18.88,2.28,1.78,3.57,1.92,2.16.23,4.38-.15,6.7-.28-1.95-1.89-3.23-4.91-6.86-4.35-1.77.27-3.9.31-3.42,2.71Z"/>
    <path class="cls-1" d="M808.53,1031.73c-1.93-.52-3.12-.85-3.83-1.04-1.24,4.23-2.33,7.95-3.68,12.55,1.23-.07,2.71.17,2.87-.2,1.62-3.6,3.03-7.31,4.63-11.31Z"/>
    <path class="cls-1" d="M817.24,1025.73c-1.18-2.15-2.53-4.23-4.07-6.13-.36-.44-1.71-.07-3.62-.07,2.36,3.51,4.22,6.28,6.09,9.05.46-.12.93-.24,1.39-.37.09-.84.55-1.88.22-2.49Z"/>
    <path class="cls-1" d="M1061.57,901.22c-.05.12.73.59,1.48,1.18.41-.9.84-1.51.91-2.15.02-.23-1.1-.87-1.2-.78-.51.48-.93,1.11-1.2,1.76Z"/>
    <path class="cls-1" d="M1038.1,913.95c.07.49,1.17.83,1.81,1.24,1.51-2.49,2.89-4.76,4.41-7.28-.4-.92-.85-2-1.35-3.05-.25-.53-.53-1.1-.95-1.48-1.6-1.47-4.6-.83-4.71,1.23-.17,3.1.36,6.25.79,9.34Z"/>
    <path class="cls-1" d="M812.74,1033.08c1.28,3.1,2.31,5.59,3.6,8.73-1.95-.44-3.12-.71-4.38-.99v7.6c3.26-.44,6.2-.84,9.14-1.23.93-9.16.19-10.52-8.36-14.1Z"/>
    <path class="cls-1" d="M980.69,944.06c1.07.22,2.22.82,3.18.59,3.76-.88,7.47-2.03,11.74-3.23.21-1.44.47-3.18.73-4.92-3.02,4.98-4.75,5.01-10.25-.29-1.5,1.39-3.21,2.66-4.48,4.28-.69.88-.63,2.36-.91,3.57Z"/>
    <path class="cls-1" d="M542.57,1009.42c-2.94.04-4.83-.34-5.49,2.48,2.82,1.55,3.38-.77,5.49-2.48Z"/>
    <path class="cls-1" d="M1006.28,936.96c6.19.04,8.34-1.82,7.46-6.31-1.61.86-2.88,2.13-4.14,2.11-3.37-.05-2.84,2.2-3.32,4.2Z"/>
    <path class="cls-1" d="M1005.5,921.17c1.55-.48,3.07-1.5,4.26-1.2,3.09.79,5.33-.46,7.51-2.24,2.24-1.83,4.74-1.92,7.23-.93,2.09.83,4.04,2.03,6.53,3.31,0-4.75-.2-9.38.07-13.99.15-2.56.95-5.03,4.26-5.57,1.45-.24,3.38-.93,4.04-2.05,1.94-3.3,4.43-2.57,7.27-1.84.4,1.34.77,2.59,1.3,4.36,1.03-.84,1.68-1.55,2.48-1.99,6.79-3.77,6.73-3.79,10.15-11.51.43-.98,2.02-1.57,3.18-2.07,3.17-1.35,6.39-2.56,8.27-3.3.73-3.73.46-6.87,1.87-8.19,1.19-1.12,4.63-.8,6.52.09,3.63,1.72,1.06,4.99.51,7.52,7.52,1.68,15.38-3.88,19.26-13.38,5.23-.57,9.18-3.51,12.35-7.87,1.26-1.73,2.98-3.2,4.75-4.43,2.53-1.76,4.6-3.61,4.9-6.97.07-.73,1.03-1.47,1.73-2.01,1.05-.81,2.23-1.46,3.35-2.17l-.16.14c4.25-3.58,8.03-7.46,8-13.46,7.43-1.77,18.04-11.43,17.64-15.99-1.27-.97-2.61-1.99-4.39-3.35,1.25-1.6,2.25-2.89,4.07-5.22,1.23,2.41,2.12,4.13,3.28,6.39,36.36-44.85,64.75-92.38,82.81-146.57-2.33-.6-3.78-1.13-5.27-1.34-12.69-1.79-25.45-2.36-38.24-1.81-2.53.11-5.04.62-7.56.92-6.41.76-12.82,1.54-19.24,2.22-2.31.24-3.33,1.64-4.15,3.62-3.43,8.24-7.04,16.4-10.45,24.65-4.76,11.54-9.43,23.11-14.08,34.69-2.36,5.87-4.95,11.7-6.66,17.77-.5,1.79-1.28,3.07-2.16,4.48-2.29,3.67-4.74,7.24-6.88,10.99-8.01,14.11-15.79,28.34-23.89,42.4-5.45,9.45-13.65,17.23-16.79,28.14-.25.87-1.79,1.37-2.73,2.02-3.12,2.14-5.44,4.87-6.93,9.13,1.56-.19,2.51-.18,3.38-.44.93-.28,1.76-.93,2.69-1.19,3.03-.86,4.24-.18,5.19,2.93.32,1.05.38,2.18.57,3.31-3.75.21-7.49,1.35-10.51.33-3.58-1.21-5.48.26-7,2.46-2.03,2.93-4.74,5.8-3.13,10.18.59,1.61-.2,3.73-.37,5.88-2.81-1.01-4.97-1.79-7.56-2.72-2.24,3.09-4.37,6.05-7.05,9.74,2.53.98,4.09,1.57,5.64,2.2,2.01.82,3.5,2.09,2.72,4.51-.6,1.86-3.35,2.6-5.6,1.56-1.38-.64-2.65-1.54-3.87-2.27-4.05,3.79-10.07,4.47-12.26,9.54.31,2.7.58,5.1.85,7.52-1.32.29-1.9.58-2.43.51-7.42-.94-7.34-.91-10.97,5.39-.84,1.46-2.27,2.65-3.61,3.75-4.83,3.96-9.75,7.81-14.59,11.77-.28.23-.08,1.04-.11,1.65Z"/>
    <path class="cls-1" d="M742.54,1009.45c.89,1.17,1.23,1.97,1.82,2.3.76.42,1.71.55,2.6.6.17.01.68-1.25.53-1.39-.65-.61-1.44-1.12-2.26-1.47-.48-.21-1.12-.04-2.7-.04Z"/>
    <path class="cls-1" d="M747.23,1029.2c2.12-2.59,1.17-4.26-1.34-6.75-.34,2.82-.93,4.77,1.34,6.75Z"/>
    <path class="cls-1" d="M765.2,970.67c40.23,2.92,79.42-1.72,117.38-15.88,69.2-25.82,123.36-71.21,165.64-131.4,29.14-41.48,49.46-87.73,67.65-134.94.38-.99.33-2.15.61-4.11-2.7,1.18-4.66,1.99-6.58,2.88-27.49,12.68-52.19,29.49-74.08,50.56-4.61,4.43-8.57,9.22-11.94,14.68-23.62,38.31-52.4,72.11-86.97,100.78-31.25,25.91-65.74,46.52-102.25,63.88-36.23,17.22-73.87,29.71-113.58,35.5-4.9.71-9.83,1.32-14.74,1.98.62.75,1.17.96,1.74,1.04,19.06,2.81,38.11,2.14,57.09-.64,14.22-2.09,28.38-4.56,42.57-6.81.89-.14,1.86.2,2.79.32l-.02,1.4c-39.04,10.27-78.36,16.27-118.97,7.84,1.67.54,3.32,1.12,5,1.61,22.43,6.62,45.43,9.63,68.67,11.32Z"/>
    <path class="cls-1" d="M747.15,1036.72c.34.03.68.06,1.01.09.06-1.05.12-2.1.18-3.14l-.96-.04c-.08,1.03-.16,2.06-.23,3.09Z"/>
    <path class="cls-1" d="M577.24,1088.07c4.9,14.78,11.56,28.74,19.26,42.22,12.54,21.95,27.55,42.17,42.56,62.39.93,1.25,1.7,2.62,2.92,4.51,2.34-2.76,3.83-4.28,5.06-6.01,10.25-14.37,20.94-28.45,30.51-43.26,7.84-12.13,14.69-24.96,21.3-37.84,5.99-11.68,10.37-24.11,13.01-37.04,4.79-23.5,4-46.69-4.54-69.32-.78-2.06-1.82-4.01-2.74-6.02,1.56,30.53,1.53,32.56-1.34,47.22-3.24,16.51-12.65,38.59-18.99,43.47.7-2.08,1.14-3.51,1.65-4.9,3.39-9.12,7.02-18.16,10.16-27.37,6.86-20.11,6.76-40.5,2.63-61.23-1.68-8.4-6.86-11.68-14.35-14.14.22,1.62.32,2.77.53,3.89,5.25,27.03,1.18,52.64-11.54,76.92-7.41,14.15-16.82,26.89-27.23,38.9-1.01,1.17-2.24,2.13-3.27,3.09-.68-.26-1.1-.31-1.37-.55-.88-.8-1.75-1.61-2.53-2.51-10.95-12.6-20.8-26-28.32-41.02-11.79-23.52-15.63-48.21-10.59-74.19.27-1.39.23-2.84.34-4.47-7.8,2.45-12.67,6.44-14.21,14.63-3.9,20.72-4.03,41.15,2.96,61.24,3.13,9,6.65,17.86,9.97,26.8.51,1.38.87,2.83,1.31,4.25l-1.11.51c-3.72-4.78-6.13-10.36-8.6-15.9-10.46-23.49-14.11-47.89-9.14-73.47-.45-.09-.89-.17-1.33-.26-.48.8-1.09,1.55-1.4,2.42-1.51,4.1-3.24,8.15-4.34,12.36-6.57,25.15-5.4,50.05,2.77,74.66Z"/>
    <path class="cls-1" d="M758.25,1024.33c.39,1.38,1.51,2.56,2.33,3.82.47.01.93.02,1.4.04,0-1.74.19-3.51-.11-5.19-.1-.57-1.44-.91-2.21-1.36-.51.91-1.61,1.99-1.41,2.69Z"/>
    <path class="cls-1" d="M767.14,1064.75c4.06,2.19,7.57,4.09,11.55,6.24-.18-1.09-.07-2.14-.53-2.75-.68-.9-1.97-1.34-2.63-2.25-1.32-1.8-1.23-4.03.27-5.45,1.27-1.2,3.29-1.6,5.09-2.41.83,2.01,1.42,3.42,1.56,3.76,2.64,1.01,5.21,1.18,5.86,2.4,1.63,3.04,4.3,3.74,7.04,4.67-1.56,4.25-1.57,4.3-5.73,3.25-1.67-.42-3.79-1.87-4.15,1-.34,2.68,2.29,1.95,3.86,2.34.32.08.56.5.62.55.85,2.5.96,5.5,2.5,6.81,3.49,2.99,7.67,5.15,11.85,7.82,1.81-2.9,3.26-5.23,4.79-7.68,3.52,4.07-1.27,5.29-2.02,7.95,2.29,1.82,4.55,2.96,7.5,2.75,2.11-.15,4.27.07,6.38.35,2.73.36,4.73,1.5,5.14,4.75.18,1.4,1.1,3.28,2.24,3.88,4.61,2.45,9.46,4.41,15.01,5.36.18-1.88.16-3.26.46-4.56.33-1.46.91-2.86,1.4-4.29.53-.08,1.06-.21,1.6-.2,6.13.02,6.88,1.37,3.77,6.83-1.65,2.89-1.41,4.58,2.04,6.03,6.15,2.58,12.51,4.62,18.82,6.8.63.22,1.46-.17,2.85-.37-3.33-3.98-2.21-7.53-.12-10.13-4.17-5.2-9.62-7.78-15.23-10.56,4.05-2.88,7.85-5.34,13.11-4.12.45,2.51.86,4.81,1.35,7.51,2.6.03,3.75,1.28,4.28,4.2.61,3.37.84,6.52.37,9.9-.59,4.24.49,6.15,3.84,6.83,2.26.45,4.82-.33,6.96.35,2.11.67,3.7,2.98,5.81,3.69,6.71,2.25,13.57,4.07,20.36,6.08,9.91,2.94,19.94,5.55,29.7,8.97,12.27,4.3,24.42,8.98,36.41,14.03,19.72,8.3,38.44,18.38,54.47,32.96.89.81,2.06,1.29,4.01,2.49-.62-3.2-.87-5.34-1.45-7.39-1.62-5.73-3.12-11.51-5.14-17.09-7.42-20.54-14.89-41.08-25.89-60.04-2.48-4.28-4.46-9.48-8.15-12.27-4.3-3.25-5.75-7.82-8.57-11.72-.69-.95-1.04-2.19-1.81-3.04-6.74-7.44-13.67-14.71-20.3-22.25-7.55-8.59-17.19-14.46-26.18-21.19-1.65-1.23-3.48-2.21-5.23-3.31-.33.27-.65.54-.98.81.49,1.82.9,3.67,1.5,5.46.63,1.87,1.46,3.68,2.2,5.51,1.01,2.5.24,4.12-2.45,5.2-2.46-2.99-4.98-5.72-7.11-8.73-2.64-3.74-.42-7.03,2.09-10.45-8.96-5.43-17.76-9.14-28.19-6.52-.15.15-.51.37-.69.7-2.71,4.77-3.67,5.08-7.03,1.19-2.31-2.68-5.12-2.53-8.03-2.59-3.12-.07-6.25-.04-9.38-.05-4.45-.01-9.12-1.02-12.99,3.11,1.92,5.2-4.14,11.38,1.82,16.27-1.27,3.42-3.43,4.95-6.47,4.59-.39.62-.73,1.35-1.23,1.94-2.81,3.27-5.97,2.71-7.72-1.1-1.11-2.42.63-6.53,3.47-8.4,3.81-2.51,4.11-4.12.77-7.01-.96-.83-2.17-1.36-3.2-1.99.7-2.38,1.28-4.34,2.12-7.19-3.42,1.09-5.91,1.89-8.35,2.67-.41,3.59-.17,6.24,3.79,7.11.7.15,1.14,2.2,1.35,3.43.07.37-1.33,1.48-1.53,1.35-.89-.54-1.61-1.37-2.35-2.15-.39-.41-.7-.91-1-1.31-3.26,0-6.43-.26-9.53.07-3.11.33-5.71.25-7.92-2.5-1.28-1.59-3.26-2.76-5.42-.96,2.23,5.54,7.71,6.34,11.97,9.63,2.47-3.67,5.98-3.82,10.47-2.44-.71,2.54-.82,5.35-2.17,7.26-2.81,3.96-6.27,7.44-9.44,11.08-1.44-.39-2.7-.73-4.52-1.22-.42,2.2-.54,4.16-1.22,5.91-.5,1.29-1.52,2.9-2.68,3.31-2.38.85-6.67-2.03-6.48-4.58.33-4.33-2.53-5.66-5.28-7.84-2.31,3.55-4.15,6.78-9.03,3.98-2.51-1.43-5.21.86-5.86,3.91-.42,1.94-.79,3.89-1.19,5.83-8-3.76-8.64-6.98-2.54-12.77.13-.12.15-.35.22-.53-2.32-4.86-2.89-4.95-7.72-3.7-2.09.54-4.51.36-6.66-.09-3.54-.75-5.25.11-5.56,3.62-.1,1.11.28,2.21.28,2.21-3.68,3.9-6.7,7.11-9.85,10.45Z"/>
    <path class="cls-1" d="M840.83,1021.32c-1.54-.1-3.08-.19-4.62-.29l-.1,1.48c1.54.16,3.07.32,4.61.47.04-.56.08-1.11.12-1.66Z"/>
    <path class="cls-1" d="M753.97,1050.22c.34.08,1.13-.49,1.23-.88.56-2.17-.56-3.13-3.01-3.45-.69,2.37-.33,3.83,1.78,4.33Z"/>
    <path class="cls-1" d="M830.54,1019.95c-2.96-.47-5.73-.91-9.52-1.5,4.82,7.08,6.4,7.24,9.52,1.5Z"/>
    <path class="cls-1" d="M759.97,1010.03c-5.13-3.31-5.53-3.18-5.78,2.6,2.29-1.03,3.86-1.74,5.78-2.6Z"/>
</svg>
