<svg xmlns="http://www.w3.org/2000/svg"  x="0px" y="0px">
    <g data-name="01">
        <path fill="white" d="M17.76,28.36a12.2073,12.2073,0,0,1-8.26-1.7V20.11Z"/>
        <path fill="white" d="M25.98,23.5a12.3432,12.3432,0,0,1-3.25,3.03,12.613,12.613,0,0,1-3.78,1.61L14.31,23.5Z"/>
        <path fill="white" d="M28.5,16a12.2657,12.2657,0,0,1-1.84,6.5H20.11l3.24-3.25,2.9-2.9,2.13-2.12A12.94,12.94,0,0,1,28.5,16Z"/>
        <path fill="white"
            d="M28.14,13.05l-2.59,2.6L23.5,17.69V6a12.581,12.581,0,0,1,3.03,3.27q.285.45.54.93c.05.1.1.21.15.31.1.22.21.43.3.65.06.13.1.27.15.4a6.1307,6.1307,0,0,1,.22.6c.05.14.09.29.13.44Z"/>
        <path fill="white" d="M22.5,5.33v6.56L19.25,8.65,14.24,3.64a12.5273,12.5273,0,0,1,4.45.15A12.7162,12.7162,0,0,1,22.5,5.33Z"/>
        <path fill="white" d="M17.69,8.5H6.02a12.3594,12.3594,0,0,1,7.03-4.64Z"/>
        <path fill="white" d="M8.5,14.31V25.98a12.3432,12.3432,0,0,1-3.03-3.25,12.613,12.613,0,0,1-1.61-3.78Z"/>
        <path
            fill="white" d="M11.89,9.5,8.65,12.74v.01L3.64,17.76A12.79,12.79,0,0,1,3.5,16a12.458,12.458,0,0,1,.29-2.69A12.6352,12.6352,0,0,1,5.34,9.5Z"/>
    </g>
</svg>
