<?xml version="1.0" encoding="UTF-8"?>
<svg id="Layer_1" data-name="Layer 1" xmlns="http://www.w3.org/2000/svg" xmlns:xlink="http://www.w3.org/1999/xlink" viewBox="0 0 276.11 155.25">
    <defs>
        <style>
            .cls-1 {
            fill: none;
            }

            .cls-1, .cls-2 {
            stroke-width: 0px;
            }

            .cls-3 {
            clip-path: url(#clippath);
            }

            .cls-2 {
            fill: #fff;
            }
        </style>
        <clipPath id="clippath">
            <rect class="cls-1" width="158.63" height="155.25"/>
        </clipPath>
    </defs>
    <g class="cls-3">
        <g>
            <path class="cls-2" d="M13.2,75.03c-.09-.29-.15-.49-.22-.69-2.01-5.35-3.99-10.7-6.03-16.03-1.72-4.47-3.76-8.79-6.41-12.79-.16-.24-.3-.5-.42-.77-.24-.54-.11-.87.43-1.12.24-.11.5-.19.76-.25,1.66-.39,3.34-.54,5.04-.56,5.69-.06,11.14,1.11,16.38,3.33,1.02.43,2.02.93,3.11,1.44.13-.4.3-.74.37-1.11,1.48-7.68,3.59-15.2,5.94-22.65.2-.63.4-1.26.61-1.88.07-.2.18-.39.28-.61.16.06.27.08.37.14,4.68,2.87,9.57,5.33,14.44,7.83,2.56,1.32,5.01,2.85,7.52,4.29.13.07.25.14.45.25.17-.27.34-.53.49-.79,2.93-5.1,6.01-10.09,9.55-14.79,1.87-2.49,3.83-4.92,5.68-7.43,2.06-2.8,4.04-5.67,6.07-8.5.53-.75,1.08-1.49,1.7-2.34.54.71,1.03,1.31,1.47,1.94,1.41,2.02,2.75,4.08,4.21,6.06,1.87,2.55,3.79,5.07,5.75,7.56,4.37,5.54,8.15,11.47,11.65,17.59.13.23.27.45.42.7.2-.11.35-.19.49-.28,3.45-2.17,7.05-4.08,10.68-5.92,2.7-1.37,5.36-2.82,8.02-4.27,1.04-.57,2.04-1.21,3.06-1.82.14-.08.29-.15.53-.27.21.53.43,1.01.59,1.51,1.86,6.01,3.66,12.05,5.08,18.19.41,1.76.74,3.54,1.12,5.3.09.42.24.83.39,1.3.54-.25,1-.47,1.45-.68,3.71-1.79,7.6-3,11.67-3.64,2.88-.45,5.78-.57,8.68-.35,1.03.08,2.05.34,3.07.54.21.04.42.13.6.24.39.24.48.52.31.93-.12.29-.27.58-.44.84-2.8,4.23-4.92,8.8-6.71,13.54-1.92,5.09-3.83,10.19-5.74,15.28-.08.22-.16.45-.27.76.5-.03.9-.06,1.31-.08,2.81-.18,5.61-.07,8.38.5.68.14,1.36.36,2.02.59.91.31,1.1.71.81,1.61-1.82,5.75-4.3,11.2-7.5,16.31-2.23,3.56-4.7,6.94-7.55,10.02-3.34,3.6-7.16,6.63-11.27,9.3-5.1,3.32-10.53,5.89-16.42,7.44-.21.05-.41.13-.61.3.29,0,.58.02.87,0,3.26-.27,6.5-.67,9.71-1.32.78-.16,1.58-.21,2.37-.33.55-.08,1.1-.15,1.64-.29,2.95-.77,5.83-1.77,8.68-2.85,3.45-1.31,6.78-2.86,9.94-4.78,1.8-1.1,3.67-2.08,5.33-3.4.14-.11.31-.2.56-.21-.14.17-.27.37-.43.52-.38.34-.76.68-1.17.99-5.77,4.45-11.99,8.08-18.88,10.46-3.99,1.38-8.1,2.29-12.28,2.85-.57.08-1.14.17-1.9.28.33.27.51.44.71.59,5.62,4.35,9.19,10.1,11.22,16.87.9,3,1.36,6.08,1.35,9.24,0,1.66-.16,3.26-.67,4.83-.06.2-.16.39-.31.74-.21-.31-.35-.48-.46-.67-1.52-2.8-3.48-5.2-6.09-7.06-3.43-2.45-7.2-4.19-11.15-5.57-1.3-.46-2.63-.83-3.95-1.23-4.32-1.3-8.54-2.85-12.52-5-1.8-.98-3.4-2.24-4.96-3.55-.22-.18-.43-.38-.71-.63-.09.23-.17.39-.22.56-.35,1.3-.86,2.54-1.44,3.75-1.52,3.18-3.43,6.12-5.42,9.01-1.44,2.08-2.88,4.17-4.33,6.25-.2.29-.44.56-.73.92-.26-.31-.47-.53-.64-.78-2.26-3.29-4.53-6.58-6.76-9.89-1.39-2.06-2.53-4.28-3.56-6.55-.46-1.01-.78-2.1-1.17-3.19-.08.04-.2.07-.28.15-3.25,3.08-7.15,5.06-11.26,6.66-2.73,1.07-5.52,1.93-8.33,2.78-4.56,1.37-8.93,3.2-12.89,5.94-2.26,1.57-4.24,3.4-5.64,5.82-.35.61-.73,1.21-1.1,1.8-.07.12-.17.22-.31.39-.12-.16-.25-.28-.3-.41-.43-1.35-.72-2.72-.75-4.16-.08-3.45.37-6.83,1.34-10.13,1.66-5.63,4.5-10.58,8.68-14.69.78-.76,1.66-1.42,2.49-2.13.22-.18.43-.36.78-.66-1.02-.15-1.88-.28-2.73-.4-9.89-1.39-18.9-5.03-27.06-10.82-1.44-1.02-2.84-2.12-4.25-3.19-.24-.18-.43-.44-.64-.66.03-.04.06-.09.09-.13.2.13.41.26.61.4,4.15,2.85,8.45,5.41,13.12,7.29,3.5,1.41,7.03,2.76,10.71,3.64.94.22,1.91.27,2.86.43,2.08.34,4.15.73,6.23,1.03,1.82.25,3.65.4,5.48.59.01-.06.03-.11.04-.17-.17-.06-.34-.14-.52-.19-1.75-.56-3.53-1.05-5.25-1.7-6.99-2.64-13.21-6.59-18.86-11.49-3.58-3.11-6.61-6.72-9.3-10.63-2.56-3.72-4.83-7.62-6.62-11.77-1.07-2.48-1.93-5.06-2.86-7.6-.27-.75-.04-1.2.71-1.49,1.25-.48,2.54-.78,3.87-.93,2.43-.27,4.87-.35,7.32-.16.17.01.33,0,.62,0ZM113.4,61.89c.34-.11.55-.38.42-.63-.11-.23-.28-.44-.47-.6-.09-.07-.29-.01-.44-.01-.04.53.52.45.63.81-.04.13-.08.3-.12.46-.27.38-.34.78-.17,1.3.45-.46.24-.89.16-1.32ZM45.34,61.86c-.36.78-.36.82.08,1.26.17-.45-.02-.85-.08-1.26-.11-.16-.22-.31-.32-.45.28-.3.75-.27.71-.76-.65-.22-.72.4-1.02.62.06.41.16.72.63.58ZM113.67,55.62c-.31.31-.64.26-.97.04-.2-.13-.37-.06-.52.09-.19.19-.08.34.07.49.56-.17.89,0,.98.55.35-.18.71-.37,1.14-.6-.29-.22-.51-.39-.73-.56-.04-.43-.03-.88-.14-1.29-.06-.21-.33-.4-.54-.5-.09-.04-.3.16-.45.26-.16.11-.31.24-.52.42-.11-.4-.19-.67-.26-.95-.57.24-.58.36-.15,1.12.39.08.74.24,1.06.19.38-.06.53.1.71.34.1.14.2.26.3.4ZM138.84,101.62c.52-.44.99-.92.98-1.65.91-.22,2.22-1.4,2.17-1.96-.16-.12-.32-.24-.54-.41.15-.2.28-.36.5-.64.15.3.26.51.4.78,4.47-5.51,7.95-11.35,10.17-18-.29-.07-.46-.14-.65-.16-1.56-.22-3.13-.29-4.7-.22-.31.01-.62.08-.93.11-.79.09-1.57.19-2.36.27-.28.03-.41.2-.51.45-.42,1.01-.87,2.01-1.28,3.03-.58,1.42-1.16,2.84-1.73,4.26-.29.72-.61,1.44-.82,2.18-.06.22-.16.38-.27.55-.28.45-.58.89-.84,1.35-.98,1.73-1.94,3.48-2.93,5.21-.67,1.16-1.68,2.12-2.06,3.46-.03.11-.22.17-.34.25-.38.26-.67.6-.85,1.12.19-.02.31-.02.42-.05.11-.03.22-.11.33-.15.37-.11.52-.02.64.36.04.13.05.27.07.41-.46.03-.92.17-1.29.04-.44-.15-.67.03-.86.3-.25.36-.58.71-.38,1.25.07.2-.02.46-.05.72-.35-.12-.61-.22-.93-.33-.27.38-.54.74-.87,1.2.31.12.5.19.69.27.25.1.43.26.33.55-.07.23-.41.32-.69.19-.17-.08-.33-.19-.48-.28-.5.47-1.24.55-1.51,1.17.04.33.07.63.1.92-.16.04-.23.07-.3.06-.91-.12-.9-.11-1.35.66-.1.18-.28.33-.44.46-.59.49-1.2.96-1.79,1.45-.03.03-.01.13-.01.2.19-.06.38-.18.52-.15.38.1.66-.06.92-.27.28-.23.58-.24.89-.11.26.1.5.25.8.41,0-.58-.02-1.15,0-1.72.02-.31.12-.62.52-.68.18-.03.42-.11.5-.25.24-.41.54-.32.89-.23.05.16.1.32.16.53.13-.1.21-.19.3-.24.83-.46.83-.47,1.25-1.41.05-.12.25-.19.39-.25.39-.17.78-.31,1.02-.41.09-.46.06-.84.23-1.01.15-.14.57-.1.8.01.45.21.13.61.06.92.92.21,1.89-.48,2.37-1.64.64-.07,1.13-.43,1.52-.97.15-.21.37-.39.58-.54.31-.22.56-.44.6-.86,0-.09.13-.18.21-.25.13-.1.27-.18.41-.27l-.02.02ZM98.08,129.14c-.19.52-.19.53-.7.4-.2-.05-.47-.23-.51.12-.04.33.28.24.47.29.04.01.07.06.08.07.1.31.12.68.31.84.43.37.94.63,1.46.96.22-.36.4-.64.59-.94.43.5-.16.65-.25.98.28.22.56.36.92.34.26-.02.52,0,.78.04.34.04.58.18.63.58.02.17.14.4.27.48.57.3,1.16.54,1.84.66.02-.23.02-.4.06-.56.04-.19.12-.37.18-.55l-.03.03c.07,0,.14-.03.22-.03.75,0,.84.17.46.84-.2.36-.17.56.25.74.75.32,1.54.57,2.31.84.08.03.18-.02.35-.05-.41-.49-.27-.93-.02-1.24-.51-.64-1.18-.96-1.87-1.3.5-.35.96-.66,1.61-.51.06.31.11.59.17.92.32,0,.46.16.53.52.07.41.1.8.04,1.22-.07.52.06.76.47.84.28.06.59-.04.85.04.26.08.45.37.71.45.82.28,1.67.5,2.5.75,1.22.36,2.45.68,3.65,1.1,1.51.53,3,1.1,4.47,1.72,2.42,1.02,4.72,2.26,6.69,4.05.11.1.25.16.49.31-.08-.39-.11-.66-.18-.91-.2-.7-.38-1.41-.63-2.1-.91-2.52-1.83-5.05-3.18-7.37-.3-.53-.55-1.16-1-1.51-.53-.4-.71-.96-1.05-1.44-.08-.12-.13-.27-.22-.37-.83-.91-1.68-1.81-2.49-2.73-.93-1.06-2.11-1.78-3.22-2.6-.2-.15-.43-.27-.64-.41-.04.03-.08.07-.12.1.06.22.11.45.18.67.08.23.18.45.27.68.12.31.03.51-.3.64-.3-.37-.61-.7-.87-1.07-.32-.46-.05-.86.26-1.28-1.1-.67-2.18-1.12-3.46-.8-.02.02-.06.05-.09.09-.33.59-.45.62-.86.15-.28-.33-.63-.31-.99-.32-.38,0-.77,0-1.15,0-.55,0-1.12-.13-1.6.38.24.64-.51,1.4.22,2-.16.42-.42.61-.79.56-.05.08-.09.17-.15.24-.35.4-.73.33-.95-.14-.14-.3.08-.8.43-1.03.47-.31.51-.51.1-.86-.12-.1-.27-.17-.39-.24.09-.29.16-.53.26-.88-.42.13-.73.23-1.03.33-.05.44-.02.77.47.87.09.02.14.27.17.42,0,.05-.16.18-.19.17-.11-.07-.2-.17-.29-.26-.05-.05-.09-.11-.12-.16-.4,0-.79-.03-1.17,0-.38.04-.7.03-.97-.31-.16-.2-.4-.34-.67-.12.27.68.95.78,1.47,1.18.3-.45.73-.47,1.29-.3-.09.31-.1.66-.27.89-.34.49-.77.91-1.16,1.36-.18-.05-.33-.09-.55-.15-.05.27-.07.51-.15.73-.06.16-.19.36-.33.41-.29.1-.82-.25-.8-.56.04-.53-.31-.69-.65-.96-.28.44-.51.83-1.11.49-.31-.18-.64.11-.72.48-.05.24-.1.48-.15.72-.98-.46-1.06-.86-.31-1.57.02-.01.02-.04.03-.06-.29-.6-.36-.61-.95-.45-.26.07-.55.04-.82-.01-.44-.09-.64.01-.68.44-.01.14.03.27.03.27-.45.48-.82.87-1.21,1.28.5.27.93.5,1.42.77-.02-.13,0-.26-.07-.34-.08-.11-.24-.16-.32-.28-.16-.22-.15-.5.03-.67.16-.15.4-.2.62-.3.1.25.17.42.19.46.32.12.64.14.72.29.2.37.53.46.86.57ZM140.7,73.49c.2.09.33.02.41-.17.18-.43.42-.85.5-1.29.09-.51.41-1.08-.1-1.57-.03-.03.02-.13.03-.2.68.04.82-.05,1.05-.68.03-.07.05-.14.07-.21.22-.67.18-1.44.74-1.99.02-.02.02-.04.03-.07.66-1.75,1.32-3.5,1.97-5.26.59-1.6,1.17-3.21,1.73-4.82.31-.9.52-1.84.87-2.71.94-2.3,1.79-4.64,3.01-6.82.07-.13.09-.3.15-.53-1.16.08-2.24.11-3.31.23-.64.07-1.27.26-1.91.4-1.22.28-2.44.53-3.64.86-.67.18-1.31.49-1.96.74-.99.38-2.03.66-2.97,1.15-.68.35-1.62.39-1.87,1.38-.2-.09-.39-.25-.5-.21-.49.18-.99.39-1.43.66-.31.19-.07.54-.06.82,0,.17,0,.34,0,.51.03.83.06,1.66.11,2.49,0,.16.08.34.18.45.55.57.86,1.24.91,2.03.02.24.05.47.07.71.29.13.55.24.86.38-.1.13-.15.27-.24.3-.38.16-1.35-.52-1.36-.93,0-.05.03-.1.02-.14-.04-.17-.09-.33-.13-.49-.06.01-.12.02-.18.04.04.64.08,1.27.13,1.93.46.09.93.33,1.28.21.57-.2.95.08,1.35.19-.15.19-.39.36-.4.53-.01.3.27.23.49.24.3.02.4.37.15.59-.23.2-.51.34-.82.54-.15-.26-.32-.43-.34-.62-.02-.18.13-.37.2-.57-.66-.38-1.32-.23-1.99-.07.1.8-.28,1.6.27,2.28-.45.39-.44.86-.41,1.33,0,.07.15.14.24.21l-.02-.02c-.1.3-.21.59-.3.89-.2.67-.02,1.07.62,1.33.25.1.39.21.44.5.06.41.31.55.71.46.26-.06.51-.13.76-.22.34-.11.61-.06.8.27.01.02.08.02.1.02.18-.13.34-.24.59-.42.18.5.3.9.46,1.29.11.26,0,.4-.17.57-.18.18-.36.23-.58.11-.21-.12-.31-.28-.23-.54.08-.25.14-.53-.19-.66-.39.29-.62.7-.7,1.23.61,0,.84.11.85.42.03.58-.48.45-.85.54.14.22.23.38.32.52.35-.08.66-.15,1-.23-.07.86-.13.93-.88,1.02.17-.33-.06-.32-.29-.37-.01.28.07.39.31.36.25.31.53.42.94.3.56-.16,1.13-.13,1.66.16.16.09.35.19.52.18.41-.02.67.18.9.48-.16.3-.35.59-.46.9-.16.45-.63.32-.86.53-.26.23-.43.49-.81.36,0-.5.25-.79.65-.99.23-.11.43-.28.3-.57-.11-.24-.3-.34-.59-.22-.15.06-.38.01-.54-.06-.33-.14-.48-.01-.61.32.15.04.26.08.37.1.22.06.51.04.55.36.02.2-.47.46-.76.41-.05,0-.09-.04-.14-.05-.42-.11-.71-.38-.95-.73-.19-.28-.43-.46-.79-.36-.29.08-.57.18-.85.27-.02.18-.04.36-.07.6-.28-.11-.5-.19-.7-.27-.06-.5.19-.83.76-.99-.12-.77-.56-1.63.43-2.15-.29-.45-.72-.33-1.09-.39-.32-.05-.5.12-.38.42.24.57-.17.66-.41.77-.18.47-.27.88-.48,1.22-.13.21-.44.32-.67.47v1.44h.66c0-.18-.02-.37-.03-.55,0-.02-.03-.05-.02-.07.04-.15.09-.29.14-.44.16.06.37.09.48.2.16.17.26.4.36.62.16.33.22.66-.13.91-.2.14-.32.3-.21.44.42.15.74.24,1.03.39.12.06.22.25.24.39.01.06-.19.17-.31.23-.14.07-.29.11-.49.18.2.26.36.47.48.62.45-.11.83-.2,1.21-.3.14-.52.14-.52-.11-.86-.07-.09-.14-.21-.15-.32-.05-.6-.09-1.2-.13-1.87.12-.21.37-.26.64-.16.14.05.36.2.36.3-.02.47.18.95-.1,1.42-.25.43-.18.53.32.72.09.03.18.07.29.12.08-.14.15-.29.2-.39.3-.06.55-.12.8-.15.18-.02.41-.08.55,0,.34.2.6.03.84-.06.14-.27.21-.55.39-.72.6-.58.86-1.27.77-2.09ZM22.43,61.45h.01c.24-.57-.34-.29-.57-.54.46-.13.89-.39,1.22-.3.61.17,1.1-.07,1.73-.19-.32-.66.32-1.3-.13-1.94-.08.2-.07.41-.11.61-.03.18-.07.41-.19.51-.25.2-.56.35-.86.47-.28.12-.46,0-.53-.36.76-.09.96-.59.94-1.27-.02-.67.39-1.18.76-1.66.19-.25.31-.46.32-.77.05-1.07.12-2.14.15-3.22,0-.16-.09-.42-.21-.49-.59-.31-1.13-.91-1.84-.4-.19-.27-.3-.56-.5-.71-.35-.25-.75-.42-1.15-.58-1.43-.57-2.86-1.16-4.32-1.67-1-.34-2.05-.52-3.07-.83-1.08-.33-2.18-.58-3.3-.71-.93-.11-1.87-.15-2.81-.21-.15,0-.31.04-.56.07.17.34.29.59.42.85,1.34,2.66,2.45,5.41,3.38,8.24.64,1.97,1.37,3.91,2.08,5.86.38,1.05.76,2.1,1.19,3.13.37.89.53,1.88,1.17,2.65.07.09.09.22.11.33.09.4.14.81.27,1.19.08.24.22.5.42.66.15.12.42.07.71.11-.07.16-.13.3-.19.44-.05.13-.12.27-.11.39.08.86.37,1.65.78,2.41.42.79.55,1.75,1.28,2.37.01.01,0,.05.02.07.16.42.47.61.89.44.31-.13.55-.13.82.04.07.05.19.12.23.1.4-.27.5.05.61.32.17-.04.31-.07.44-.1.28-.07.39-.32.25-.5-.29-.38-.14-.79-.2-1.18-.05-.29-.06-.57.24-.69.3-.13.62-.15.8.12-.06.63-.1,1.21-.16,1.78-.01.14-.03.32-.11.41-.31.3-.21.61-.12.86.45.13.83.24,1.24.36.13-.19.28-.42.45-.67-.33-.12-.6-.23-.92-.35.34-.63.87-.68,1.51-.77-.15-.23-.21-.4-.34-.51-.26-.24-.29-.51-.16-.8.13-.29.28-.57.47-.81.08-.1.3-.12.44-.1.06,0,.11.23.11.36,0,.11-.08.23-.1.35-.05.34.07.46.4.4.14-.02.26-.1.33-.13v-1.5c-.47-.06-.74-.29-.88-.71-.04-.11-.14-.2-.21-.3.02.02.04.02.07.02-.02-.19-.05-.38-.07-.56-.54-.25-.53-.25-.48-.84.01-.15-.05-.31-.08-.47-.65.12-1.25.22-1.85.33-.01.02-.02.03-.03.03-.14.05-.27.12-.41.14-.27.04-.48-.07-.53-.36-.05-.3.13-.46.39-.52.15-.03.31,0,.47,0-.07-.59-.28-1.01-.75-1.29-.3.23-.18.5-.18.75,0,.17-.08.37-.19.49-.18.17-.4.14-.58-.06-.09-.11-.18-.22-.3-.35.36-.42.14-1.08.68-1.45.18.11.35.22.56.34.21-.36.51-.42.87-.29.23.08.46.14.69.2.44.11.63,0,.72-.49.06-.3.25-.37.49-.46.49-.2.73-.49.62-.93-.16-.66-.18-1.32-.13-1.99,0-.1,0-.2-.04-.29-.21-.44-.24-.87-.02-1.33.06-.12-.04-.32-.06-.47-.54.02-.52.04-.85.39-.1.11-.32.13-.48.19-.04-.17-.14-.35-.12-.51.02-.15.15-.29.25-.42.3-.38.69-.34,1.12-.16.03-.23.06-.38.08-.54-.69-.1-1.32-.18-1.96.02-.13.04-.29-.02-.43-.03ZM72.93,115.49c-.77.11-1.53.24-2.3.33-2.18.26-4.35.16-6.51-.19-1.64-.26-3.27-.64-4.9-.98-.21-.04-.41-.15-.62-.23.16-.13.27-.13.38-.12,1.12.18,2.24.35,3.36.56,2.6.47,5.22.71,7.87.5.22-.02.43-.04.65-.08.18-.03.36-.08.55-.12-.11-.09-.2-.11-.29-.13-1.76-.31-3.54-.55-5.28-.94-5.08-1.13-9.77-3.26-14.31-5.76-8.03-4.42-14.5-10.51-19.28-18.41-.2-.33-.43-.66-.7-.93-2.92-2.92-6.25-5.24-10-6.91-.13-.06-.29-.06-.5-.11.06.21.08.33.12.44,1.32,3.31,2.69,6.59,4.29,9.78,3.04,6.04,6.98,11.35,12.14,15.73,3.61,3.07,7.61,5.45,12.02,7.11,3.4,1.28,6.91,2.04,10.56,2.11,4.08.08,8.12-.28,12.07-1.35.24-.06.45-.22.67-.33.28-.03.56-.07.83-.1,0-.05-.02-.09-.03-.14-.26.09-.53.17-.79.26ZM67.74,42.15s-.02-.05-.03-.07c.5.81-.4,1-.65,1.47.21.54.72.66,1.14.81.08.86.67,1.35,1.03,1.97.14-.05.2-.08.27-.1.51-.17.67-.08.74.42.04.26.07.53.07.8,0,.25-.05.53.22.64.16.06.37-.02.55-.03.15.3.24.66.47.87.23.21.6.25.92.37.09.55-.37.74-.66.99.08.38.25.59.61.51.32-.07.39-.33.4-.62,0-.1,0-.2.03-.29.08-.31.42-.51.73-.43.34.09.36.34.28.63-.04.13-.05.28-.07.41.2.11.36.2.59.32.12-.29.23-.53.38-.89.05.24.08.35.09.46.01.13,0,.27,0,.51.25-.15.46-.21.54-.34.13-.22.24-.49.25-.75,0-.29-.21-.48-.52-.51-.12-.01-.26.07-.35.03-.15-.08-.39-.23-.38-.33.01-.15.2-.31.33-.42.05-.04.19.04.27.02.23-.05.47-.07.66-.19.3-.19.56-.44.84-.68-.26-.49-.27-.76.02-.89.12-.06.32-.1.41-.04.2.14.36.35.54.53.51-.4.65-.79.34-1.07-.14.06-.28.12-.46.19-.44-.42-.87-.82-1.3-1.23-.18-.17-.15-.35-.01-.52.16-.19.37-.25.58-.09.13.1.2.36.31.37.58.05.75.5.99,1.12.18-.61.45-.86.95-.78.12.02.27-.18.33-.23.31.09.58.14.83.24.16.07.35.19.42.34.1.24.14.51.16.78.03.38.12.72.49.91.34-.54.62-.69.95-.52.1.05.24.18.23.26-.04.27-.14.53-.23.84.35-.06.63.06.82.4.17.3.45.35.75.26.34-.09.51.08.58.37.06.24-.16.4-.56.35-.36-.04-.62.09-.66.4-.03.26.09.56.19.82.09.23.3.29.54.22.14-.22-.16-.56.2-.7.11.27.22.53.32.79.14-.33.38-.32.59-.37-.03-.15-.07-.28-.09-.43-.06-.49.24-.71.7-.53.35.14.34.43.35.73.02.3.13.54.45.56.32.03.48-.17.51-.51-.25-.29-.76-.48-.58-1.02.35-.13.69-.26,1.02-.38.05-.17.09-.31.13-.45.05-.13.1-.26.15-.39.71.13.8.05.8-.66,0-.29.03-.58.08-.87.06-.32.27-.45.58-.37.13.03.26.11.42.18.34-.5.67-.97.99-1.45,0-.01-.04-.07-.06-.1h0c-.05-.31.08-.48.4-.54.4-.08.65-.34.86-.71-.19-.19-.37-.34-.53-.51-.39-.41-.39-.42-.12-.98l-.02.02c.67-.19.76.55,1.16.79.23-.27.01-.48.01-.7,0-.23.16-.47.23-.65.32,0,.54-.01.75,0,.51.04.75-.13.85-.62.09-.42.19-.83.3-1.28.48.42.6.49.85.31.48-.35.95-.73,1.26-1.23-.3-.54-.48.03-.72.03-.29-.27-.32-.6-.19-.93.05-.14.21-.28.35-.31.08-.02.27.16.31.29.1.28.23.4.54.31.17-.05.36-.04.56-.06v-.78c.21.04.37.06.53.11.29.1.52-.06.59-.27.05-.15-.06-.41-.17-.56-.1-.13-.31-.18-.5-.29.2-.42,0-.76-.21-1.09-.92-1.44-1.8-2.9-2.76-4.3-1.82-2.67-3.63-5.35-5.54-7.96-2.18-2.99-4.45-5.91-6.68-8.86-.23-.31-.5-.59-.72-.91-.75-1.11-1.49-2.22-2.24-3.33-.03-.05-.12-.07-.23-.12-.13.17-.27.34-.39.52-.68,1.04-1.34,2.09-2.04,3.11-.54.78-1.16,1.5-1.72,2.26-2.61,3.48-5.29,6.91-7.81,10.46-2.11,2.97-4.04,6.08-6.03,9.14-.21.32-.27.74-.39,1.08-.23.24-.44.47-.61.65.23.82.81.32,1.21.48.02.25.05.48.07.71.09,0,.14.01.18.02.39.04.82.19.92-.45.03-.2.41-.16.52.07.19.37.21.74-.14,1.09-.23-.11-.49-.62-.74.03.37.34.73.7,1.11,1.03.22.19.49.35.74.01.06-.08.15-.13.25-.22.13.53.22,1,.36,1.46.1.34.42.47.93.43.75-.06.89.09.79.85-.02.15.02.3.05.61.21-.26.34-.4.43-.55.2-.32.46-.41.8-.24ZM57.67,41.59c-.14.27-.28.49-.38.73-1.08,2.75-2.2,5.48-3.23,8.25-1.42,3.81-2.38,7.75-2.95,11.78-.58,4.11-.72,8.22-.14,12.35.78,5.52,2.68,10.64,5.38,15.47,2.93,5.24,6.79,9.67,11.61,13.24.14.1.3.18.45.27-.04-.27-.14-.47-.25-.65-1.33-2.25-2.43-4.62-3.22-7.12-2.2-6.98-2.28-14.05-.75-21.15,1.16-5.38,3.25-10.43,5.78-15.3.35-.68.66-1.29.17-2.01-.03-.04-.03-.09-.05-.14-.63-2.32-1.74-4.39-3.13-6.33-2.5-3.5-5.57-6.42-8.88-9.12-.11-.09-.24-.15-.43-.26ZM100.92,41.59c-.2.13-.37.23-.51.35-.58.48-1.17.95-1.73,1.45-2.71,2.41-5.26,4.98-7.33,7.99-1.24,1.8-2.23,3.72-2.82,5.84-.05.19-.08.4-.19.55-.31.43-.17.8.05,1.21,2.01,3.75,3.65,7.66,4.95,11.72,1.91,5.97,2.52,12.08,1.81,18.31-.56,4.95-2.09,9.57-4.62,13.86-.14.24-.26.48-.39.72.19.02.28-.01.35-.07,1.31-1.08,2.68-2.1,3.91-3.26,4.07-3.86,7.24-8.37,9.61-13.48,3.57-7.7,4.74-15.73,3.55-24.15-1.01-7.19-3.44-13.92-6.32-20.51-.08-.17-.19-.32-.31-.52ZM29.5,55c-.05.38-.09.59-.11.81-.07.95-.16,1.9-.21,2.85-.2,4.01-.06,8.02.59,11.99,1.24,7.51,4.39,14.2,8.73,20.33,3.24,4.57,7.18,8.45,11.79,11.61,1.88,1.29,3.83,2.48,5.8,3.62,2.97,1.71,6.09,3.11,9.39,4.04.19.05.39.09.59.13-.54-.4-1.13-.68-1.69-1-.57-.32-1.13-.66-1.67-1.03-.55-.36-1.07-.76-1.6-1.15-.51-.38-1.01-.76-1.51-1.15-.52-.4-1.03-.81-1.54-1.23-.51-.42-1.01-.83-1.5-1.28-.47-.42-1-.79-1.3-1.38.19.06.34.15.49.26,1.77,1.37,3.55,2.71,5.29,4.11,2.46,1.97,5.21,3.35,8.15,4.4,1.41.5,2.85.77,4.34.74.15,0,.29-.05.47-.08-.07-.1-.08-.15-.12-.18-.2-.13-.41-.27-.61-.39-5.11-3.12-9.92-6.63-14.2-10.86-4.26-4.22-7.45-9.16-9.84-14.64-1.43-3.28-2.37-6.72-3.08-10.22-.25-1.22-.66-2.34-1.26-3.41-1.81-3.25-4-6.22-6.38-9.07-2.41-2.88-5.21-5.3-8.3-7.39-.19-.13-.4-.25-.72-.44ZM129.11,55c-.33.21-.56.34-.77.49-3.22,2.17-6.1,4.73-8.57,7.75-2.34,2.85-4.52,5.8-6.25,9.07-.37.71-.68,1.47-.88,2.24-.45,1.67-.77,3.38-1.22,5.05-1.91,7.11-5.33,13.41-10.24,18.84-3.21,3.55-6.83,6.64-10.8,9.3-1.79,1.2-3.62,2.36-5.43,3.53-.13.08-.23.2-.46.39,1.46.04,2.75-.03,4.01-.44,3.1-1.01,6.05-2.33,8.65-4.37,1.91-1.51,3.84-2.98,5.76-4.46.14-.11.3-.18.45-.27.03.04.06.09.09.13-1.08,1.07-2.23,2.06-3.43,3-1.18.93-2.36,1.88-3.6,2.72-1.24.85-2.57,1.58-3.94,2.41.21-.04.33-.05.44-.09,1.64-.58,3.3-1.12,4.92-1.77,3.14-1.27,5.98-3.08,8.85-4.86,4.19-2.59,7.78-5.88,11-9.59,2.96-3.4,5.25-7.25,7.25-11.29,2.05-4.15,3.39-8.53,4.05-13.1.67-4.62.69-9.26.25-13.9-.02-.21-.07-.43-.13-.79ZM84.63,105.24c.05.04.1.08.15.11.04-.09.05-.2.11-.27,1.31-1.81,2.4-3.72,3.03-5.89.76-2.64,1.27-5.32,1.53-8.05.27-2.84.26-5.68-.36-8.46-.53-2.36-1.2-4.68-1.81-7.02-.04-.14-.04-.29-.08-.55.92,1.2,2.41,6.56,2.73,9.56.35,3.31.12,6.6-.36,9.89.11-.18.17-.36.22-.55,1.22-4.11,1.37-8.33,1.07-12.57-.21-2.97-.96-5.83-1.88-8.65-2.23-6.82-5.34-13.2-9.3-19.17-.1-.15-.23-.29-.4-.5-.18.25-.32.44-.45.64-2.53,3.83-4.73,7.85-6.56,12.07-1.53,3.54-2.89,7.15-3.76,10.93-1.31,5.7-1.25,11.39.25,17.05.04.16.12.32.17.47-.41-3.25-.59-6.49-.23-9.74.34-3.16,1.85-8.49,2.72-9.4-.04.22-.06.35-.09.48-.37,1.32-.73,2.63-1.11,3.95-.91,3.15-1.33,6.35-1.2,9.63.11,2.72.56,5.39,1.15,8.04.62,2.81,1.73,5.38,3.45,7.68.11.14.23.27.34.41-.03-.35-.14-.64-.25-.93-.88-2.26-1.58-4.57-1.9-6.98-.79-5.97-.43-11.85,1.43-17.61,1.16-3.58,2.65-6.98,4.95-9.98.34-.44.71-.85,1.06-1.27,1.74,1.44,4.25,5.76,5.71,10.01,3.05,8.91,3.13,17.81-.33,26.65ZM85.33,115.48c.2.07.41.14.61.2,2.75.81,5.58,1.18,8.43,1.39,4.94.36,9.75-.21,14.42-1.95,8.5-3.17,15.15-8.75,20.34-16.14,3.58-5.1,6.08-10.78,8.31-16.57.05-.12.04-.26.07-.5-.33.15-.57.24-.81.35-3.38,1.56-6.41,3.62-9.1,6.21-.57.54-1.05,1.13-1.47,1.8-2.9,4.71-6.44,8.86-10.68,12.38-3.84,3.18-8.07,5.71-12.56,7.85-4.45,2.11-9.07,3.65-13.95,4.36-.6.09-1.21.16-1.81.24.08.09.14.12.21.13,2.34.34,4.68.26,7.01-.08,1.75-.26,3.49-.56,5.23-.84.11-.02.23.02.34.04v.17c-4.8,1.26-9.63,2-14.62.96ZM124.88,52.24c.26-.12.5-.21.71-.34.73-.48,1.45-.97,2.18-1.45.67-.44.67-.43.49-1.23-.02-.07-.06-.13-.08-.18-.04-.03-.05-.05-.08-.06-.07-.02-.14-.05-.21-.07-.58-.18-.61-.26-.28-.8.24-.38.29-.76.18-1.19-.18-.7-.35-1.41-.53-2.11-.03-.12-.06-.24-.1-.35-.29-.92-.65-1.83-.85-2.78-.46-2.18-1.16-4.28-1.87-6.38-.29-.85-.64-1.68-.92-2.53-.36-1.09-.66-2.19-.99-3.29-.05-.17-.15-.34-.24-.55-.3.14-.55.23-.78.35-2.42,1.22-4.87,2.38-7.24,3.69-2.77,1.53-5.48,3.19-8.21,4.8-.17.1-.34.21-.45.36-.21.28-.29.57-.09.94.43.81.82,1.65,1.2,2.49.3.66.55,1.35.86,2.01.09.2.27.4.46.5.47.24.69.49.51.94-.16.4.06.65.14.96.09.33.2.57.68.56.33-.01.72,1.18.59,1.57-.05.14-.13.32-.09.44.2.62.2,1.32.67,1.85.04.05.07.14.07.2,0,.3.14.46.42.6.31.16.29.36.04.65-.07.08-.17.14-.26.22.44.35.84.64,1.39.69.17.01.36.16.5.29.23.22.46.3.78.24.4-.08.59.08.52.44-.06.32.02.58.16.83.24.43.48.86.77,1.27.1.15.31.15.4-.08.04-.1.07-.2.1-.31.2.05.34.08.48.12.05.01.11.03.12.07.06.15.19.4.15.43-.39.33-.44.8-.6,1.23-.04.1-.29.11-.44.18-.24.1-.52.15-.7.32-.27.27-.49.61-.69.93-.07.11-.04.28-.05.43.27-.23.46-.48.71-.57.38-.13.62-.34.75-.72.04-.1.14-.18.23-.3.19.13.34.24.5.33.16.1.34.18.56.29.14-.17.26-.33.41-.51-.28-.22-.5-.4-.75-.59.12-.27.25-.43.55-.29.13.06.26.2.37.18.48-.07.55.28.67.6.15.38-.11.55-.35.71-.21.14-.47.21-.7.33-.12.07-.2.19-.34.33.32.13.54.22.79.32.14-.37.32-.65.76-.67.59-.03.5-.81.99-.99.04-.02,0-.26,0-.43.61-.11,1.09-.42,1.47-.99-.13-.05-.22-.14-.28-.11-.1.04-.17.18-.28.22-.14.05-.32.07-.46.03-.07-.02-.15-.23-.12-.3.06-.14.19-.35.3-.35.51,0,.99-.44,1.5-.02.44-.71,1.32-.9,1.62-1.68.68-.39,1.36-.79,1.97-1.4-.27-.23-.53-.4-.72-.63-.12-.14-.18-.39-.16-.58.02-.18.42-.17.63.02.12.11.21.26.3.4.08.12.13.25.23.46ZM49.6,46.67c.27-.6.62-1.09.46-1.76-.05-.23.17-.52.26-.78.66.09.69-.48.86-.87.59-1.31,1.13-2.63,1.74-3.93.38-.81.35-1.06-.39-1.54-.57-.37-1.13-.73-1.71-1.08-3.31-2.01-6.68-3.93-10.14-5.68-1.3-.66-2.62-1.26-3.94-1.87-.14-.07-.31-.09-.47-.13-.07.12-.13.2-.15.29-.71,2.15-1.31,4.33-2.09,6.46-.65,1.76-1.08,3.6-1.61,5.4-.33,1.14-.69,2.27-1.01,3.42-.23.84-.42,1.69-.64,2.54-.1.39.02.71.23,1.03.35.51.3.62-.28.78-.09.03-.18.05-.26.08-.37.96-.36.97.43,1.49.71.46,1.41.95,2.12,1.41.21.14.45.23.67.35.57-1.04.65-1.09,1.27-.86.04.64-.73.71-.88,1.26.09.08.2.18.31.26.75.58,1.65.98,2.2,1.82.03.04.07.07.11.1.32.25.63.5.83.65.56.06.98.11,1.41.14.25.01.45.09.47.35.01.12-.09.36-.15.36-.17.01-.38-.02-.5-.13-.18-.15-.3-.24-.48.04.34.31.57.76,1.12.81.12.01.32.16.32.23-.05.41.39.53.48.87.04.17.3.38.47.4.45.05.7.29.84.72.26-.13.48-.24.71-.36.01-.06.03-.11.04-.17-.58-.14-1.07-.41-1.45-.91.12-.26.17-.6.36-.76.24-.19.59-.26.91-.33.21-.04.37.08.37.38-.09.07-.21.15-.31.24-.12.1-.24.22-.36.32.25.34.74.3,1.47-.11.08.13.15.28.25.4.13.17.26.41.43.46.38.12.68.33.95.78.1-.62-.32-.82-.48-1.15-.19-.37-.48-.62-.92-.61-.4,0-.57-.21-.58-.58,0-.23-.08-.39-.27-.55-.37-.3-.33-.49.06-.8.09-.07.18-.13.27-.2-.43-.23-.82-.43-1.35-.7.56-.18.96-.31,1.42-.45-.09-.18-.14-.33-.24-.46-.2-.26-.16-.53,0-.74.2-.26.46-.49.74-.65.15-.08.41-.03.59.05.1.05.2.28.18.41-.03.24-.23.27-.45.23-.08-.01-.17.03-.32.07,0,.33-.07.65.01.93.15.5.06.95-.12,1.41-.05.12-.1.24-.23.54.29-.11.46-.13.53-.22.1-.12.08-.37.19-.46.54-.42.7-.96.66-1.62-.02-.28.17-.5.46-.41.38.12.62-.04.92-.24.27-.18.62-.25.92-.37.14-.06.28-.12.41-.21.17-.11.31-.25.47-.38-.56-.5-.55-.5-.02-.97.11-.1.17-.27.24-.42.14-.28.28-.56.41-.85.07-.15.15-.3.19-.46.08-.35.13-.7.19-1.09-.66-.75.2-1.19.41-1.81.15.07.24.12.39.2ZM79.41,72.18c-.07-.01-.14-.02-.21-.03-.53.93-1.1,1.83-1.57,2.79-2.98,6.03-4.33,12.39-3.91,19.14.21,3.38.88,6.62,2.17,9.74.75,1.83,1.65,3.59,2.88,5.15.16.2.34.39.55.63.24-.29.43-.5.61-.73,1.32-1.71,2.26-3.64,3.04-5.64,1.28-3.24,1.82-6.61,1.97-10.08.29-6.79-1.26-13.13-4.42-19.1-.34-.64-.74-1.25-1.12-1.87ZM60.62,129.63c.07-.25.07-.47.14-.5.3-.12.52-.31.66-.6.02-.05.14-.11.18-.1.5.21.56-.31.88-.57.18.13.44.22.52.4.07.15-.02.41-.1.6-.04.09-.24.11-.28.21-.05.11-.01.26-.01.4.05.02.1.04.15.06.14-.67.82-.55,1.25-.9-.43-.44-.81-.83-1.15-1.18-.06-.26-.06-.54-.19-.74-.16-.27-.4-.1-.63-.02-.21.07-.47.01-.69-.05-.58-.17-.7-.12-.91.4.17.33.46.63.43.9-.03.31-.34.6-.54.92.15.5.12.55-.46.8.1-.17.25-.3.25-.43,0-.3-.08-.61-.11-.91-.06-.71-.3-.9-.99-.69-.28.09-.46.06-.62-.19-.09-.14-.2-.25-.33-.42-.25.31-.64.41-.59.89.04.36-.38.72-.75.69-.41-.02-.39-.33-.39-.64,0-.17-.1-.35-.16-.54-.23.07-.38.12-.52.16-.4-.46-.79-.89-1.16-1.33-.07-.09-.11-.22-.14-.33-.08-.3-.22-.49-.55-.61-.35-.12-.36-.51,0-.62.51-.16.44-.49.4-.88-.33-.1-.63-.19-1.02-.31.13.4.22.69.3.96-.09.07-.14.13-.17.12-.35-.05-.49.19-.54.45-.05.24.13.37.37.46.12.05.18.25.29.37.13.14.31.24.18.48-.09.17-.16.37-.29.49-.24.22-.46.11-.78-.35-.03-.04-.06-.07-.02-.03-.27-.04-.53,0-.61-.11-.11-.14-.18-.49-.1-.58.33-.33.18-.68.15-1.03-.02-.34,0-.69,0-1.02-.15-.06-.37-.17-.59-.21-.26-.04-.53-.03-.79-.03-.5,0-1.01,0-1.51,0-.36,0-.68.04-.94.41-.26.37-.52.3-.76-.13-.05-.08-.08-.16-.1-.2-1.34-.3-2.44.14-3.5.84.68.85.53,1.28-.77,2.33-.05-.24-.14-.44-.11-.61.05-.26.19-.5.28-.75.07-.22.11-.44.17-.66-1.28.71-2.48,1.44-3.48,2.43-.79.78-1.55,1.6-2.29,2.43-.52.57-1,1.18-1.34,1.89-.09.19-.25.34-.38.5-.17.2-.4.36-.53.58-.49.81-1,1.62-1.42,2.46-1.3,2.6-2.29,5.33-3.11,8.12-.08.27-.11.56-.17.85.12,0,.18.02.21,0,.14-.1.27-.2.4-.31,1.45-1.28,3.05-2.34,4.81-3.11,2.04-.89,4.12-1.7,6.18-2.53.56-.22,1.12-.43,1.7-.59,1.16-.33,2.33-.63,3.48-.96.48-.14.95-.33,1.43-.5.22-.08.43-.2.65-.22.9-.08,1.04-.24.91-1.15-.01-.07-.05-.15-.03-.21.11-.41.14-.9.39-1.18.19-.21.32-.36.36-.63.03-.15.15-.4.22-.4.35.02.7.09,1.04.19.15.04.27.2.52.39-.88.24-1.46.68-2.03,1.19.42.39.38.83-.02,1.38,1.1-.17,2-.55,2.88-.98.11-.06.14-.37.14-.56,0-.09-.18-.18-.2-.29-.03-.15-.06-.37.02-.47.08-.11.3-.17.45-.15.31.05.51.25.54.59.01.16.03.33.05.57.55-.2,1.04-.39,1.54-.56.32-.11.55-.3.59-.67.04-.36.28-.5.59-.55.26-.04.53-.07.78-.05.38.03.69-.08.98-.37-.14-.3-.79-.43-.31-.93.2.31.39.61.62.97.68-.61,1.75-.68,1.69-1.84.37-.08.54-.24.52-.5-.3.03-.61.07-1.04.11ZM24.95,102.24c.13-.98.21-1.03.95-.74.14.06.3.06.55.11-.3-.55-.56-.98-1.05-1.22-.1-.05-.25-.14-.25-.23-.05-.48-.33-.8-.6-1.18-.68-.97-1.27-2-1.86-3.03-.87-1.51-1.72-3.05-2.58-4.57-.23-.4-.5-.77-.74-1.16-.1-.16-.19-.33-.26-.51-.25-.66-.46-1.33-.72-1.98-.29-.72-.65-1.42-.95-2.13-.69-1.67-1.41-3.32-2.02-5.02-.24-.66-.62-.93-1.24-1-.6-.06-1.2-.09-1.8-.13-.12,0-.24,0-.36-.01-1.81-.27-3.61-.09-5.41.14-.15.02-.3.11-.5.2,2.23,6.63,5.7,12.48,10.1,17.87.2-.25.33-.42.52-.66.16.24.29.43.41.62-.22.17-.39.3-.6.46.6.84,1.08,1.72,2.18,1.86.18.44.16.95.62,1.18.16-.19.28-.39.45-.52.09-.07.31-.07.39,0,.07.07.08.27.04.39-.08.24-.22.47-.29.61.19.3.32.53.48.75.14.19.29.38.46.55.22.22.51.39.69.64.39.54.89.88,1.55.96.14.6.41,1.07,1,1.28.11.04.2.14.29.22.33.31.67.33,1.03.09-.27-.71-.27-.71.36-.98.3-.13.49-.3.38-.67-.03-.09.01-.2.02-.36.58.34.2.65.04.99.52.26.14.68.15,1.09.38.15.75.32,1.13.45.5.17.52.16.37.77.51.37,1.02.73,1.55,1.11.27-.68.62-.76,1.07-.34.15.14.34.26.54.31.38.1.5.4.52.7.04.56.01,1.13.01,1.78.12-.1.19-.16.26-.21.4-.31.9-.56,1.32-.22.49.4.97.33,1.53.29-.51-.45-.95-.91-1.46-1.26-.39-.27-.73-.5-.93-.96-.14-.33-.43-.55-.89-.44-.59.14-.69,0-.54-.59.03-.11.05-.23.1-.42-.53-.36-1.05-.72-1.58-1.08-.16.1-.28.18-.4.25-.27.16-.52.14-.69-.13-.14-.21,0-.44.34-.59.17-.07.33-.15.54-.24-.18-.54-.48-.89-.85-1.18-.29.08-.54.16-.87.26-.02-.26-.1-.49-.05-.67.21-.69-.2-1.09-.62-1.48-.08-.07-.26-.16-.32-.12-.49.3-.99-.15-1.54.11ZM71.82,120.53c-.05-.01-.11-.02-.16-.03-.06.1-.13.19-.17.3-.18.5-.4,1-.53,1.52-.81,3.09-.66,6.15.34,9.17.6,1.82,1.42,3.53,2.37,5.19,1.54,2.7,3.38,5.18,5.23,7.66.11.15.21.32.36.55.29-.34.47-.53.62-.74,1.26-1.76,2.57-3.49,3.75-5.31.96-1.49,1.8-3.07,2.62-4.65.74-1.43,1.27-2.96,1.6-4.55.59-2.89.49-5.73-.56-8.51-.1-.25-.22-.49-.34-.74.19,3.75.19,4-.17,5.8-.4,2.03-1.55,4.74-2.33,5.34.09-.26.14-.43.2-.6.42-1.12.86-2.23,1.25-3.36.84-2.47.83-4.97.32-7.52-.21-1.03-.84-1.43-1.76-1.74.03.2.04.34.07.48.64,3.32.15,6.47-1.42,9.45-.91,1.74-2.07,3.3-3.35,4.78-.12.14-.28.26-.4.38-.08-.03-.14-.04-.17-.07-.11-.1-.21-.2-.31-.31-1.35-1.55-2.55-3.19-3.48-5.04-1.45-2.89-1.92-5.92-1.3-9.11.03-.17.03-.35.04-.55-.96.3-1.56.79-1.75,1.8-.48,2.55-.49,5.05.36,7.52.38,1.11.82,2.19,1.22,3.29.06.17.11.35.16.52l-.14.06c-.46-.59-.75-1.27-1.06-1.95-1.28-2.88-1.73-5.88-1.12-9.02ZM79.28,130c.18-.21.3-.33.4-.47.83-1.15,1.53-2.37,2.06-3.69.81-2.05,1.04-4.17.63-6.33-.32-1.67-1.08-3.07-2.69-3.86-.27-.13-.46-.14-.74,0-1.53.74-2.32,2.05-2.65,3.64-.84,4.04.55,7.48,2.99,10.72ZM46.68,54.43c-.11,0-.2,0-.24-.03-.13-.1-.25-.22-.36-.34-.29-.3-.4-.29-.73-.07-.32.21-.35.54-.35.83-.02.57-.16,1.03-.79,1.35.46.25.82.45,1.17.64.06-.2.08-.57.23-.64.21-.1.53.02.88.06-.01-.16.03-.37-.04-.43-.13-.1-.37-.18-.49-.12-.28.13-.52.23-.83-.09.15-.25.3-.5.36-.61.64-.11,1.1-.18,1.55-.26.42-.84.41-.95-.15-1.12-.07.27-.13.55-.2.83ZM58.51,125.65c-.2.05-.35.08-.59.14.19-.4.33-.7.54-1.12-1.17.57-1.27.75-1.05,1.77.37.07.73.14,1.1.21v-1.01ZM100.12,126.62c.4-.05.76-.1,1.12-.15.11-1.12.02-1.29-1.03-1.73.16.38.28.69.44,1.07-.24-.05-.38-.09-.54-.12v.93ZM54.15,124.86c-.01.07-.02.14-.03.21.5.15.99.31,1.52.47.38-.39,1.14-.39,1.29-1.12-.26-.17-.48-.03-.63.15-.27.34-.59.34-.97.3-.39-.04-.79,0-1.18,0ZM121.51,112.84c-.18.17-.39.33-.55.53-.08.11-.08.29-.11.44.13.03.27.1.39.07.46-.11.92-.25,1.44-.4.03-.18.06-.39.09-.6-.37.61-.58.62-1.26-.04ZM35.94,113.47c.55.15,1.03.3,1.51.41.1.02.29-.03.31-.09.04-.12.03-.3-.04-.39-.16-.2-.38-.35-.52-.48-.43.19-.81.35-1.25.54ZM128.12,110.26c.19-.31.35-.58.54-.89-.05-.11-.1-.25-.17-.37-.03-.06-.07-.14-.12-.18-.2-.18-.56-.1-.58.15-.02.38.04.77.1,1.15,0,.06.14.1.22.15ZM30.56,110.29c.09-.18.2-.32.24-.47.04-.18-.02-.37.01-.55.05-.24.03-.45-.22-.53-.29-.09-.47.1-.52.35-.04.16-.01.37.05.52.09.21.25.4.44.69ZM61.24,123.36c.2-.14.42-.25.58-.41.08-.08.1-.27.07-.39-.02-.07-.2-.14-.29-.13-.37.04-.74.12-1.24.21.35.29.62.51.87.73ZM43.83,61.99c-.35-.55-.02-1.28-.76-1.52-.29.86-.16,1.17.76,1.52ZM97.39,123.31c.19-.28.66-.26.71-.71-.36-.06-.68-.14-1.01-.17-.13,0-.27.11-.41.17.06.14.1.31.2.41.11.11.28.17.51.29ZM58.92,124.6c.2.53.39,1.04.59,1.59.15-.13.24-.2.29-.25-.13-.55-.26-1.07-.38-1.6-.11.06-.27.14-.5.26ZM115.5,60.47c-.69.27-.36.95-.64,1.43.84-.19,1.05-.71.64-1.43ZM98.78,125.98c.15,0,.33.02.35-.02.2-.44.37-.9.57-1.39-.24-.06-.38-.1-.47-.13-.15.52-.29.98-.45,1.54ZM23.37,69.67c.32.11.56.19.8.28.2-.21.37-.39.55-.59-.13-.12-.23-.22-.34-.32-.33.21-.63.39-1.01.63ZM120.53,114.75c-.24-.23-.4-.6-.84-.53-.22.03-.48.04-.42.33.02.11.28.22.44.24.27.03.54-.02.82-.03ZM34.48,112.25c-.36.34-.56.12-.7-.17-.3.39-.13.58.17.73.2.1.4.3.69.08-.04-.17-.08-.35-.15-.64ZM135.15,69.62c-.35-.23-.63-.4-.91-.59-.14.13-.26.24-.39.36.25.2.47.38.69.56.2-.11.37-.2.61-.33ZM73.75,52.78c.53-.31.56-.84.88-1.32-.72.3-1.02.74-.88,1.32ZM39.42,114.5c-.57-.42-.83-.37-1.15.22.38-.07.79.28,1.15-.22ZM57.88,124.13c.38-.15.57-.4.78-1.04-.52.04-.79.4-.78,1.04ZM100.57,124.18c.06-.01.11-.03.17-.04.01-.1.07-.23.03-.31-.15-.26-.31-.52-.5-.75-.04-.05-.21,0-.45,0,.29.43.52.77.75,1.11ZM85.61,51.7c-.13.3-.26.6-.41.93.67.02.82-.27.41-.93ZM56.06,123.15c.74.65.79.64,1.28-.2-.42.07-.78.12-1.28.2ZM84.72,52.77l.17-.03c.02-.17.1-.36.04-.49-.16-.35-.58-.64-.9-.65.24.41.47.79.69,1.17ZM124.91,112.15c-.2.11-.35.26-.51.26-.41,0-.35.27-.41.52.76,0,1.02-.22.92-.77ZM73.05,51.66c-.47.23-.33.51-.26.74.06.2.19.41.56.2-.09-.28-.18-.58-.29-.94ZM131.68,78.84c-.06-.08-.14-.2-.22-.32-.11.11-.27.2-.31.32-.06.21-.18.55.15.6.37.07.25-.32.37-.61ZM101.24,122.94c.59.87.79.89,1.17.18-.36-.06-.7-.11-1.17-.18ZM132.23,107.19c.35.16.61.17.76-.17.02-.06-.09-.24-.17-.27-.33-.11-.47.1-.59.44ZM27.07,79.42c.34.09.46-.04.45-.31-.02-.23,0-.51-.3-.57-.07-.01-.22.13-.23.2,0,.21.05.42.08.68ZM93.81,124.13c.06,0,.11,0,.17,0,0-.21.02-.43-.01-.64-.01-.07-.18-.11-.27-.17-.06.11-.2.24-.17.33.05.17.19.31.29.47ZM26.41,107.18c-.16-.28-.28-.56-.65-.41-.07.03-.17.23-.13.29.18.31.44.3.78.13ZM64.57,124.16c.25-.21.41-.3.49-.44.04-.08-.06-.24-.1-.36-.11.06-.28.08-.33.18-.06.13-.04.31-.06.63ZM65.55,121.5c-.39.2-.65.33-.99.51.41.05.7.08,1.05.12-.02-.19-.03-.34-.06-.63ZM97.47,125.91c.23-.26.2-.48-.02-.59-.1-.05-.29.08-.61.18.32.21.48.31.63.41ZM66.4,124.26c.18-.24.23-.52.16-.84-.17.25-.41.44-.16.84ZM61.19,126.01c.15-.23.25-.38.36-.53-.11-.06-.26-.21-.33-.18-.29.11-.29.32-.02.71ZM65.94,126.4c-.33.07-.43.25-.29.55.12-.22.2-.39.29-.55ZM93.03,122.22c.28-.13.47-.21.71-.32-.63-.41-.68-.39-.71.32ZM91.6,121.83c.11.14.15.24.22.28.09.05.21.07.32.07.02,0,.08-.15.07-.17-.08-.07-.18-.14-.28-.18-.06-.03-.14,0-.33,0ZM40.57,115.86c.24.11.43.1.5-.18.02-.06-.07-.21-.12-.23-.31-.07-.32.18-.37.4ZM26.57,75.97c-.22.29-.13.51.25.64-.09-.24-.17-.42-.25-.64ZM54.78,123.33c.29.12.55.08.79-.13-.32.05-.5.08-.79.13ZM92.01,123.43c-.04.35-.11.59.17.83.26-.32.14-.52-.17-.83ZM92.78,126.31c-.08.29-.04.47.22.53.04,0,.14-.06.15-.11.07-.27-.07-.38-.37-.42ZM131.74,76.71c.41-.22.51-.46.31-.74-.09.22-.17.41-.31.74ZM117.83,115.41c-.06,0-.11,0-.16,0-.03.12-.13.3-.09.35.09.09.25.11.54.23-.15-.3-.22-.43-.29-.56ZM67.04,121.83c-.36,0-.59-.04-.67.31.35.19.42-.09.67-.31ZM45.18,64.74c.07,0,.13-.01.2-.02-.03-.19-.05-.37-.08-.56-.04,0-.08,0-.12.01v.56ZM103.65,123.49c0-.07.01-.14.02-.2-.19-.01-.38-.02-.57-.04v.18c.18.02.36.04.55.06ZM26.42,78.61c.01-.07.02-.14.03-.21-.18-.02-.36-.03-.54-.05,0,.06-.01.12-.02.18l.53.07ZM92.16,125.18s.08,0,.12.01c0-.13.01-.26.02-.39-.04,0-.08,0-.12,0,0,.13-.02.25-.03.38ZM113.28,64.69c.07,0,.14,0,.21,0-.01-.18-.02-.37-.03-.55-.05,0-.09,0-.14,0l-.04.55ZM130.96,108.68c.05-.11.1-.18.11-.26,0-.03-.14-.11-.15-.1-.06.06-.11.14-.15.22,0,.01.09.07.18.14ZM132.7,78.52c-.01-.06-.03-.12-.04-.19-.14.04-.28.08-.42.12.01.04.02.09.03.14.14-.02.28-.04.42-.06ZM64.55,127.46s-.05-.1-.07-.15c-.09.05-.18.1-.26.15,0,0,.05.11.06.11.09-.03.18-.07.28-.11ZM45.96,58.11c-.03.08-.07.16-.09.25,0,0,.1.06.11.06.05-.07.1-.15.14-.22-.04-.02-.08-.04-.16-.08ZM112.58,58.12s-.06.05-.1.08c.05.09.11.17.16.26.05-.04.1-.08.15-.12-.07-.07-.14-.15-.21-.22ZM28.03,108.45c-.15-.06-.24-.12-.32-.12-.06,0-.11.09-.17.14.06.06.12.13.19.16.03.01.09-.06.3-.19Z"/>
            <path class="cls-2" d="M22.53,70.87s.05.01.07.02c1.04.48,1.13.68.88,1.82-.03.14-.03.28-.05.44.32.17.85.02.83.63-.02.58-.53.36-.82.64-.02-.29-.03-.47-.04-.61-.31-.1-.58-.18-.84-.27-.37-.12-.6.08-.79.35-.27.39-.62.68-1.09.77-.24.04-.5,0-.75,0-.24-.8.52-.67.92-.92-.17-.26-.29-.4-.6-.27-.18.08-.43.11-.6.05-.28-.1-.43.02-.53.22-.12.23,0,.41.21.54.21.12.41.25.62.37.04.21.07.42.11.65-.06.03-.12.08-.18.08-.12-.01-.31-.03-.33-.1-.19-.54-.9-.27-1.12-.74-.16-.34-.34-.68-.51-1.03.29-.28.53-.51.91-.44.02,0,.05.02.07,0,.78-.43,1.6-.55,2.47-.32.21.06.41-.12.45-.38.23.07.43.11.36-.36-.15.17-.25.27-.34.38-.65-.11-.68-.14-.76-.98.34.07.65.13,1.01.21.13-.22.28-.47.43-.71,0,0,.02-.01.03-.03h0Z"/>
            <path class="cls-2" d="M67.74,42.14c-.23-.18-.45-.36-.68-.55-.18-.15-.24-.35-.05-.49.12-.09.36-.09.51-.04.21.07.38.27.59.35.5.2.86-.13,1.24-.39.06-.33-.13-.77.37-.91.29.31.26.75-.08,1.31.2.22.4.45.67.74-.18.05-.3.11-.42.11-.09,0-.17-.09-.26-.12-.45-.12-.87-.37-1.37-.1-.15.08-.38,0-.57,0,.01.02.02.05.03.07h0Z"/>
            <path class="cls-2" d="M104.22,132.84c-.49.06-.7-.05-.78-.37-.05-.25.02-.47.27-.5.14-.02.4.1.44.22.08.2.03.45.04.68l.03-.03Z"/>
            <path class="cls-2" d="M24.94,72.38c-.04.38-.25.53-.68.5.13-.45.37-.58.75-.48-.03,0-.05,0-.07-.02Z"/>
            <path class="cls-2" d="M74.34,46.63c.28.04.56.08.98.15.01.02.1.18.19.33-.16.19-.3.36-.44.51-.22.24-.47.43-.82.3-.02,0-.05-.02-.07-.02-.3.01-.62.1-.9.03-.28-.08-.5-.34-.77-.48-.36-.2-.42-.38-.16-.82.26.39.58.56,1.04.4.13-.05.32.08.48.11.38.08.48-.03.49-.51l-.02.02Z"/>
            <path class="cls-2" d="M86.3,46.65c.25.32.23.52-.08.73-.25.17-.51.34-.77.5-.04.03-.08.07-.12.07-.42,0-.85.06-1.26-.02-.23-.04-.42-.29-.62-.45-.11-.09-.21-.19-.34-.32.08-.16.16-.33.22-.47.23.02.42.03.61.04.04,0,.12-.02.12-.01.39.89,1.13.05,1.65.33.09.05.35-.24.59-.41h0Z"/>
            <path class="cls-2" d="M90.93,42.03c-.14.02-.32.11-.42.06-.64-.32-1.19-.04-1.76.19-.08.03-.18,0-.28,0-.2-.35.18-.47.27-.69.07-.16.21-.3.32-.45l-.02.02c.21.03.43.02.61.1.49.21.95.28,1.37-.15.2-.2.43-.25.61.01.16.24,0,.41-.18.54-.17.13-.35.24-.53.36,0,0,.02-.02.02-.02Z"/>
            <path class="cls-2" d="M87.53,44.13c.25-.03.46-.05.71-.07.07.14.14.29.26.52-.27-.02-.45-.04-.72-.06.1.23.17.37.23.52.13.33.01.95-.27,1.13-.1.07-.37.05-.43-.03-.16-.21-.33-.3-.59-.35-.27-.05-.3-.3-.11-.49.07-.07.15-.14.24-.17.47-.15.72-.46.68-.98h0Z"/>
            <path class="cls-2" d="M81.12,46.35c-.26-.08-.3-.29-.25-.57.05-.3.1-.59.44-.69.26-.08.47-.16.62-.44.12-.23.4-.21.56-.03.1.11.17.46.11.49-.53.36-.73,1.11-1.47,1.23h0Z"/>
            <path class="cls-2" d="M84.19,40.78c-.05-.34-.09-.69-.15-1.14.4.17.67.28.92.39.28-.25.54-.48.78-.69.5.14.44.51.55.93-.47.07-.89.13-1.37.2-.2.08-.47.19-.74.3h.01Z"/>
            <path class="cls-2" d="M71.03,44.91c.31.11.64.17.92.34.27.16.22.4-.07.54-.15.07-.33.09-.44.2-.16.16-.34.41-.51.19-.2-.24-.33-.59-.37-.91-.04-.29.21-.4.49-.36h0s0,0,0,0Z"/>
            <path class="cls-2" d="M84.7,46.41c-.05.13-.08.2-.13.33-.23-.18-.47-.34-.65-.55-.06-.07,0-.36.09-.43.15-.11.37-.16.56-.16.25,0,.5.11.75.16.23.04.42.13.41.41-.01.31-.2.43-.48.4-.18-.02-.35-.1-.56-.16h0Z"/>
            <path class="cls-2" d="M74.36,46.62c-.25-.14-.5-.29-.8-.07-.07.05-.19.04-.28.03-.25-.01-.45-.14-.41-.4.03-.15.19-.34.34-.39.28-.11.6-.14.89-.21.28-.07.5.06.6.29.05.13-.05.34-.12.5-.05.11-.16.18-.24.27,0,0,.02-.01.02-.01Z"/>
            <path class="cls-2" d="M73.6,40.06c-.12.18-.19.36-.24.36-.27-.03-.57-.06-.79-.2-.11-.07-.14-.38-.1-.57.05-.26.34-.35.56-.18.21.16.38.39.57.59Z"/>
            <path class="cls-2" d="M74.82,41.2c-.19.05-.37.1-.6.16-.04-.19-.03-.41-.13-.56-.5-.74-.5-.77.44-1.09-.02.27,0,.5-.06.72-.1.37,0,.61.34.78h.01Z"/>
            <path class="cls-2" d="M81.05,41.36c.35-.31.65-.61.99-.87.08-.06.25,0,.38.02-.02.15,0,.33-.07.43-.17.22-.41.38-.6.6-.23.26-.41.19-.7-.17h0Z"/>
            <path class="cls-2" d="M77.49,41.47c-.2.24-.37.32-.6.05-.18-.21-.4-.4-.62-.56-.16-.12-.26-.27-.1-.41.09-.08.34-.12.42-.05.31.29.58.61.91.97Z"/>
            <path class="cls-2" d="M67.69,39.14c.59.27.38.93.76,1.27-.35-.21-.87.1-1.12-.45.1-.23.22-.49.36-.82Z"/>
            <path class="cls-2" d="M74.8,41.21c.22.14.47.25.65.43.09.09.14.33.09.45-.05.11-.26.23-.39.22-.16-.02-.35-.15-.43-.28-.15-.26-.14-.56.08-.82,0,0,0,0,0,0Z"/>
            <path class="cls-2" d="M85.7,42.1c.71-.26.92-.25,1.01.08.08.28-.05.48-.28.59-.27.13-.57-.15-.73-.68Z"/>
            <path class="cls-2" d="M90.91,39.07c.16.36.27.62.38.88-.19.4-.45.48-.84.24-.03-.41.05-.76.46-1.12Z"/>
            <path class="cls-2" d="M83.95,41.27c-.03.26,0,.54-.1.77-.05.13-.28.23-.44.26-.1.02-.31-.11-.32-.2-.02-.16,0-.42.11-.5.22-.16.51-.22.77-.32,0,0-.02-.02-.02-.02Z"/>
            <path class="cls-2" d="M72.24,41.82c.2.09.39.18.57.27.13.43-.15.61-.44.69-.12.03-.35-.12-.43-.25-.2-.34.06-.51.31-.7h0Z"/>
            <path class="cls-2" d="M78.69,35.01c.48-.59.83-.57,1.18,0-.53.43-.54.43-1.18,0Z"/>
            <path class="cls-2" d="M65.06,38.33c.07.07.3.23.29.35-.03.25-.2.5-.51.51-.25.01-.41-.11-.41-.38,0-.3.19-.47.64-.48Z"/>
            <path class="cls-2" d="M93.2,38.6c.45-.33.76-.35.92-.06.11.2.15.41-.06.58-.26.21-.52.05-.87-.52Z"/>
            <path class="cls-2" d="M79.45,43.66c-.39.01-.61-.18-.59-.43.02-.25.18-.32.39-.33.31-.02.56.14.49.37-.05.17-.22.31-.29.4Z"/>
            <path class="cls-2" d="M76.57,43.39c.38.05.45.24.44.48,0,.24-.14.34-.37.34-.26,0-.44-.15-.38-.4.04-.17.22-.31.31-.43Z"/>
            <path class="cls-2" d="M82.52,43.86c-.25.17-.38.31-.53.34-.24.05-.42-.09-.41-.37.01-.23.1-.47.37-.41.17.04.3.23.56.44h0Z"/>
            <path class="cls-2" d="M79.26,35.9c.21.23.41.35.44.51.05.24-.14.4-.38.4-.25,0-.42-.15-.39-.4.02-.15.17-.27.34-.51Z"/>
            <path class="cls-2" d="M89.05,41.16c-.62-.36-.63-.45-.22-1.09.48.37.5.44.2,1.1,0,0,.02-.02.02-.02Z"/>
            <path class="cls-2" d="M71.34,46.6c.05.18.14.37.12.54-.01.14-.13.34-.24.37-.11.03-.31-.1-.38-.22-.2-.34-.02-.59.5-.69Z"/>
            <path class="cls-2" d="M83.37,35.82c-.27-.29-.46-.54-.07-.75.15-.08.39-.01.58-.01-.07.16-.12.33-.2.48-.06.1-.17.16-.31.28h0Z"/>
            <path class="cls-2" d="M72.42,47.65c-.28.67-.46.77-.78.51-.08-.07-.16-.2-.15-.29.01-.08.14-.2.23-.21.2-.03.4-.01.7-.01h0Z"/>
            <path class="cls-2" d="M87.25,46.55c.56.21.69.37.58.66-.08.21-.23.43-.47.29-.41-.24-.13-.57-.11-.94Z"/>
            <path class="cls-2" d="M72.37,36.7c.49,0,.7.12.68.39-.02.21-.13.37-.38.33-.27-.05-.37-.31-.3-.73Z"/>
            <path class="cls-2" d="M86.22,47.69c.21-.03.34-.08.43-.05.16.05.31.16.46.25-.09.12-.17.32-.28.35-.15.03-.34-.05-.48-.14-.07-.05-.07-.21-.14-.4Z"/>
            <path class="cls-2" d="M85.89,37.57c-.14-.24-.27-.36-.29-.5-.04-.24.21-.47.46-.41.12.02.3.25.28.3-.09.19-.25.35-.45.61Z"/>
            <path class="cls-2" d="M86.71,43.85c-.33-.1-.67.19-.78-.25-.03-.1.13-.34.23-.36.36-.08.51.13.55.62Z"/>
            <path class="cls-2" d="M81.36,35.51c-.28-.11-.59-.19-.45-.57.04-.1.36-.21.45-.15.33.2.2.46,0,.73Z"/>
            <path class="cls-2" d="M87.95,35.6c-.14.35-.32.53-.66.33-.09-.05-.16-.29-.12-.36.2-.33.46-.27.78.02Z"/>
            <path class="cls-2" d="M88.05,43.5c-.2-.22-.34-.37-.49-.53.14-.36.37-.41.62-.22.3.22.13.44-.13.75Z"/>
            <path class="cls-2" d="M70.56,43.53c-.17-.28-.26-.43-.38-.61.29-.21.52-.42.86-.02-.14.18-.27.35-.49.63Z"/>
            <path class="cls-2" d="M71.98,43.77c-.02-.43.13-.6.46-.55.23.03.34.21.25.43-.16.36-.43.15-.71.13h0Z"/>
            <path class="cls-2" d="M71.04,44.92c-.16-.35-.44-.44-.81-.33.08-.33.37-.5.87-.5-.02.28-.05.55-.07.83,0,0,.01,0,.01,0Z"/>
            <path class="cls-2" d="M89.66,38.37c-.31.31-.53.46-.76.19-.07-.08-.05-.37.03-.43.31-.23.43.12.73.24Z"/>
            <path class="cls-2" d="M75.22,35.78c-.2-.2-.36-.38-.54-.57.28-.32.53-.27.73-.08.24.22.1.42-.19.64Z"/>
            <path class="cls-2" d="M77.23,35.49c-.17-.27-.28-.51,0-.71.18-.13.39-.06.46.16.1.33-.11.47-.47.55Z"/>
            <path class="cls-2" d="M78.66,39.53c.15.25.28.4.33.58.02.06-.18.25-.28.25-.26,0-.37-.2-.34-.43.01-.11.14-.21.29-.4h0Z"/>
            <path class="cls-2" d="M79.48,40.11c.09-.11.16-.25.28-.31.12-.07.29-.06.43-.08,0,.15.04.31,0,.45-.03.09-.15.16-.26.26-.17-.12-.32-.23-.47-.33l.02.02h0Z"/>
            <path class="cls-2" d="M89.55,37.71c-.35-.13-.46-.32-.29-.56.07-.1.35-.19.4-.14.26.24.03.45-.11.71h0Z"/>
            <path class="cls-2" d="M72.65,38.06c.2.02.38,0,.52.05.1.04.14.2.21.31-.11.07-.22.2-.33.2-.26,0-.45-.14-.4-.56Z"/>
            <path class="cls-2" d="M82.41,38.5c-.38.26-.63.34-.83.03-.05-.08,0-.33.08-.37.34-.2.47.12.76.34Z"/>
            <path class="cls-2" d="M71.12,36.14c-.17-.2-.28-.33-.4-.47.12-.1.22-.26.36-.29.21-.06.4.07.38.31-.02.13-.17.24-.34.45h0Z"/>
            <path class="cls-2" d="M68.85,37c.44-.07.58.1.56.42,0,.09-.15.24-.21.23-.37-.05-.28-.35-.35-.65Z"/>
            <path class="cls-2" d="M86.09,38.06c-.16.25-.22.43-.34.49-.12.06-.3.02-.45-.01-.04,0-.1-.2-.06-.24.08-.09.21-.16.33-.2.1-.04.23-.02.52-.04Z"/>
            <path class="cls-2" d="M69.01,38.42c.26-.2.39-.5.7-.28.07.05.1.3.04.38-.21.28-.44.17-.74-.1Z"/>
            <path class="cls-2" d="M90.32,44.78c-.23-.04-.49.29-.68-.09-.12-.23-.16-.44.08-.64.21.25.4.49.6.74,0,0,0,0,0,0Z"/>
            <path class="cls-2" d="M76.19,38.37c.14-.07.28-.18.44-.21.13-.02.28.06.41.09-.06.14-.08.34-.17.39-.14.07-.33.02-.51.02-.06-.1-.11-.19-.17-.29h0Z"/>
            <path class="cls-2" d="M79.46,40.09c.05.21.09.41.16.7-.2.01-.38.03-.61.04,0-.4.23-.57.47-.73,0,0-.02-.02-.02-.02Z"/>
            <path class="cls-2" d="M78.9,31.64c.26-.21.52-.24.76-.07-.2.29-.43.21-.76.07Z"/>
            <path class="cls-2" d="M80.5,44.45c-.11-.13-.18-.21-.25-.29.12-.1.23-.22.36-.28.04-.02.16.12.24.19-.1.11-.21.23-.35.39Z"/>
            <path class="cls-2" d="M68.82,44.04c.32.5.29.64-.26.83.09-.29.17-.54.26-.83Z"/>
            <path class="cls-2" d="M77.85,43.89c.29-.06.48,0,.51.28,0,.06-.12.18-.18.18-.24,0-.42-.11-.33-.46h0Z"/>
            <path class="cls-2" d="M77.23,39.58c-.28.16-.41.27-.45.25-.1-.06-.18-.18-.23-.3-.01-.02.15-.18.23-.17.12.02.24.11.46.23Z"/>
            <path class="cls-2" d="M81.98,39.38c.13.21.1.38-.13.47-.05.02-.21-.07-.21-.13-.03-.24.1-.35.34-.34Z"/>
            <path class="cls-2" d="M90.25,43.03c-.11.09-.22.2-.24.18-.1-.08-.2-.17-.25-.29-.02-.04.13-.14.2-.22.09.1.17.19.29.33Z"/>
            <path class="cls-2" d="M82.63,42.73c-.09-.19-.18-.37-.28-.59.25.02.34.22.28.59Z"/>
            <path class="cls-2" d="M68.76,42.6c.03.09.11.19.09.26-.03.12-.12.23-.18.35-.07-.05-.2-.11-.19-.15.01-.12.08-.24.12-.37.05-.03.11-.06.16-.09Z"/>
            <path class="cls-2" d="M81.16,37.28c.13.15.23.24.29.35.02.03-.09.13-.14.2-.09-.08-.21-.16-.27-.26-.02-.04.06-.14.13-.29Z"/>
            <path class="cls-2" d="M77.83,37.45c-.32.23-.42.3-.52.37-.05-.07-.15-.18-.13-.2.06-.1.16-.21.26-.25.07-.03.18.04.38.09h0Z"/>
            <path class="cls-2" d="M90,32.05c.07.2.13.31.14.43,0,.06-.09.13-.13.19-.08-.08-.17-.15-.23-.24-.01-.02.06-.1.23-.38h0Z"/>
            <path class="cls-2" d="M68.65,32.27c.08.07.17.14.17.15-.07.1-.15.19-.22.28-.04-.05-.13-.11-.12-.14.04-.1.11-.18.18-.29Z"/>
            <path class="cls-2" d="M84.18,40.78c.12.17.24.34.42.61-.29-.05-.47-.08-.65-.11,0,0,.02.02.02.02.08-.17.15-.33.22-.5,0,0-.02-.01-.02-.01Z"/>
            <path class="cls-2" d="M76.35,42.07c-.15.22-.22.33-.31.46-.07-.23.03-.39.31-.46Z"/>
            <path class="cls-2" d="M89.77,35.43c.15-.07.3-.13.45-.2.02.06.07.17.07.17-.14.08-.29.14-.43.21-.03-.06-.05-.12-.08-.18Z"/>
            <path class="cls-2" d="M85.06,48.41c.12-.05.23-.1.35-.15.02.06.07.16.07.16-.11.06-.22.11-.34.17l-.08-.18Z"/>
            <path class="cls-2" d="M68.76,35.61c-.12-.05-.25-.09-.37-.15-.03-.02-.02-.12-.04-.26.14.05.25.06.33.11.07.04.12.13.18.2l-.1.1h0Z"/>
            <path class="cls-2" d="M74.64,24.99c-.09-.16-.15-.23-.16-.31,0-.05.09-.16.1-.15.08.03.18.08.2.14.02.06-.06.15-.15.31Z"/>
            <path class="cls-2" d="M83.99,25c-.09-.16-.17-.24-.16-.3.01-.06.11-.11.17-.16.04.05.12.1.11.15,0,.07-.06.15-.13.31Z"/>
            <path class="cls-2" d="M70.24,32.32c-.05-.13-.1-.2-.09-.25.02-.08.09-.14.14-.21.06.05.16.1.16.14,0,.07-.08.13-.22.32h0Z"/>
            <path class="cls-2" d="M69.39,45.3c-.09.08-.16.17-.19.16-.08-.02-.14-.09-.21-.14.04-.05.09-.14.13-.14.08,0,.15.06.27.12Z"/>
            <path class="cls-2" d="M89.29,45.18c.11.03.23.06.34.1-.02.04-.03.12-.05.12-.11,0-.23,0-.34-.01.02-.07.03-.13.05-.2Z"/>
            <path class="cls-2" d="M96.82,36.66c-.05-.13-.09-.2-.11-.28,0-.02.11-.08.14-.07.05.02.1.1.1.15,0,.04-.06.09-.14.19Z"/>
            <path class="cls-2" d="M61.95,36.38s-.09.08-.14.11c-.01,0-.09-.07-.08-.08.03-.05.08-.1.12-.14.03.03.06.06.11.11Z"/>
            <path class="cls-2" d="M63.04,34.89c-.07-.04-.11-.06-.15-.08.04-.08.08-.16.13-.23,0,0,.1.05.15.08-.04.08-.09.15-.13.23h0Z"/>
            <path class="cls-2" d="M70.5,34.68c-.11.04-.21.09-.22.08-.05-.06-.09-.15-.11-.23,0-.01.13-.09.16-.08.06.05.1.13.18.23h0Z"/>
            <path class="cls-2" d="M88.52,34.65c-.1.06-.17.12-.24.13-.03,0-.12-.12-.11-.14.04-.07.11-.13.19-.16.02,0,.08.09.16.18h0Z"/>
            <path class="cls-2" d="M73.28,48.09c.12.21.18.28.19.36,0,.03-.12.12-.13.11-.07-.05-.14-.12-.16-.2-.02-.05.04-.13.11-.28h0Z"/>
            <path class="cls-2" d="M95.55,34.46c.07.11.12.18.15.25,0,.02-.08.07-.12.11-.06-.07-.12-.13-.16-.2,0-.02.07-.08.13-.16h0Z"/>
            <path class="cls-2" d="M74.1,38.22c.09-.11.18-.23.32-.4.12.48-.18.34-.34.38l.02.02Z"/>
            <path class="cls-2" d="M84.53,37.13c-.06.04-.11.09-.18.12-.05.02-.12.01-.21-.07.12-.05.24-.09.35-.14,0,.03.02.06.03.09h0Z"/>
            <path class="cls-2" d="M88.25,31.79c.06.11.12.19.13.26,0,.03-.07.08-.11.12-.05-.06-.12-.12-.15-.2-.01-.03.07-.1.13-.19h0Z"/>
            <path class="cls-2" d="M80.46,41.47c-.05-.03-.11-.05-.11-.06,0-.04.02-.09.05-.11.02-.02.07,0,.11,0-.02.06-.03.11-.05.17Z"/>
            <path class="cls-2" d="M68.46,34.36c-.05.03-.11.07-.16.08,0,0-.07-.09-.06-.1.04-.05.09-.08.13-.11.02.04.05.07.09.13Z"/>
            <path class="cls-2" d="M74.08,38.2c0,.1.01.21.02.31-.08-.04-.16-.08-.24-.12.08-.06.16-.12.24-.18,0,0-.02-.02-.02-.02Z"/>
            <path class="cls-2" d="M84.42,38.24c.1.06.21.11.31.17-.03.03-.06.06-.1.09-.06-.09-.13-.19-.19-.28l-.02.02Z"/>
            <path class="cls-2" d="M71.97,44.46c.1-.07.17-.11.23-.15.03.05.09.11.08.15-.02.06-.08.12-.13.13-.03.01-.09-.06-.18-.13Z"/>
            <path class="cls-2" d="M86.6,44.48c-.08.03-.16.09-.18.07-.05-.04-.09-.12-.09-.18,0-.03.09-.07.14-.1.04.06.07.11.13.2Z"/>
            <path class="cls-2" d="M87.11,39.31c.06.08.12.13.13.18,0,.04-.07.08-.11.13-.04-.05-.11-.09-.13-.15,0-.04.06-.09.11-.16Z"/>
            <path class="cls-2" d="M93.85,35.14c-.06.04-.1.08-.16.09-.02,0-.06-.04-.1-.06.04-.04.08-.09.13-.11.02,0,.06.04.12.07h0Z"/>
            <path class="cls-2" d="M84.44,38.22s-.1,0-.13-.02c-.07-.05-.13-.11-.19-.17,0-.01.04-.07.06-.11.08.06.16.12.23.19.02.02,0,.09,0,.13l.02-.02h0Z"/>
            <path class="cls-2" d="M71.46,39.68c-.05-.07-.11-.13-.1-.16.01-.05.08-.09.13-.14.04.04.12.09.11.12,0,.06-.07.1-.14.18Z"/>
            <path class="cls-2" d="M116.53,54.11c-.06-.46-.14-.87.02-1.28.18-.49.34-.56.8-.37.26.11.53.18.74.24.31-.24.55-.43.85-.66.41.49.61,1.04.79,1.57.13.39-.24.69-.67.57-.39-.11-.78-.26-1.14-.45-.64-.34-.8-.32-1.21.29-.02.03-.08.04-.18.09Z"/>
            <path class="cls-2" d="M117.03,54.64c-.42.22-.71.42-1.04.52-.73.23-1.23-.24-.96-.96.15-.42.07-.74-.02-1.12-.07-.02-.14-.07-.2-.06-.23.03-.47.05-.49-.25-.01-.13.09-.33.2-.4.19-.12.42-.25.65,0,.17.19.37.35.57.52.22.18.28.56.13.85-.05.08-.13.15-.17.23-.03.06-.03.14-.05.24.42.13.84.26,1.39.44Z"/>
            <path class="cls-2" d="M114.86,51.47c-.06.06-.15.22-.28.27-.47.17-.93.32-1.2.83-.04.08-.39.11-.48.03-.1-.09-.17-.39-.09-.5.39-.59.91-1.03,1.62-1.17.25-.05.45.17.44.54Z"/>
            <path class="cls-2" d="M112.98,45.14c-.09.31-.09.7-.27.83-.27.19-.66.22-1.01.25-.1,0-.28-.2-.3-.33-.02-.12.09-.37.19-.39.29-.07.42-.25.59-.48.1-.13.37-.17.56-.17.08,0,.17.19.24.29Z"/>
            <path class="cls-2" d="M115.52,48.53c-.27.21-.42.36-.6.45-.12.06-.38.08-.4.03-.26-.55-.86-.38-1.26-.61.23-.7.53-.78,1.05-.41.31.22.7.32,1.21.54Z"/>
            <path class="cls-2" d="M115.47,50.13c-.26.09-.43.11-.55.21-.38.3-.68.11-.95-.14-.26-.24-.46-.53-.74-.86.18-.05.31-.11.43-.1.53.04.94.51,1.51.48.07,0,.16.21.3.42Z"/>
            <path class="cls-2" d="M111.11,47.41c.14.46.27.84.38,1.23.06.23-.15.77-.36.81-.19.04-.44,0-.61-.09-.22-.11-.12-.32-.03-.51.17-.36.46-.68.34-1.15-.02-.06.16-.18.28-.3Z"/>
            <path class="cls-2" d="M118.88,49.47c.67.12.7.88,1.22,1.14-.41.55-.55.57-.92.13-.18-.22-.34-.46-.5-.69-.18-.28-.04-.45.21-.58Z"/>
            <path class="cls-2" d="M116.02,47.11c-.39.56-1.02.22-1.57.49.07-.46.19-.78.54-.92.36-.14.71.02,1.03.44Z"/>
            <path class="cls-2" d="M112.73,51.11c-.03.13-.04.15-.04.18-.07.45-.43.82-.81.81-.25,0-.34-.15-.34-.38,0-.34.41-.82.79-.83.14,0,.29.16.4.23Z"/>
            <path class="cls-2" d="M109.67,46.15c.58.08,1.01.14,1.41.2.11.37.08.62-.26.6-.32-.02-.65-.12-.95-.23-.08-.03-.09-.25-.2-.57Z"/>
            <path class="cls-2" d="M115.73,42.93c-.07.61-.11,1.05-.18,1.65-.16-.23-.28-.33-.31-.46-.05-.2-.05-.42-.07-.63-.01-.16-.08-.39,0-.45.11-.1.32-.08.56-.12Z"/>
            <path class="cls-2" d="M118.97,41.88c-.02.45-.2.62-.52.6-.2-.01-.4-.06-.4-.32,0-.24.34-.58.59-.53.14.02.26.19.32.25Z"/>
            <path class="cls-2" d="M110.05,45.48c-.24.17-.38.33-.55.37-.24.05-.4-.2-.38-.49.02-.29.25-.56.43-.45.18.1.29.32.5.58h0Z"/>
            <path class="cls-2" d="M120.32,54.33c.09-.19.18-.38.28-.59.4.2.26.72.54,1.04-.62.26-.71.19-.79-.46l-.02.02Z"/>
            <path class="cls-2" d="M122.31,50.08c-.2.05-.4.13-.61.16-.12.02-.31,0-.37-.07-.07-.08-.1-.31-.04-.38.09-.11.3-.23.41-.2.23.07.44.23.66.36-.02.05-.04.09-.05.14Z"/>
            <path class="cls-2" d="M123.51,51.46c-.21.15-.31.28-.44.31-.15.03-.34.03-.46-.05-.08-.05-.12-.33-.06-.38.15-.13.35-.24.54-.25.11,0,.23.2.42.37Z"/>
            <path class="cls-2" d="M122.4,52.76c-.06.28-.2.5-.5.51-.09,0-.27-.17-.27-.26,0-.17.05-.42.17-.5.23-.14.45-.01.6.25Z"/>
            <path class="cls-2" d="M116.7,49.87c.31-.15.54-.34.63-.28.18.11.28.36.41.55-.12.08-.27.26-.35.23-.19-.07-.35-.24-.7-.5Z"/>
            <path class="cls-2" d="M119.34,55.35c-.23,0-.36-.16-.36-.41,0-.3.24-.31.45-.36.25-.05.35.1.38.31.03.24-.18.45-.47.46h0Z"/>
            <path class="cls-2" d="M115.56,51.41c-.01-.37.23-.53.72-.46.05.63.04.64-.72.46Z"/>
            <path class="cls-2" d="M116.39,50.5c-.23-.22-.45-.43-.7-.67.27-.22.51-.35.73-.12.19.19.22.47-.04.78Z"/>
            <path class="cls-2" d="M122.35,48.44c.02-.34.04-.62.06-.89.36,0,.53.14.53.39,0,.26-.12.47-.6.5Z"/>
            <path class="cls-2" d="M114.51,37.18c-.29.19.04.87-.63.79-.02-.62.03-.68.63-.79Z"/>
            <path class="cls-2" d="M117.84,46.05c-.33-.13-.6-.26-.44-.59.14-.29.4-.14.7-.01-.09.21-.17.4-.25.6Z"/>
            <path class="cls-2" d="M120.91,45.16c-.34-.19-.55-.31-.87-.49.35-.2.6-.28.82-.09.08.07.03.28.05.57Z"/>
            <path class="cls-2" d="M109.93,42.04c-.19.15-.34.33-.42.3-.15-.05-.33-.21-.36-.35-.04-.23.18-.34.37-.29.13.03.22.18.4.34Z"/>
            <path class="cls-2" d="M112.8,49.81c-.23.13-.37.27-.44.24-.15-.06-.25-.22-.37-.33.1-.08.22-.25.3-.24.15.03.28.17.51.33h0Z"/>
            <path class="cls-2" d="M118.47,55.96c-.11-.17-.24-.29-.23-.39.02-.1.17-.23.28-.24.07,0,.23.18.22.26,0,.11-.15.21-.28.37Z"/>
            <path class="cls-2" d="M117.77,46.71c.13.21.25.34.29.49.01.05-.22.25-.26.22-.14-.08-.27-.21-.34-.35-.02-.04.15-.18.31-.36Z"/>
            <path class="cls-2" d="M119.41,47.19c.13.17.24.24.25.33.03.25-.16.34-.36.32-.09,0-.24-.18-.23-.2.08-.14.19-.26.34-.45Z"/>
            <path class="cls-2" d="M111.35,42.11c-.12.36-.21.6-.3.87-.34-.25-.24-.54.3-.87Z"/>
            <path class="cls-2" d="M113.35,44.46c.27.27.42.42.56.57-.26.29-.47.2-.61.04-.07-.08.01-.28.04-.61h0Z"/>
            <path class="cls-2" d="M117.68,54.36c.1.15.21.31.2.32-.11.1-.24.2-.38.25-.04.01-.14-.14-.21-.22.11-.1.23-.2.38-.34Z"/>
            <path class="cls-2" d="M109.51,40.03c.37-.06.55.1.54.47-.17-.15-.33-.29-.54-.47Z"/>
            <path class="cls-2" d="M120.49,51.89c.09.11.19.2.18.24-.05.12-.15.21-.23.32-.08-.07-.23-.17-.22-.19.05-.12.15-.21.27-.36h0Z"/>
            <path class="cls-2" d="M116.96,41.26c-.11.09-.22.2-.23.19-.1-.08-.21-.17-.25-.29-.02-.04.13-.15.2-.22.08.09.17.19.28.31h0Z"/>
            <path class="cls-2" d="M123.35,52.63c-.13.09-.22.21-.3.2-.09,0-.16-.12-.24-.19.09-.09.16-.21.26-.25.04-.02.15.13.28.24Z"/>
            <path class="cls-2" d="M113.11,47.45c-.15.11-.27.21-.28.2-.11-.1-.2-.23-.29-.35,0,0,.12-.14.14-.13.13.07.25.16.44.28Z"/>
            <path class="cls-2" d="M111.76,43.75c-.05.07-.09.13-.13.18-.05-.06-.12-.11-.14-.17,0-.03.07-.12.12-.13.04,0,.09.07.15.12Z"/>
            <path class="cls-2" d="M122.83,42.91c.15.14.25.23.41.38-.37.07-.47-.01-.41-.38Z"/>
            <path class="cls-2" d="M116.43,47.15c.05-.11.1-.22.16-.34.04.02.08.04.13.06-.05.11-.1.23-.15.34-.04-.02-.09-.04-.13-.06Z"/>
            <path class="cls-2" d="M111.2,45.09c-.21.12-.27.16-.32.19-.02-.06-.05-.12-.05-.18,0-.03.06-.09.1-.09.07,0,.13.03.27.08Z"/>
            <path class="cls-2" d="M111.76,38.06c.14.01.23,0,.3.03.05.02.07.1.16.21-.15,0-.24,0-.31-.03-.05-.02-.07-.1-.15-.22h0Z"/>
            <path class="cls-2" d="M120.2,49.03c-.13-.16-.2-.26-.31-.41.2.04.3.18.31.41Z"/>
            <path class="cls-2" d="M112.86,42.24c.03.08.07.16.09.24,0,0-.1.06-.11.05-.05-.07-.09-.14-.14-.21.04-.02.08-.04.16-.07Z"/>
            <path class="cls-2" d="M118.31,45.8c.15-.01.29-.02.44-.03l-.02.14c-.14-.04-.28-.08-.41-.12h0Z"/>
            <path class="cls-2" d="M108.97,43.22c-.07.04-.12.07-.17.09-.03-.06-.08-.12-.07-.18,0-.04.09-.08.13-.11.03.06.06.11.11.2Z"/>
            <path class="cls-2" d="M113.08,35.78s-.04-.08-.06-.11c.04-.02.08-.06.12-.06.03,0,.06.03.09.05-.05.04-.1.08-.15.12Z"/>
            <path class="cls-2" d="M118.31,45.8c.02-.18.04-.36.06-.55.04,0,.09.02.13.03-.06.17-.12.35-.19.52,0,0,0,0,0,0Z"/>
            <path class="cls-2" d="M120.34,54.31c-.09-.03-.18-.06-.27-.09.02-.04.04-.08.06-.11.07.07.13.15.2.22,0,0,.02-.02.02-.02Z"/>
            <path class="cls-2" d="M126,44.85c-.09.05-.14.09-.19.1-.03,0-.08-.04-.11-.06.03-.05.06-.13.1-.14.05,0,.11.05.21.1h0Z"/>
            <path class="cls-2" d="M107.01,39.24c.07-.03.12-.06.18-.07.02,0,.05.06.07.1-.06.03-.11.06-.17.08-.02,0-.05-.06-.08-.11Z"/>
            <path class="cls-2" d="M39.65,52.01c.31.26.54.45.86.71.21-.08.52-.19.82-.31.35-.14.57-.07.68.28.14.44.27.89-.07,1.59-.06-.2-.08-.32-.14-.41-.25-.38-.57-.45-.96-.25-.38.19-.78.36-1.17.53-.26.11-.52.1-.72-.14-.19-.22-.12-.45,0-.68.22-.42.44-.83.71-1.32Z"/>
            <path class="cls-2" d="M45.91,52.32c-.08.11-.13.29-.24.32-.14.04-.4.01-.44-.07-.26-.51-.74-.65-1.21-.84-.28-.11-.33-.35-.21-.61.12-.26.32-.17.55-.13.66.1.97.66,1.42,1.04.06.06.08.17.13.29Z"/>
            <path class="cls-2" d="M45.45,49.32c-.49.51-.88.91-1.26,1.31-.36-.19-.65-.34-.97-.5.05-.32.13-.54.54-.48.13.02.29-.1.43-.15.35-.13.69-.31,1.25-.18Z"/>
            <path class="cls-2" d="M47.19,45.72c-.03.52-.11.6-.59.48-.07-.02-.13-.07-.2-.09-.66-.16-.65-.16-.71-.81-.02-.21-.03-.44.2-.46.18-.02.41.07.56.18.24.17.43.4.73.69h0Z"/>
            <path class="cls-2" d="M47.47,47.38c.15.08.19.09.19.11.11.53.25,1.05.53,1.53.05.08-.04.34-.11.36-.22.05-.49.11-.66.01-.16-.08-.32-.37-.3-.54.06-.48.21-.94.34-1.46Z"/>
            <path class="cls-2" d="M43.19,48.5c.29-.13.54-.24.79-.35.1-.05.23-.06.31-.13.55-.41.68-.38,1.09.38-.24.06-.46.1-.68.16-.11.03-.26.04-.3.11-.11.2-.21.39-.48.37-.31-.03-.52-.21-.73-.54Z"/>
            <path class="cls-2" d="M38.48,50.69c.51-.37.6-1.05,1.21-1.24.37.35.38.59.04,1.02-.55.7-.6.71-1.26.22Z"/>
            <path class="cls-2" d="M44.23,47.57c-.6-.2-1.2.09-1.59-.47.59-.74,1.14-.62,1.59.47Z"/>
            <path class="cls-2" d="M47.1,51.74c0,.24-.12.38-.4.36-.38-.03-.83-.5-.78-.89.02-.12.19-.3.31-.32.32-.06.84.48.86.86Z"/>
            <path class="cls-2" d="M48.81,46.14c.05.4.1.63-.27.67-.25.02-.5.14-.75.14-.11,0-.26-.16-.32-.29-.03-.06.12-.26.21-.29.35-.1.72-.15,1.14-.23h0Z"/>
            <path class="cls-2" d="M43.62,43.01c-.14.48-.43.77-.25,1.17.02.05-.18.21-.36.4-.05-.59-.08-1.05-.13-1.56h.73Z"/>
            <path class="cls-2" d="M40.55,42.29c-.1.05-.25.16-.41.18-.3.04-.48-.16-.49-.49,0-.23.08-.38.33-.37.28,0,.58.3.57.67h0Z"/>
            <path class="cls-2" d="M36.15,50.04c.46-.27.71-.69,1.14-.38.25.18.13.43-.11.65-.27-.07-.57-.14-1.03-.26Z"/>
            <path class="cls-2" d="M49.62,45.44c-.22.18-.36.38-.51.4-.29.04-.39-.2-.39-.48,0-.31.2-.57.39-.47.18.09.3.31.51.55Z"/>
            <path class="cls-2" d="M42.23,50.89c.25,0,.45-.03.63.01.11.03.25.18.25.28,0,.1-.12.26-.23.3-.4.16-.55.03-.66-.6Z"/>
            <path class="cls-2" d="M38.94,55.38c-.1-.25-.22-.5,0-.74.05-.02.1-.05.14-.05.25.03.59-.01.57.39-.03.46-.42.36-.71.4h0Z"/>
            <path class="cls-2" d="M37.99,53.88c.1.23.2.47.3.73-.1.11-.17.24-.29.31-.24.14-.46,0-.41-.26.05-.27.15-.53.23-.79.05,0,.11.01.16.02Z"/>
            <path class="cls-2" d="M35.18,51.47c.11-.14.19-.33.27-.34.19,0,.4.05.56.15.06.04.07.35.01.38-.14.08-.34.11-.5.09-.12-.02-.21-.16-.35-.28Z"/>
            <path class="cls-2" d="M41.07,50.62c-.08-.22-.13-.33-.16-.45-.05-.24.26-.66.47-.6.13.04.34.27.32.3-.13.2-.3.38-.64.75Z"/>
            <path class="cls-2" d="M49.67,41.94c-.25.2-.38.4-.51.4-.13,0-.29-.2-.35-.34-.03-.06.17-.31.27-.31.15,0,.31.12.59.25h0Z"/>
            <path class="cls-2" d="M36.66,52.29c.15.25.31.4.3.54,0,.15-.16.29-.25.44-.16-.16-.35-.29-.45-.48-.03-.06.2-.26.4-.5Z"/>
            <path class="cls-2" d="M36.17,47.48c.05.25.12.43.12.61,0,.11-.1.3-.18.32-.1.02-.26-.08-.33-.18-.2-.28-.13-.4.4-.75h0Z"/>
            <path class="cls-2" d="M42.21,50.46c-.2-.3-.17-.61.02-.75.16-.12.47-.06.75.06-.25.22-.49.45-.77.69Z"/>
            <path class="cls-2" d="M44.76,38.01c-.66,0-.33-.69-.73-.83.63.06.67.12.73.83Z"/>
            <path class="cls-2" d="M47.62,43.01c-.16-.3-.44-.48-.25-.83.45.26.53.54.25.83Z"/>
            <path class="cls-2" d="M37.8,45.09c-.04-.22-.06-.36-.09-.55h.75c-.05.38-.33.39-.66.55h0Z"/>
            <path class="cls-2" d="M40.86,46.15c-.13-.26-.25-.39-.26-.53-.02-.26.2-.32.4-.27.1.03.25.22.22.29-.05.16-.19.28-.36.51Z"/>
            <path class="cls-2" d="M46.25,50.2c-.14-.21-.28-.34-.25-.41.05-.13.18-.26.3-.32.05-.02.29.18.27.22-.05.15-.17.28-.32.5h0Z"/>
            <path class="cls-2" d="M41.3,47.11c-.22.15-.35.28-.5.31-.07.02-.19-.15-.28-.24.12-.12.22-.28.37-.35.05-.03.2.13.41.28h0Z"/>
            <path class="cls-2" d="M39.7,47.58c-.19.13-.31.28-.39.26-.13-.03-.24-.16-.36-.25.09-.09.18-.25.27-.24.14,0,.27.12.49.24h0Z"/>
            <path class="cls-2" d="M40.08,55.97c-.1-.2-.19-.33-.22-.47,0-.05.15-.13.23-.19.09.12.2.22.25.35.02.05-.12.16-.26.31h0Z"/>
            <path class="cls-2" d="M44.53,44.99c.23-.17.39-.3.67-.51.06.29.16.47.11.56-.12.2-.33.26-.78-.05Z"/>
            <path class="cls-2" d="M38.07,51.87c.15.15.27.25.35.37.02.03-.12.16-.18.24-.11-.1-.23-.2-.32-.32-.02-.03.07-.14.15-.29Z"/>
            <path class="cls-2" d="M35.59,52.26c.12.16.23.26.26.38.01.05-.16.21-.22.2-.11-.02-.21-.14-.31-.22.08-.1.16-.2.28-.36Z"/>
            <path class="cls-2" d="M48.55,40.68c-.03-.47.14-.7.52-.69-.17.22-.31.42-.52.69Z"/>
            <path class="cls-2" d="M41.44,54.7c-.17.12-.25.23-.34.24-.2.03-.4-.04-.38-.29,0-.07.17-.2.25-.19.14.02.27.13.48.24Z"/>
            <path class="cls-2" d="M41.9,41.59c-.09-.19-.2-.31-.17-.38.04-.11.17-.18.26-.27.05.07.15.16.14.22-.02.12-.11.22-.23.43Z"/>
            <path class="cls-2" d="M40.13,45.19c.29.36.17.57-.2.78.07-.28.12-.5.2-.78Z"/>
            <path class="cls-2" d="M45.92,47.1c.07.15.15.26.13.29-.07.1-.19.18-.29.26-.05-.07-.16-.17-.14-.21.06-.11.16-.2.3-.35Z"/>
            <path class="cls-2" d="M47.23,43.74c-.08.08-.13.15-.2.18-.02,0-.13-.09-.13-.12.02-.07.09-.14.13-.2.05.04.1.08.19.14h0Z"/>
            <path class="cls-2" d="M38.66,48.66l-.19.3s-.1-.08-.14-.12c.08-.09.15-.17.23-.26.03.03.07.06.1.08Z"/>
            <path class="cls-2" d="M49.93,42.87c-.04.22-.06.35-.11.58-.23-.28-.25-.42.11-.58Z"/>
            <path class="cls-2" d="M35.95,42.9c-.09.15-.18.31-.31.53-.17-.41.08-.46.31-.53Z"/>
            <path class="cls-2" d="M46.87,38.15c-.11.05-.23.11-.34.16-.02-.04-.04-.09-.06-.13l.34-.16.06.12Z"/>
            <path class="cls-2" d="M45.58,42.44c.09-.08.18-.15.27-.23.03.03.06.06.09.09-.08.09-.15.19-.23.28-.04-.04-.09-.09-.13-.13Z"/>
            <path class="cls-2" d="M50.8,41.93c-.03-.05-.06-.11-.09-.17.05-.02.13-.07.14-.06.04.04.06.11.08.17-.04.02-.08.03-.13.05Z"/>
            <path class="cls-2" d="M38.94,55.38c-.2-.04-.39-.07-.59-.11.26-.21.42-.03.59.11,0,0,0,0,0,0Z"/>
            <path class="cls-2" d="M47.66,45.02s.09.04.1.08c.01.04,0,.09-.02.13-.05-.03-.1-.05-.13-.09-.01-.02.03-.08.05-.12Z"/>
            <path class="cls-2" d="M34.69,46.7s-.06-.07-.09-.1c.05-.03.1-.06.15-.09.02.04.06.09.05.12-.01.03-.07.05-.11.07Z"/>
            <path class="cls-2" d="M45.61,35.77c-.09-.03-.18-.07-.28-.1,0-.03.02-.06.03-.09l.28.08s-.02.07-.03.1h0Z"/>
            <path class="cls-2" d="M40.72,50.98s-.07-.08-.11-.13c.03-.03.08-.08.1-.07.05.02.09.07.14.12-.04.02-.07.05-.13.09Z"/>
            <path class="cls-2" d="M51.68,39.31c-.08.01-.14.03-.2.02-.03,0-.06-.06-.11-.12.08,0,.14-.03.19-.02.04,0,.06.06.12.11Z"/>
            <path class="cls-2" d="M42.01,46.65c.08.2.12.26.12.33,0,.06-.04.12-.06.18-.05-.04-.12-.07-.14-.12-.02-.05.02-.12.08-.39h0Z"/>
            <path class="cls-2" d="M47.41,50.8s-.09.11-.14.12c-.03,0-.08-.05-.13-.09.05-.04.1-.09.15-.11.02,0,.07.04.12.07Z"/>
            <path class="cls-2" d="M22.86,64.77c.26.03.48.09.74-.13.32-.27.56-.2.81.1.31.38.2.72-.3.74-.55.03-.81.3-.97.91.22-.11.33-.18.45-.23.27-.12.49-.02.62.21.06.12.05.33,0,.46-.1.24-.32.29-.55.17-.5-.25-.95-.23-1.4.13-.13.1-.37.06-.59.09-.14.18-.29.39-.5.67-.11-.24-.16-.5-.27-.54-.74-.23-.58-.83-.57-1.36,0-.35.21-.47.53-.31.19.1.37.23.53.37.55.47.54.47,1.33.36-.33-.6.03-1.11.17-1.66l-.02.02h0Z"/>
            <path class="cls-2" d="M18.85,69.53c-.37.53-.35.61.1.98.03.34.03.64.08.93.05.31-.71,1.38-1,1.33-.15-.02-.28-.19-.55-.38.85-.22.69-.9.93-1.39-.2-.26-.42-.52-.6-.81-.36-.59-.29-.82.35-1.02.4-.12.83-.2,1.25-.22.14,0,.33.18.43.32.05.08,0,.33-.07.38-.14.08-.34.1-.51.08-.13-.01-.25-.12-.42-.21h0Z"/>
            <path class="cls-2" d="M22.76,56.73c-.11-.32-.16-.47-.23-.69.66-.05,1.08-1.1,1.91-.24-.12.1-.25.27-.32.25-.56-.15-.95.11-1.36.68Z"/>
            <path class="cls-2" d="M22.43,61.44c.2.17.4.34.65.56-.1.21-.21.44-.31.65-.84-.19-1.03-.4-.94-.96.16-.2.56.21.62-.25,0,0-.02,0-.02,0h0Z"/>
            <path class="cls-2" d="M18.3,67.61c.11.38.11.64-.26.83-.34.17-.48-.13-.69-.24-.07-.04-.11-.29-.06-.39.23-.41.61-.29,1.01-.2Z"/>
            <path class="cls-2" d="M18.5,65.79c-.11-.25-.24-.49-.31-.75-.03-.12,0-.32.08-.38.11-.09.31-.14.44-.11.37.09.46.56.19.85-.12.13-.26.25-.4.39Z"/>
            <path class="cls-2" d="M18.18,56.82c.52-.14.87-.25,1.23-.31.1-.02.3.08.31.16.03.11-.04.34-.12.37-.26.09-.55.15-.83.14-.15,0-.3-.17-.59-.35Z"/>
            <path class="cls-2" d="M20.21,61.95c-.28-.03-.5-.05-.73-.07.13-.48.44-.72,1.02-.72-.1.29-.2.54-.29.79Z"/>
            <path class="cls-2" d="M22.88,64.75c-.23.03-.46.07-.67.1-.06-.07-.12-.1-.12-.14-.04-.29-.11-.65.25-.73.4-.09.39.33.5.58.03.06.02.14.03.21,0,0,.02-.02.02-.02Z"/>
            <path class="cls-2" d="M21.19,64.53c-.24-.26-.53-.45-.3-.82.12-.19.47-.17.64,0,.19.19.12.37-.34.82h0Z"/>
            <path class="cls-2" d="M24.18,75.25c-.28.17-.41.31-.57.34-.22.03-.37-.12-.37-.35,0-.23.16-.38.37-.34.15.03.28.17.56.35h0Z"/>
            <path class="cls-2" d="M15.28,61.5c.24-.15.44-.27.69-.42.21.15.27.37.04.61-.21.21-.46.13-.73-.19Z"/>
            <path class="cls-2" d="M17.83,62.51c-.09.21-.17.39-.25.58-.32.02-.53-.1-.46-.4.1-.39.38-.34.71-.18Z"/>
            <path class="cls-2" d="M19.06,67.98c.24.03.47.05.71.08,0,.39-.17.56-.47.51-.31-.05-.33-.29-.23-.6h0Z"/>
            <path class="cls-2" d="M22.38,57.03c.24.06.44.1.63.14.08.32-.06.5-.31.48-.26-.02-.44-.2-.32-.63h0Z"/>
            <path class="cls-2" d="M22.7,58.81c-.19.08-.31.17-.43.17-.07,0-.13-.15-.19-.24.11-.07.21-.18.33-.19.07,0,.15.13.29.26h0Z"/>
            <path class="cls-2" d="M19.63,59.27c-.04-.18-.08-.36-.11-.54l.13-.09c.11.08.28.14.32.24.07.2,0,.38-.33.39Z"/>
            <path class="cls-2" d="M18.27,66.28c-.34-.02-.55-.07-.58-.37,0-.05.08-.14.13-.15.34-.05.36.21.44.52h0Z"/>
            <path class="cls-2" d="M20.09,55.42c.16-.47.28-.7.75-.41-.25.14-.44.24-.75.41Z"/>
            <path class="cls-2" d="M18.44,66.87c.15-.06.31-.13.56-.23-.07.45-.22.51-.47.43-.03-.06-.06-.13-.09-.19Z"/>
            <path class="cls-2" d="M16.86,60.67c.05-.17.11-.34.16-.51.06.03.17.07.17.09-.03.16-.08.32-.12.48-.07-.02-.14-.04-.2-.05h0Z"/>
            <path class="cls-2" d="M20.67,59.37c.08.01.18,0,.25.04.06.04.1.14.07.31-.13-.06-.26-.12-.39-.18.02-.06.05-.11.07-.17Z"/>
            <path class="cls-2" d="M20.7,62.57c-.09.11-.19.23-.33.4-.15-.37-.03-.47.19-.52.05.04.1.08.14.12Z"/>
            <path class="cls-2" d="M21.4,62.63h.34s0,.08.01.12c-.11.02-.23.04-.34.06,0-.06,0-.12-.01-.18h0Z"/>
            <path class="cls-2" d="M14.73,57.1l-.11-.37s.06-.02.09-.03c.04.12.09.24.13.37-.04.01-.07.03-.11.04Z"/>
            <path class="cls-2" d="M20.52,71.2c.04-.12.08-.24.12-.36.05.02.1.03.15.05-.04.13-.07.26-.11.38-.05-.02-.11-.04-.16-.06Z"/>
            <path class="cls-2" d="M15.92,65.44c-.09.05-.18.11-.28.16-.02-.02-.04-.04-.07-.07.04-.05.07-.12.12-.15.05-.03.12-.03.19-.04l.03.09Z"/>
            <path class="cls-2" d="M44.83,127.77c.1-.21.19-.41.3-.64-.23-.36-.55-.47-.97-.35.05-.14.07-.31.14-.34.48-.18.57-.59.67-1.02.03-.12.16-.22.29-.37.17.19.31.35.45.52-.18.32-.35.63-.55,1.01.53.07.95.53,1.51.17.04-.03.3.16.32.27.04.25,0,.52-.02.74-.39-.02-.72-.07-1.04-.05-.33.02-.65.12-.97.18-.04-.04-.09-.08-.13-.13Z"/>
            <path class="cls-2" d="M57.99,129.91v1.01c.05.01.19.04.33.07,0,.04.01.08.02.12-.36.07-.72.17-1.09.2-.13,0-.33-.13-.39-.26-.17-.36-.29-.75-.43-1.12-.02-.06.02-.14.04-.26.2-.02.4-.05.64-.08.14-.25.29-.51.44-.79.32-.02.59.09.64.37.04.22-.1.47-.17.7-.02.01-.03.03-.05.04Z"/>
            <path class="cls-2" d="M50.1,125.87c-.1-.18-.18-.38-.31-.53-.15-.18-.36-.31-.52-.49-.21-.24-.19-.59.03-.79.22-.21.43-.13.64.05.1.09.23.17.36.19.25.03.37.17.45.4.09.25.21.49.36.7.17.25.1.46-.07.66-.19.22-.39.1-.58,0-.12-.07-.25-.13-.37-.2h.01Z"/>
            <path class="cls-2" d="M55.92,129.84c-.65.53-.98.45-1.26-.3-.3-.01-.45.17-.61.41-.17.26-.44.26-.6.06-.18-.24-.06-.47.14-.55.47-.18.89-.66,1.5-.17.24.2.69.14.83.55h0Z"/>
            <path class="cls-2" d="M49.87,127.48c-.18.3-.19.6-.56.62-.1-.32-.17-.63-.3-.93-.07-.16-.2-.33-.35-.39-.28-.11-.51-.28-.44-.57.08-.34.41-.26.67-.24.04,0,.08.04.17.09.04.54.06,1.15.81,1.42Z"/>
            <path class="cls-2" d="M52.38,129c-.25-.19-.44-.32-.63-.46.07-.23.14-.44.19-.64.07-.3.22-.49.55-.42.27.06.47.48.34.77-.1.24-.26.45-.45.76Z"/>
            <path class="cls-2" d="M47.85,124.86c-.08.4-.13.74-.21,1.09-.06.26-.23.46-.5.42-.26-.04-.34-.28-.27-.51.1-.36.25-.71.4-1.12.2.04.4.09.58.12h0Z"/>
            <path class="cls-2" d="M52.18,129.56c.07.17.17.32.17.48,0,.12-.1.34-.17.35-.42.06-.85.15-1.24-.1-.07-.04-.12-.16-.12-.24,0-.08.13-.21.15-.21.37.2.56-.18.83-.25.11-.03.23-.02.38-.03Z"/>
            <path class="cls-2" d="M51.59,130.7c.3.16.56.27.79.43.09.07.18.25.16.35-.02.11-.2.27-.28.26-.29-.05-.64-.09-.84-.27-.23-.21-.01-.48.18-.77Z"/>
            <path class="cls-2" d="M45.63,132.07c-.22-.35-.37-.61-.54-.84-.15-.2-.21-.37.05-.57.3.22.62.42.9.65.23.19.21.43-.03.6-.13.09-.3.13-.39.16Z"/>
            <path class="cls-2" d="M55.21,130.86c-.14.24-.21.55-.62.43-.32-.09-.43-.33-.4-.61.02-.15.18-.39.31-.41.41-.08.59.23.71.59Z"/>
            <path class="cls-2" d="M49.03,131.74c-.32-.09-.66-.19-1.03-.29.93-.6,1.31-.69,1.78-.48-.32.13-.57.39-.75.77Z"/>
            <path class="cls-2" d="M49.45,129.67c.13-.1.23-.19.33-.27.17-.14.25-.52.54-.34.17.11.22.42.33.64-.41.14-.81.13-1.2-.03Z"/>
            <path class="cls-2" d="M40.65,127.59c0-.56.14-.66,1.04-.82-.17.68-.39.86-1.04.82Z"/>
            <path class="cls-2" d="M54.93,131.93c.07.1.23.24.27.42.05.27-.27.58-.54.56-.24-.02-.31-.18-.29-.41.03-.35.19-.57.56-.56Z"/>
            <path class="cls-2" d="M47.29,134.39c-.24.21-.5.27-.71.06-.09-.09-.06-.35,0-.5.03-.1.22-.24.31-.22.32.08.42.34.41.65h0Z"/>
            <path class="cls-2" d="M43.47,130.2c.22-.06.34-.09.45-.12.09-.03.17-.06.27-.11.11.19.21.35.34.57-.21.11-.39.2-.63.32-.14-.21-.27-.4-.44-.66h0Z"/>
            <path class="cls-2" d="M59.17,128.93c.04.57-.15.91-.64,1.13-.05-.54.17-.92.64-1.13Z"/>
            <path class="cls-2" d="M40.05,133.43c-.38-.02-.52-.18-.45-.43.04-.15.19-.33.33-.38.19-.06.4.26.34.52-.03.13-.17.23-.22.29Z"/>
            <path class="cls-2" d="M53.5,128.78c-.19-.26-.4-.45-.37-.52.09-.17.28-.27.44-.4.09.12.25.25.25.36,0,.15-.16.29-.32.56Z"/>
            <path class="cls-2" d="M44.4,134.13c-.21.16-.35.29-.51.38-.03.01-.22-.17-.23-.27-.01-.26.19-.37.42-.37.08,0,.16.12.32.26Z"/>
            <path class="cls-2" d="M55.49,130.31c.56.37.52.71.29,1.09-.61-.25-.02-.68-.29-1.09Z"/>
            <path class="cls-2" d="M50.38,126.9c.12-.12.22-.28.37-.33.18-.06.42-.02.41.25,0,.1-.2.22-.32.28-.09.04-.23-.01-.34-.02-.04-.06-.07-.11-.11-.17Z"/>
            <path class="cls-2" d="M50.09,125.86c-.15.21-.3.42-.45.63-.05-.04-.1-.07-.15-.11v-.79c.24.11.42.2.61.29,0,0,0-.01,0-.01Z"/>
            <path class="cls-2" d="M41.98,130.94c-.37.06-.42,0-.4-.45.12.14.29.33.4.45Z"/>
            <path class="cls-2" d="M47.72,129.55c.11.12.22.19.21.24-.03.11-.11.22-.16.32-.06-.06-.17-.12-.17-.19,0-.1.06-.2.12-.37Z"/>
            <path class="cls-2" d="M46.85,135.31h.76c-.3.35-.47.22-.76,0Z"/>
            <path class="cls-2" d="M41.5,134.43c.08-.31.12-.46.17-.63.17.17.12.38-.17.63Z"/>
            <path class="cls-2" d="M59.14,128.33c.12.05.23.1.34.17,0,0-.04.11-.07.16-.12-.05-.23-.1-.35-.15.03-.06.05-.12.08-.18Z"/>
            <path class="cls-2" d="M51.93,126.99c-.12.07-.22.16-.25.14-.06-.04-.11-.13-.13-.21,0-.03.1-.13.13-.12.07.03.13.1.25.19Z"/>
            <path class="cls-2" d="M41.99,128.35c-.07-.1-.13-.16-.12-.2,0-.05.06-.12.11-.15.03-.01.14.06.14.08-.02.08-.06.15-.12.27h0Z"/>
            <path class="cls-2" d="M53.75,131.21c-.06-.22-.1-.29-.09-.34.01-.05.09-.08.14-.12.02.06.07.12.07.18,0,.06-.05.12-.12.28Z"/>
            <path class="cls-2" d="M37.75,131.91c-.08-.07-.13-.11-.18-.15.08-.06.15-.13.24-.17.01,0,.11.1.1.13-.03.07-.1.13-.16.2Z"/>
            <path class="cls-2" d="M47.66,126.55c.11-.06.17-.11.23-.11.03,0,.08.09.09.14,0,.03-.05.11-.07.1-.06-.01-.1-.05-.25-.13Z"/>
            <path class="cls-2" d="M48.36,130.02s-.05.08-.08.11c-.03-.04-.07-.09-.1-.13.04-.03.07-.06.11-.08.02.03.05.07.07.1Z"/>
            <path class="cls-2" d="M38.63,136.28c-.04-.09-.07-.14-.07-.2,0-.03.07-.1.08-.1.05.03.1.07.15.11-.04.05-.08.1-.16.18Z"/>
            <path class="cls-2" d="M45.34,136.43c.02-.1.04-.2.07-.3.03,0,.06,0,.09,0,.02.07.05.13.04.2,0,.06-.06.11-.09.16-.04-.02-.07-.03-.11-.05Z"/>
            <path class="cls-2" d="M133.91,65.32c.07-.15.12-.32.21-.46.29-.44.48-.48.95-.19.36.22.48.19.69-.16.01-.02.02-.04.03-.07.12-.22.17-.6.52-.47.34.13.24.48.19.81-.21.02-.41.03-.61.04.06.52.11,1,.17,1.58.39.12.81.12,1.19-.37.18-.23.5-.35.72-.49.52.23.2.65.34.94.18.4-.15.53-.4.73-.17.13-.26.36-.39.55-.4,0-.31-.43-.53-.54-.28-.09-.57-.17-.84-.29-.32-.14-.61-.2-.96-.02-.23.12-.58.28-.75-.1-.07-.14-.05-.4.03-.52.25-.35.54-.22.81.01.01.01.05,0,.07,0,.03-.45-.19-.75-.61-.84-.28-.06-.56-.13-.84-.19,0,0,.02.02.02.02h0Z"/>
            <path class="cls-2" d="M140.17,71.07c.31.38.07,1.11.92,1.26-.2.21-.31.42-.43.44-.15.01-.35-.11-.47-.24-.23-.24-.41-.53-.6-.78.02-.39.04-.78.06-1.23.45-.37.46-.42.11-.95-.14.07-.28.17-.44.19-.15.02-.36.03-.45-.06-.09-.09-.15-.34-.09-.44.08-.14.3-.3.44-.29.47.05.93.14,1.39.27.39.11.49.35.28.73-.21.38-.47.72-.73,1.11h0Z"/>
            <path class="cls-2" d="M134.72,55.36c.43.23.85.45,1.35.72-.03.12-.08.3-.15.58-.33-.25-.57-.43-.89-.67-.22-.04-.63.31-.9-.23.2-.13.38-.26.58-.4Z"/>
            <path class="cls-2" d="M133.97,62.38c.24-.59.41-.68.81-.38.21.16.39.41.52.65.05.09-.05.39-.13.41-.15.04-.44-.02-.47-.11-.13-.36-.45-.43-.72-.57h0Z"/>
            <path class="cls-2" d="M140.33,67.59c.39-.04.8-.19.98.26.16.39-.25.46-.45.64-.42-.15-.6-.45-.54-.9Z"/>
            <path class="cls-2" d="M140.14,65.88c-.17-.2-.31-.34-.43-.5-.19-.23-.18-.61.07-.75.14-.08.37-.1.51-.03.1.04.16.29.14.43-.05.27-.17.52-.28.85h0Z"/>
            <path class="cls-2" d="M138.99,56.44c.45.12.83.22,1.29.34-.13.16-.2.34-.29.35-.28.03-.57.03-.83-.04-.3-.07-.3-.32-.17-.66Z"/>
            <path class="cls-2" d="M139.18,61.87c-.17,0-.27,0-.38,0-.12,0-.23.03-.37.04-.1-.22-.2-.44-.31-.69.09-.06.19-.16.24-.14.34.15.66.33.83.78Z"/>
            <path class="cls-2" d="M137.42,64.53c-.35-.23-.53-.46-.32-.8.12-.2.5-.21.62-.02.24.36-.06.55-.3.82Z"/>
            <path class="cls-2" d="M141.11,63.3c-.16-.37-.23-.54-.32-.76.13-.06.26-.16.33-.13.15.07.39.21.38.3-.02.16-.19.3-.39.58Z"/>
            <path class="cls-2" d="M135.55,57.27c.11-.06.19-.14.27-.14.15,0,.31.03.46.04-.04.13-.04.29-.12.37-.14.15-.34.21-.5,0-.05-.07-.07-.17-.11-.28Z"/>
            <path class="cls-2" d="M142.64,60.99c.33.39.35.4.72.45-.09.4-.36.42-.64.3-.33-.15-.23-.41-.08-.75Z"/>
            <path class="cls-2" d="M139.49,67.97c.15.32.13.54-.13.6-.26.07-.46-.06-.51-.45.21-.05.41-.1.65-.16h0Z"/>
            <path class="cls-2" d="M138.54,55.42c-.3-.13-.5-.22-.71-.32.24-.24.48-.14.71.32Z"/>
            <path class="cls-2" d="M136.31,59.08c-.12-.13-.27-.24-.25-.28.05-.11.16-.23.26-.26.06-.02.25.15.24.19-.03.11-.14.2-.25.35h0Z"/>
            <path class="cls-2" d="M139.02,59.36c-.4-.2-.47-.38-.31-.59.05-.06.2-.04.31-.06v.65Z"/>
            <path class="cls-2" d="M140.38,66.42c.13-.5.34-.64.63-.43-.18.12-.34.23-.63.43Z"/>
            <path class="cls-2" d="M137.33,62.68c-.29.17-.45.26-.69.4.1-.36.19-.56.69-.4Z"/>
            <path class="cls-2" d="M139.66,66.8c.19-.15.34-.12.44.1.02.04-.04.15-.08.16-.21.06-.36,0-.36-.26Z"/>
            <path class="cls-2" d="M141.51,60.67c-.03-.14-.07-.28-.09-.42,0-.01.15-.04.23-.06.03.15.07.3.1.45-.08.01-.16.02-.25.03Z"/>
            <path class="cls-2" d="M138.22,62.93c-.11-.12-.22-.24-.39-.43.42-.08.52.06.54.29-.05.05-.1.09-.15.14h0Z"/>
            <path class="cls-2" d="M137.58,59.58c.11-.08.22-.16.33-.25.03.03.07.07.1.1-.04.07-.06.16-.12.22-.04.04-.13.05-.19.07-.04-.05-.08-.09-.12-.14h0Z"/>
            <path class="cls-2" d="M143.97,56.77c-.05.11-.09.22-.14.33-.04-.01-.07-.03-.11-.04.04-.11.08-.23.12-.34.04.02.08.03.12.05h0Z"/>
            <path class="cls-2" d="M137.92,71.23c-.03-.12-.07-.25-.1-.37.04-.01.08-.03.12-.04.05.12.1.24.15.36-.06.02-.11.03-.17.05h0Z"/>
            <path class="cls-2" d="M142.8,65.34l.3.13s-.03.07-.04.11c-.11-.04-.21-.08-.32-.12.02-.04.04-.08.06-.12Z"/>
            <path class="cls-2" d="M113.44,126.57c-.18-.34-.35-.64-.52-.96.11-.16.24-.33.36-.5.54.16.41.65.53,1.04.27.12.6.2.59.61-.36-.08-.67.03-.94.33.1.22.21.45.35.76-.77-.05-1.44-.1-2.16-.15-.01-.13-.05-.3-.04-.46.03-.48.11-.51.59-.41.19.04.4,0,.6-.04.19-.04.36-.11.65-.21h0Z"/>
            <path class="cls-2" d="M100.31,131.01c.12-.02.25-.04.43-.07-.09-.33-.33-.63-.08-.96.03-.03-.05-.17-.1-.24-.34-.53-.28-.69.46-.98.14.25.3.52.46.8.05.01.11.04.18.05.6.11.62.17.36.67-.1.18-.16.4-.2.6-.07.33-.28.47-.57.44-.32-.03-.64-.14-.96-.21,0-.04.01-.07.02-.11Z"/>
            <path class="cls-2" d="M107.9,126.17c-.34,0-.58-.34-.46-.63.15-.35.33-.7.51-1.03.05-.09.19-.13.29-.19.16-.09.34-.14.48-.25.2-.15.43-.22.57-.01.12.18.12.44.14.67,0,.05-.08.11-.13.16-.33.37-.79.6-1.04,1.06-.07.12-.28.17-.37.22Z"/>
            <path class="cls-2" d="M103.94,129.53c-.26.76-.52.84-1.33.32.16-.15.28-.33.45-.43.26-.15.55-.25.83-.35.24-.09,1.25.32,1.32.57.04.12-.04.39-.12.42-.14.05-.42.03-.49-.07-.18-.24-.32-.48-.66-.47Z"/>
            <path class="cls-2" d="M108.84,127.48c.58-.29.73-.8.68-1.39.09-.05.15-.12.21-.12.26-.01.59-.1.66.26.06.31-.18.44-.45.56-.53.23-.46.78-.55,1.28-.45.08-.46-.26-.54-.58Z"/>
            <path class="cls-2" d="M110.75,124.82c.19-.02.37-.03.54-.05.12.22.23.4.32.59.07.15.14.31.17.48.05.25-.04.44-.29.52-.19.06-.46-.16-.51-.41-.07-.35-.14-.69-.23-1.13Z"/>
            <path class="cls-2" d="M105.65,128.16c.16-.27.15-.71.61-.7.49.02.34.5.5.76.04.06.05.13.09.26-.15.14-.32.3-.53.49-.25-.3-.47-.57-.68-.84l.02.02Z"/>
            <path class="cls-2" d="M107.88,129.86c-.16.24-.22.44-.32.46-.34.07-.7.11-1.05.09-.2-.01-.31-.21-.23-.45.1-.31.31-.44.61-.34.15.05.28.18.44.23.12.04.27,0,.56,0Z"/>
            <path class="cls-2" d="M107.13,130.62c.05.34.2.68.1.81-.15.19-.48.27-.75.32-.11.02-.33-.14-.36-.26-.03-.1.09-.31.2-.39.2-.16.45-.27.82-.47h0Z"/>
            <path class="cls-2" d="M103.4,131.21c.07-.25.08-.53.22-.72.1-.14.36-.21.55-.2.11,0,.31.24.29.34-.03.21-.14.5-.3.58-.21.1-.5.01-.76,0h0Z"/>
            <path class="cls-2" d="M113.07,132.11c-.2-.09-.37-.13-.49-.22-.22-.17-.21-.42,0-.6.18-.15.41-.25.56-.42.15-.17.28-.31.45-.1.06.08.01.32-.07.43-.17.25-.4.63-.46.92Z"/>
            <path class="cls-2" d="M109.55,131.77c-.16-.43-.41-.66-.74-.71.34-.37,1.04-.22,1.7.4-.33.11-.63.2-.96.31Z"/>
            <path class="cls-2" d="M117.99,127.61c-.72.16-.89-.37-1.18-.78.67-.1,1.1.18,1.18.78Z"/>
            <path class="cls-2" d="M109.2,129.7c-.41.19-.76.24-1.15.04.02-.12.02-.24.06-.35.16-.46.27-.48.6-.15.14.14.3.28.49.46Z"/>
            <path class="cls-2" d="M99.5,128.74c.45.28.73.65.62,1.23-.67-.22-.82-.56-.6-1.25l-.02.02Z"/>
            <path class="cls-2" d="M111.33,134.42c.12-.56.31-.81.49-.67.16.13.33.44.27.58-.14.34-.45.26-.77.08h0Z"/>
            <path class="cls-2" d="M118.37,133.4c0-.14-.03-.26-.01-.37.03-.23.11-.46.39-.4.12.03.25.22.27.36.05.24-.06.43-.34.44-.09,0-.18-.02-.31-.04Z"/>
            <path class="cls-2" d="M105.63,128.14c-.09.13-.16.31-.29.38-.12.06-.39.06-.43,0-.08-.13-.05-.34-.07-.52.15-.01.3-.06.44-.03.13.03.25.13.37.2,0,0-.02-.02-.02-.02Z"/>
            <path class="cls-2" d="M115.16,130.18c-.17.26-.29.43-.4.6-.4-.15-.52-.41-.36-.77.21.05.43.1.76.17h0Z"/>
            <path class="cls-2" d="M103.4,131.21c-.17.04-.34.08-.52.13-.21-.32-.19-.6.06-.85.15.24.31.49.46.73,0,0,0,0,0,0Z"/>
            <path class="cls-2" d="M98.06,129.16c.15-.15.3-.3.45-.46.06.07.16.14.16.21,0,.13-.12.27-.09.38.02.09.18.15.33.26-.53.23-.58-.28-.84-.4Z"/>
            <path class="cls-2" d="M114.61,133.71c.17.25.3.39.37.56.02.04-.23.25-.26.23-.14-.1-.27-.22-.34-.37-.03-.06.11-.2.23-.42h0Z"/>
            <path class="cls-2" d="M108.25,126.98c-.2.06-.31.13-.41.11-.14-.02-.28-.1-.41-.18-.03-.02,0-.22.05-.24.14-.06.32-.12.45-.08.11.04.18.22.31.39Z"/>
            <path class="cls-2" d="M117.03,130.37c0,.59-.04.63-.61.53.21-.18.41-.35.61-.53Z"/>
            <path class="cls-2" d="M108.78,126.14c-.1-.33,0-.47.35-.46.03.28-.08.4-.35.46Z"/>
            <path class="cls-2" d="M111.63,135.48h-.51c0-.06,0-.12,0-.18.17-.01.34-.02.51-.03v.21Z"/>
            <path class="cls-2" d="M116.88,134.29c-.05-.12-.1-.25-.14-.38,0-.01.11-.06.17-.09.05.13.1.26.14.39-.06.02-.12.05-.18.07Z"/>
            <path class="cls-2" d="M110.89,129.48c.1.22.21.44-.07.65-.34-.28-.1-.46.07-.65h0Z"/>
            <path class="cls-2" d="M121.18,131.67c-.16.17-.23.26-.36.4-.07-.18-.11-.3-.19-.52.2.04.32.07.56.12Z"/>
            <path class="cls-2" d="M99.52,128.72c-.11-.03-.23-.05-.45-.1.15-.13.24-.29.32-.27.27.04.13.24.11.4,0,0,.02-.02.02-.02h0Z"/>
            <path class="cls-2" d="M113.16,136.47c-.04-.09-.08-.18-.12-.27.05-.02.11-.04.16-.06.02.1.05.19.07.29-.04.01-.08.03-.12.04h0Z"/>
            <path class="cls-2" d="M112.68,129.98c-.07-.13-.15-.25-.22-.38.02-.01.04-.03.06-.04.09.12.18.24.27.36-.04.02-.07.04-.11.06Z"/>
            <path class="cls-2" d="M110.86,126.6c-.07.03-.14.09-.18.07-.04-.02-.08-.11-.08-.16,0-.04.08-.07.13-.1.04.05.07.11.12.19Z"/>
            <path class="cls-2" d="M104.87,130.58c.07.18.11.24.12.31,0,.06-.05.12-.07.18-.05-.04-.12-.07-.14-.11-.02-.05.03-.12.09-.37h0Z"/>
            <path class="cls-2" d="M110.89,129.48c.17.02.34.05.56.08-.29.24-.4-.03-.57-.08,0,0,0,0,0,0Z"/>
            <path class="cls-2" d="M106.86,126.88c.07.03.15.04.15.06,0,.06-.03.12-.05.18-.04-.02-.12-.03-.12-.05,0-.06.01-.13.02-.2Z"/>
            <path class="cls-2" d="M114.76,133.44c-.08,0-.16,0-.24,0,0,0,0-.1,0-.16.08,0,.17.01.25.02,0,.05,0,.1-.01.15Z"/>
            <path class="cls-2" d="M116.56,127.94c.08.07.15.1.16.15,0,.03-.06.1-.1.13-.01,0-.09-.04-.1-.07,0-.05.02-.11.04-.21h0Z"/>
            <path class="cls-2" d="M119.98,135.93c.04.09.07.15.1.2-.06.02-.11.06-.17.06-.03,0-.09-.08-.08-.1.03-.06.08-.1.15-.17Z"/>
            <path class="cls-2" d="M135.22,101.73c-.03.33-.03.6-.09.86-.08.38.2.48.43.67.35.29.26.58-.19.73-.65.22-.83.08-.8-.62.02-.45.05-.89.09-1.33.03-.35.12-.4.56-.31Z"/>
            <path class="cls-2" d="M134.07,104.79c-.09.07-.23.26-.39.27-.27.03-.41-.2-.45-.46-.04-.26.09-.41.34-.44.25-.03.47.2.5.63Z"/>
            <path class="cls-2" d="M138.85,101.6c-.43-.2-.49-.58-.54-.98.38-.22.58.02.84.21-.11.27-.22.53-.32.79,0,0,.02-.02.02-.02Z"/>
            <path class="cls-2" d="M132.06,103.78c-.19-.26-.36-.39-.36-.53,0-.11.2-.34.28-.33.15.02.35.17.39.3.03.11-.14.28-.3.56Z"/>
            <path class="cls-2" d="M135.28,98.98c.19.22.35.32.37.44.04.22-.05.46-.31.45-.1,0-.27-.19-.28-.31-.01-.15.11-.31.22-.59Z"/>
            <path class="cls-2" d="M143.36,92.04c.17.16.36.26.37.37,0,.11-.17.23-.27.34-.11-.11-.25-.2-.3-.33-.03-.07.11-.2.21-.38Z"/>
            <path class="cls-2" d="M140.2,98.38c-.18.03-.36.05-.52.07-.04-.07-.09-.14-.08-.15.11-.13.21-.28.34-.37.07-.05.15.08.25.44Z"/>
            <path class="cls-2" d="M137.11,100.19c-.1-.26-.21-.42-.18-.53.03-.11.22-.17.34-.26.07.11.2.23.18.32-.03.13-.16.24-.34.47h0Z"/>
            <path class="cls-2" d="M148.06,84.58c.05.15.1.29.15.43-.25.2-.46.17-.55-.07-.04-.1.13-.28.21-.42.06.02.13.04.19.06Z"/>
            <path class="cls-2" d="M136.46,98.19c.17-.04.35-.08.61-.14-.14.49-.38.36-.56.41-.02-.09-.03-.18-.05-.28Z"/>
            <path class="cls-2" d="M141.27,98.05c-.17.11-.34.22-.53.34-.01-.31.16-.43.53-.34Z"/>
            <path class="cls-2" d="M138.03,99.61c.02-.43.2-.55.64-.34-.26.14-.45.24-.64.34Z"/>
            <path class="cls-2" d="M131.13,104.93c.16-.01.32-.02.48-.03,0,.07.02.14.03.2-.16.03-.31.06-.47.09-.01-.09-.02-.17-.04-.26Z"/>
            <path class="cls-2" d="M132.06,104.6c.06-.16.12-.31.22-.57.25.36.11.49-.04.63-.06-.02-.12-.04-.18-.06h0Z"/>
            <path class="cls-2" d="M140.34,95.25c-.08-.13-.17-.24-.15-.28.06-.1.17-.19.27-.25.02-.01.18.16.17.18-.06.11-.16.2-.29.35Z"/>
            <path class="cls-2" d="M136.63,101.57l.02.3s-.06,0-.09,0c0-.1-.02-.2-.02-.29.03,0,.06,0,.09-.01Z"/>
            <path class="cls-2" d="M142.48,93.64s-.08.09-.1.08c-.05-.03-.09-.08-.14-.12.04-.02.09-.05.13-.05.04,0,.07.05.11.08Z"/>
            <path class="cls-2" d="M137.27,95.7s-.07.09-.1.09c-.04,0-.09-.02-.11-.05-.01-.01.03-.09.03-.09.06.01.11.04.18.06Z"/>
            <path class="cls-2" d="M23.87,104.12c-.4-.11-.81-.04-1.09-.51.49-.51,1.09-1.03.56-1.86.35-.21.59-.14.63.19.07.56.07,1.13.08,1.69,0,.15-.1.3-.17.48h0Z"/>
            <path class="cls-2" d="M25.4,104.46c0,.37-.25.65-.48.62-.24-.03-.42-.17-.37-.43.04-.24.13-.48.44-.49.25,0,.4.12.42.3h0Z"/>
            <path class="cls-2" d="M23.69,99.5c-.19.18-.28.36-.4.37-.27.03-.38-.2-.35-.42.02-.12.21-.3.31-.29.13.01.25.18.44.34Z"/>
            <path class="cls-2" d="M26.61,103.75c-.16-.24-.32-.38-.33-.51,0-.11.18-.23.27-.34.12.12.29.22.33.36.03.09-.13.24-.28.49Z"/>
            <path class="cls-2" d="M21.47,100.21c-.16-.25-.31-.38-.3-.5,0-.12.18-.22.28-.32.09.1.25.19.25.29,0,.13-.11.27-.24.53Z"/>
            <path class="cls-2" d="M19.1,98.44h-.88c.18-.24.3-.4.49-.65.15.25.24.4.39.65Z"/>
            <path class="cls-2" d="M15.63,92.39c-.19.17-.32.28-.45.39-.1-.12-.2-.23-.3-.35.11-.1.22-.24.35-.28.08-.02.21.11.4.23Z"/>
            <path class="cls-2" d="M10.74,84.55c.07.14.15.28.22.41-.14.05-.28.09-.42.14-.02-.16-.04-.32-.05-.48.08-.03.17-.05.25-.08h0Z"/>
            <path class="cls-2" d="M17.33,98.07c.34-.11.55,0,.63.35-.25-.14-.44-.24-.63-.35Z"/>
            <path class="cls-2" d="M22.1,98.38h-.53c.14-.16.32-.16.53,0Z"/>
            <path class="cls-2" d="M17.91,94.87c.22-.2.4-.23.51.01.03.06-.01.23-.06.25-.22.1-.36-.03-.45-.27Z"/>
            <path class="cls-2" d="M20.73,99.71c-.32-.18-.5-.28-.71-.39.28-.14.52,0,.71.39Z"/>
            <path class="cls-2" d="M21.4,95.64s.08.03.13.05c-.02.04-.05.1-.07.1-.06,0-.11-.04-.16-.07.03-.03.07-.05.1-.08Z"/>
            <path class="cls-2" d="M27.22,104.82c.08.08.15.14.21.2-.04.05-.1.14-.13.13-.08-.02-.15-.09-.22-.14.04-.05.08-.1.14-.19Z"/>
            <path class="cls-2" d="M22.23,101.45c-.06.11-.11.22-.17.33-.02,0-.04-.01-.05-.02.03-.12.07-.23.1-.35.04.01.08.02.12.04Z"/>
            <path class="cls-2" d="M14.88,93.55c.07.04.13.08.2.12-.01.02-.02.05-.03.07-.07-.04-.14-.07-.2-.11.01-.03.03-.05.04-.08Z"/>
            <path class="cls-2" d="M135.54,75.26c-.27.17-.41.31-.56.33-.22.04-.36-.12-.36-.35,0-.23.15-.38.37-.34.15.03.28.17.55.35Z"/>
            <path class="cls-2" d="M133.61,72.52c.37-.04.6.07.7.33-.3.13-.4-.11-.7-.33Z"/>
        </g>
    </g>
    <g>
        <path class="cls-2" d="M186.3,24.34v28.56h9.46v5.04h-14.98V24.34h5.52Z"/>
        <path class="cls-2" d="M198.88,24.34h14.06v5.33h-8.54v8.78h7.44v5.04h-7.44v9.12h8.69v5.33h-14.21V24.34Z"/>
        <path class="cls-2" d="M186.3,67.54v28.56h9.46v5.04h-14.98v-33.6h5.52Z"/>
        <path class="cls-2" d="M203.82,101.17c-1.02-.3-1.97-.81-2.83-1.51-.45-.35-.85-.75-1.2-1.2-.35-.45-.66-.96-.91-1.54-.26-.58-.46-1.22-.6-1.92s-.22-1.47-.22-2.3v-16.7c0-.83.07-1.6.22-2.3.14-.7.34-1.34.6-1.92.26-.58.56-1.09.91-1.54.35-.45.75-.85,1.2-1.2.86-.7,1.81-1.21,2.83-1.51,1.02-.3,2.03-.46,3.02-.46s2,.15,3.02.46c1.02.3,1.97.81,2.83,1.51.45.35.85.75,1.2,1.2.35.45.66.96.91,1.54.26.58.46,1.22.6,1.92.14.7.22,1.47.22,2.3v16.7c0,.83-.07,1.6-.22,2.3-.14.7-.34,1.34-.6,1.92-.26.58-.56,1.09-.91,1.54-.35.45-.75.85-1.2,1.2-.86.7-1.81,1.21-2.83,1.51-1.02.3-2.03.46-3.02.46s-2-.15-3.02-.46ZM208.14,95.98c.38-.14.74-.38,1.06-.7.29-.29.51-.65.67-1.08.16-.43.24-.94.24-1.51v-16.7c0-.58-.08-1.08-.24-1.51s-.38-.81-.67-1.13c-.32-.29-.67-.5-1.06-.65-.38-.14-.82-.22-1.3-.22s-.91.07-1.3.22c-.38.14-.74.36-1.06.65-.29.32-.51.7-.67,1.13-.16.43-.24.94-.24,1.51v16.7c0,.58.08,1.08.24,1.51.16.43.38.79.67,1.08.32.32.67.55,1.06.7.38.14.82.22,1.3.22s.91-.07,1.3-.22Z"/>
        <path class="cls-2" d="M234.49,67.54v5.33h-5.76v28.27h-5.52v-28.27h-5.76v-5.33h17.04Z"/>
        <path class="cls-2" d="M243.37,67.54v25.44c0,1.02.25,1.82.74,2.38.5.56,1.19.84,2.09.84s1.59-.28,2.09-.84c.5-.56.74-1.35.74-2.38v-25.44h5.52v24.77c0,1.89-.26,3.43-.77,4.63-.51,1.2-1.18,2.15-1.99,2.86s-1.71,1.18-2.69,1.44c-.98.26-1.94.38-2.9.38s-1.93-.13-2.9-.38c-.98-.26-1.87-.74-2.69-1.44s-1.48-1.66-1.99-2.86c-.51-1.2-.77-2.74-.77-4.63v-24.77h5.52Z"/>
        <path class="cls-2" d="M270.44,76.13c0-.48-.04-.94-.12-1.37-.08-.43-.23-.82-.46-1.18-.22-.35-.52-.62-.89-.82-.37-.19-.84-.29-1.42-.29-.48,0-.89.08-1.22.24s-.63.38-.89.67c-.26.35-.45.77-.58,1.25-.13.48-.19,1.02-.19,1.63s.03,1.13.1,1.56c.06.43.18.82.34,1.18.19.38.46.7.82.96.35.26.83.51,1.44.77l2.83,1.06c1.18.45,2.17.94,2.95,1.49.78.54,1.4,1.2,1.85,1.97.38.67.66,1.45.84,2.33.18.88.26,1.9.26,3.05v1.39c0,1.5-.18,2.87-.53,4.1s-.93,2.26-1.73,3.1c-.7.77-1.58,1.36-2.64,1.78-1.06.42-2.34.62-3.84.62-1.34,0-2.56-.22-3.65-.65s-2-1.06-2.74-1.9c-.32-.35-.61-.74-.86-1.18-.26-.43-.47-.9-.65-1.39-.18-.5-.31-1.03-.41-1.61-.1-.58-.14-1.17-.14-1.78v-1.39h5.47v1.15c0,.48.06.93.17,1.34.11.42.31.78.6,1.1.22.26.52.46.89.62.37.16.82.24,1.37.24.64,0,1.17-.09,1.58-.26.42-.18.75-.44,1.01-.79.19-.32.34-.7.43-1.13s.14-.94.14-1.51v-1.39c0-.64-.04-1.19-.12-1.66-.08-.46-.2-.87-.36-1.22-.19-.38-.46-.71-.82-.98-.35-.27-.82-.5-1.39-.7l-3.41-1.2c-.9-.32-1.66-.69-2.28-1.1-.62-.42-1.16-.93-1.61-1.54-.51-.74-.88-1.59-1.1-2.57-.22-.98-.34-2.18-.34-3.62v-.91c0-1.22.21-2.35.62-3.41.42-1.06,1.01-1.98,1.78-2.78.74-.74,1.62-1.31,2.66-1.73,1.04-.42,2.2-.62,3.48-.62s2.38.2,3.38.6c1.01.4,1.87.98,2.59,1.73.72.75,1.27,1.68,1.66,2.78.38,1.1.58,2.36.58,3.77v1.1h-5.47v-.91Z"/>
        <path class="cls-2" d="M186.01,110.74l7.44,19.25v-19.25h5.52v33.6h-5.23l-7.44-19.54v19.54h-5.52v-33.6h5.23Z"/>
        <path class="cls-2" d="M209.68,144.37c-1.02-.3-1.97-.81-2.83-1.51-.45-.35-.85-.75-1.2-1.2-.35-.45-.66-.96-.91-1.54-.26-.58-.46-1.22-.6-1.92s-.22-1.47-.22-2.3v-16.7c0-.83.07-1.6.22-2.3.14-.7.34-1.34.6-1.92.26-.58.56-1.09.91-1.54.35-.45.75-.85,1.2-1.2.86-.7,1.81-1.21,2.83-1.51,1.02-.3,2.03-.46,3.02-.46s2,.15,3.02.46c1.02.3,1.97.81,2.83,1.51.45.35.85.75,1.2,1.2.35.45.66.96.91,1.54.26.58.46,1.22.6,1.92.14.7.22,1.47.22,2.3v16.7c0,.83-.07,1.6-.22,2.3-.14.7-.34,1.34-.6,1.92-.26.58-.56,1.09-.91,1.54-.35.45-.75.85-1.2,1.2-.86.7-1.81,1.21-2.83,1.51-1.02.3-2.03.46-3.02.46s-2-.15-3.02-.46ZM214,139.18c.38-.14.74-.38,1.06-.7.29-.29.51-.65.67-1.08.16-.43.24-.94.24-1.51v-16.7c0-.58-.08-1.08-.24-1.51s-.38-.81-.67-1.13c-.32-.29-.67-.5-1.06-.65-.38-.14-.82-.22-1.3-.22s-.91.07-1.3.22c-.38.14-.74.36-1.06.65-.29.32-.51.7-.67,1.13-.16.43-.24.94-.24,1.51v16.7c0,.58.08,1.08.24,1.51.16.43.38.79.67,1.08.32.32.67.55,1.06.7.38.14.82.22,1.3.22s.91-.07,1.3-.22Z"/>
        <path class="cls-2" d="M231.95,110.74v33.6h-5.52v-33.6h5.52Z"/>
        <path class="cls-2" d="M243.56,110.74c.58,0,1.24.02,1.99.05s1.53.13,2.33.29c.8.16,1.58.42,2.33.79.75.37,1.43.87,2.04,1.51.61.64,1.1,1.46,1.46,2.47.37,1.01.55,2.25.55,3.72v3.02c0,1.02-.13,1.94-.38,2.74-.26.8-.58,1.49-.98,2.06-.4.58-.84,1.05-1.32,1.42-.48.37-.96.63-1.44.79l5.04,14.74h-5.76l-4.42-13.54h-2.26v13.54h-5.52v-33.6h6.34ZM242.75,125.77h2.5c.51,0,.98-.08,1.42-.24.43-.16.8-.41,1.1-.74.3-.34.54-.74.72-1.22.18-.48.26-1.04.26-1.68v-2.54c0-.8-.12-1.43-.36-1.9-.24-.46-.55-.82-.94-1.06-.38-.24-.79-.4-1.22-.48-.43-.08-.84-.12-1.22-.12h-2.26v9.98Z"/>
    </g>
</svg>
